<?xml version="1.0" encoding="utf-8"?>
<svg version="1.1" xmlns:xlink="http://www.w3.org/1999/xlink" width="10px" height="335px" preserveAspectRatio="xMidYMin meet" viewBox="2900 1633  8 335" xmlns="http://www.w3.org/2000/svg">
  <path d="M 2288.5 2002  L 2288.5 1643  A 5 5 0 0 1 2293.5 1638.5 L 2899 1638.5  A 5 5 0 0 1 2904.5 1643.5 L 2904.5 1958  A 5 5 0 0 0 2909.5 1963.5 L 2957 1963.5  " stroke-width="1" stroke="#ff3399" fill="none" />
  <path d="M 2288.5 1997  A 3 3 0 0 0 2285.5 2000 A 3 3 0 0 0 2288.5 2003 A 3 3 0 0 0 2291.5 2000 A 3 3 0 0 0 2288.5 1997 Z " fill-rule="nonzero" fill="#ff3399" stroke="none" />
</svg>