<?xml version="1.0" encoding="utf-8"?>
<svg version="1.1" xmlns:xlink="http://www.w3.org/1999/xlink" width="157px" height="69px" xmlns="http://www.w3.org/2000/svg">
  <g transform="matrix(1 0 0 1 -2191 -2019 )">
    <path d="M 2192 2023  A 3 3 0 0 1 2195 2020 L 2344 2020  A 3 3 0 0 1 2347 2023 L 2347 2084  A 3 3 0 0 1 2344 2087 L 2195 2087  A 3 3 0 0 1 2192 2084 L 2192 2023  Z " fill-rule="nonzero" fill="#ff3399" stroke="none" fill-opacity="0.0980392156862745" />
    <path d="M 2191.5 2023  A 3.5 3.5 0 0 1 2195 2019.5 L 2344 2019.5  A 3.5 3.5 0 0 1 2347.5 2023 L 2347.5 2084  A 3.5 3.5 0 0 1 2344 2087.5 L 2195 2087.5  A 3.5 3.5 0 0 1 2191.5 2084 L 2191.5 2023  Z " stroke-width="1" stroke-dasharray="9,4" stroke="#ff3399" fill="none" stroke-dashoffset="0.5" />
  </g>
</svg>