<?xml version="1.0" encoding="utf-8"?>
<svg version="1.1" xmlns:xlink="http://www.w3.org/1999/xlink" width="104px" height="104px" xmlns="http://www.w3.org/2000/svg">
  <g transform="matrix(1 0 0 1 -889 -319 )">
    <path d="M 890 323  A 3 3 0 0 1 893 320 L 989 320  A 3 3 0 0 1 992 323 L 992 419  A 3 3 0 0 1 989 422 L 893 422  A 3 3 0 0 1 890 419 L 890 323  Z " fill-rule="nonzero" fill="#ffffff" stroke="none" />
    <path d="M 889.5 323  A 3.5 3.5 0 0 1 893 319.5 L 989 319.5  A 3.5 3.5 0 0 1 992.5 323 L 992.5 419  A 3.5 3.5 0 0 1 989 422.5 L 893 422.5  A 3.5 3.5 0 0 1 889.5 419 L 889.5 323  Z " stroke-width="1" stroke-dasharray="9,4" stroke="#d9d9d9" fill="none" stroke-dashoffset="0.5" />
  </g>
</svg>