<?xml version="1.0" encoding="utf-8"?>
<svg version="1.1" xmlns:xlink="http://www.w3.org/1999/xlink" width="104px" height="104px" xmlns="http://www.w3.org/2000/svg">
  <g transform="matrix(1 0 0 1 -769 -319 )">
    <path d="M 770 323  A 3 3 0 0 1 773 320 L 869 320  A 3 3 0 0 1 872 323 L 872 419  A 3 3 0 0 1 869 422 L 773 422  A 3 3 0 0 1 770 419 L 770 323  Z " fill-rule="nonzero" fill="#000000" stroke="none" fill-opacity="0.0196078431372549" />
    <path d="M 769.5 323  A 3.5 3.5 0 0 1 773 319.5 L 869 319.5  A 3.5 3.5 0 0 1 872.5 323 L 872.5 419  A 3.5 3.5 0 0 1 869 422.5 L 773 422.5  A 3.5 3.5 0 0 1 769.5 419 L 769.5 323  Z " stroke-width="1" stroke-dasharray="9,4" stroke="#d9d9d9" fill="none" stroke-dashoffset="0.5" />
  </g>
</svg>