<?xml version="1.0" encoding="utf-8"?>
<svg version="1.1" xmlns:xlink="http://www.w3.org/1999/xlink" width="825px" height="46px" xmlns="http://www.w3.org/2000/svg">
  <g transform="matrix(1 0 0 1 -1941 -1431 )">
    <path d="M 1942 1435  A 3 3 0 0 1 1945 1432 L 2762 1432  A 3 3 0 0 1 2765 1435 L 2765 1473  A 3 3 0 0 1 2762 1476 L 1945 1476  A 3 3 0 0 1 1942 1473 L 1942 1435  Z " fill-rule="nonzero" fill="#ff3399" stroke="none" fill-opacity="0.0980392156862745" />
    <path d="M 1941.5 1435  A 3.5 3.5 0 0 1 1945 1431.5 L 2762 1431.5  A 3.5 3.5 0 0 1 2765.5 1435 L 2765.5 1473  A 3.5 3.5 0 0 1 2762 1476.5 L 1945 1476.5  A 3.5 3.5 0 0 1 1941.5 1473 L 1941.5 1435  Z " stroke-width="1" stroke-dasharray="9,4" stroke="#ff3399" fill="none" stroke-dashoffset="0.5" />
  </g>
</svg>