<?xml version="1.0" encoding="utf-8"?>
<svg version="1.1" xmlns:xlink="http://www.w3.org/1999/xlink" width="10px" height="6px" preserveAspectRatio="xMinYMid meet" viewBox="3332 1811  10 4" xmlns="http://www.w3.org/2000/svg">
  <path d="M 3337.04030230587 1811.34147098481  A 1 1 0 0 1 3336.5 1811.5 L 3275 1811.5  A 5 5 0 0 1 3270.5 1806.5 L 3270.5 1782  A 5 5 0 0 0 3265.5 1777.5 L 3116 1777.5  " stroke-width="1" stroke="#ff3399" fill="none" />
  <path d="M 3334.5707963268 1808.5  A 3 3 0 0 0 3331.5707963268 1811.5 A 3 3 0 0 0 3334.5707963268 1814.5 A 3 3 0 0 0 3337.5707963268 1811.5 A 3 3 0 0 0 3334.5707963268 1808.5 Z " fill-rule="nonzero" fill="#ff3399" stroke="none" />
</svg>