<?xml version="1.0" encoding="utf-8"?>
<svg version="1.1" xmlns:xlink="http://www.w3.org/1999/xlink" width="540px" height="116px" xmlns="http://www.w3.org/2000/svg">
  <g transform="matrix(1 0 0 1 -1941 -2064 )">
    <path d="M 1942 2068  A 3 3 0 0 1 1945 2065 L 2477 2065  A 3 3 0 0 1 2480 2068 L 2480 2176  A 3 3 0 0 1 2477 2179 L 1945 2179  A 3 3 0 0 1 1942 2176 L 1942 2068  Z " fill-rule="nonzero" fill="#ff3399" stroke="none" fill-opacity="0.0980392156862745" />
    <path d="M 1941.5 2068  A 3.5 3.5 0 0 1 1945 2064.5 L 2477 2064.5  A 3.5 3.5 0 0 1 2480.5 2068 L 2480.5 2176  A 3.5 3.5 0 0 1 2477 2179.5 L 1945 2179.5  A 3.5 3.5 0 0 1 1941.5 2176 L 1941.5 2068  Z " stroke-width="1" stroke-dasharray="9,4" stroke="#ff3399" fill="none" stroke-dashoffset="0.5" />
  </g>
</svg>