<?xml version="1.0" encoding="utf-8"?>
<svg version="1.1" xmlns:xlink="http://www.w3.org/1999/xlink" width="15px" height="16px" xmlns="http://www.w3.org/2000/svg">
  <g transform="matrix(1 0 0 1 -3834 -2580 )">
    <path d="M 3.82662259615385 12.0694444444444  C 4.05198317307692 12.3009259259259  4.16466346153846 12.5802469135802  4.16466346153846 12.9074074074074  C 4.16466346153846 13.2345679012346  4.05198317307692 13.5138888888889  3.82662259615385 13.7453703703704  C 3.60126201923077 13.9768518518519  3.32932692307692 14.0925925925926  3.01081730769231 14.0925925925926  C 2.69831730769231 14.0925925925926  2.42788461538462 13.9753086419753  2.19951923076923 13.7407407407407  C 1.97115384615385 13.5061728395062  1.85697115384615 13.2283950617284  1.85697115384615 12.9074074074074  C 1.85697115384615 12.5802469135802  1.96965144230769 12.3009259259259  2.19501201923077 12.0694444444444  C 2.42037259615385 11.837962962963  2.69230769230769 11.7222222222222  3.01081730769231 11.7222222222222  C 3.32932692307692 11.7222222222222  3.60126201923077 11.837962962963  3.82662259615385 12.0694444444444  Z M 8.31580528846154 13.9768518518519  C 8.54116586538461 14.2083333333333  8.65384615384615 14.4876543209877  8.65384615384615 14.8148148148148  C 8.65384615384615 15.141975308642  8.54116586538461 15.4212962962963  8.31580528846154 15.6527777777778  C 8.09044471153846 15.8842592592593  7.81850961538461 16  7.5 16  C 7.18149038461539 16  6.90955528846154 15.8842592592593  6.68419471153846 15.6527777777778  C 6.45883413461538 15.4212962962963  6.34615384615385 15.141975308642  6.34615384615385 14.8148148148148  C 6.34615384615385 14.4876543209877  6.45883413461538 14.2083333333333  6.68419471153846 13.9768518518519  C 6.90955528846154 13.7453703703704  7.18149038461539 13.6296296296296  7.5 13.6296296296296  C 7.81850961538461 13.6296296296296  8.09044471153846 13.7453703703704  8.31580528846154 13.9768518518519  Z M 1.96965144230769 7.45833333333333  C 2.19501201923077 7.68981481481481  2.30769230769231 7.96913580246914  2.30769230769231 8.2962962962963  C 2.30769230769231 8.62345679012346  2.19501201923077 8.90277777777778  1.96965144230769 9.13425925925926  C 1.74429086538462 9.36574074074074  1.47235576923077 9.48148148148148  1.15384615384615 9.48148148148148  C 0.835336538461539 9.48148148148148  0.563401442307692 9.36574074074074  0.338040865384615 9.13425925925926  C 0.112680288461538 8.90277777777778  0 8.62345679012346  0 8.2962962962963  C 0 7.96913580246914  0.112680288461538 7.68981481481481  0.338040865384615 7.45833333333333  C 0.563401442307692 7.22685185185185  0.835336538461539 7.11111111111111  1.15384615384615 7.11111111111111  C 1.47235576923077 7.11111111111111  1.74429086538462 7.22685185185185  1.96965144230769 7.45833333333333  Z M 12.8049879807692 12.0694444444444  C 13.0303485576923 12.3009259259259  13.1430288461538 12.5802469135802  13.1430288461538 12.9074074074074  C 13.1430288461538 13.2283950617284  13.0288461538462 13.5061728395062  12.8004807692308 13.7407407407407  C 12.5721153846154 13.9753086419753  12.3016826923077 14.0925925925926  11.9891826923077 14.0925925925926  C 11.6706730769231 14.0925925925926  11.3987379807692 13.9768518518519  11.1733774038462 13.7453703703704  C 10.9480168269231 13.5138888888889  10.8353365384615 13.2345679012346  10.8353365384615 12.9074074074074  C 10.8353365384615 12.5802469135802  10.9480168269231 12.3009259259259  11.1733774038462 12.0694444444444  C 11.3987379807692 11.837962962963  11.6706730769231 11.7222222222222  11.9891826923077 11.7222222222222  C 12.3076923076923 11.7222222222222  12.5796274038462 11.837962962963  12.8049879807692 12.0694444444444  Z M 4.02944711538462 2.63888888888889  C 4.31189903846154 2.92901234567901  4.453125 3.27777777777778  4.453125 3.68518518518519  C 4.453125 4.09259259259259  4.31189903846154 4.44135802469136  4.02944711538462 4.73148148148148  C 3.74699519230769 5.0216049382716  3.40745192307692 5.16666666666667  3.01081730769231 5.16666666666667  C 2.61418269230769 5.16666666666667  2.27463942307692 5.0216049382716  1.9921875 4.73148148148148  C 1.70973557692308 4.44135802469136  1.56850961538462 4.09259259259259  1.56850961538462 3.68518518518519  C 1.56850961538462 3.27777777777778  1.70973557692308 2.92901234567901  1.9921875 2.63888888888889  C 2.27463942307692 2.34876543209876  2.61418269230769 2.2037037037037  3.01081730769231 2.2037037037037  C 3.40745192307692 2.2037037037037  3.74699519230769 2.34876543209876  4.02944711538462 2.63888888888889  Z M 14.6619591346154 7.45833333333333  C 14.8873197115385 7.68981481481481  15 7.96913580246914  15 8.2962962962963  C 15 8.62345679012346  14.8873197115385 8.90277777777778  14.6619591346154 9.13425925925926  C 14.4365985576923 9.36574074074074  14.1646634615385 9.48148148148148  13.8461538461538 9.48148148148148  C 13.5276442307692 9.48148148148148  13.2557091346154 9.36574074074074  13.0303485576923 9.13425925925926  C 12.8049879807692 8.90277777777778  12.6923076923077 8.62345679012346  12.6923076923077 8.2962962962963  C 12.6923076923077 7.96913580246914  12.8049879807692 7.68981481481481  13.0303485576923 7.45833333333333  C 13.2557091346154 7.22685185185185  13.5276442307692 7.11111111111111  13.8461538461538 7.11111111111111  C 14.1646634615385 7.11111111111111  14.4365985576923 7.22685185185185  14.6619591346154 7.45833333333333  Z M 8.72596153846154 0.518518518518519  C 9.0625 0.864197530864196  9.23076923076923 1.28395061728395  9.23076923076923 1.77777777777778  C 9.23076923076923 2.2716049382716  9.0625 2.69135802469136  8.72596153846154 3.03703703703704  C 8.38942307692308 3.38271604938272  7.98076923076923 3.55555555555556  7.5 3.55555555555556  C 7.01923076923077 3.55555555555556  6.61057692307692 3.38271604938272  6.27403846153846 3.03703703703704  C 5.9375 2.69135802469136  5.76923076923077 2.2716049382716  5.76923076923077 1.77777777777778  C 5.76923076923077 1.28395061728395  5.9375 0.864197530864196  6.27403846153846 0.518518518518519  C 6.61057692307692 0.17283950617284  7.01923076923077 0  7.5 0  C 7.98076923076923 0  8.38942307692308 0.17283950617284  8.72596153846154 0.518518518518519  Z M 13.4134615384615 2.22222222222222  C 13.8100961538462 2.62962962962963  14.0084134615385 3.11728395061728  14.0084134615385 3.68518518518519  C 14.0084134615385 4.25925925925926  13.8100961538462 4.74845679012346  13.4134615384615 5.15277777777778  C 13.0168269230769 5.5570987654321  12.5420673076923 5.75925925925926  11.9891826923077 5.75925925925926  C 11.4302884615385 5.75925925925926  10.9540264423077 5.5570987654321  10.5603966346154 5.15277777777778  C 10.1667668269231 4.74845679012346  9.96995192307692 4.25925925925926  9.96995192307692 3.68518518518519  C 9.96995192307692 3.11728395061728  10.1667668269231 2.62962962962963  10.5603966346154 2.22222222222222  C 10.9540264423077 1.81481481481481  11.4302884615385 1.61111111111111  11.9891826923077 1.61111111111111  C 12.5420673076923 1.61111111111111  13.0168269230769 1.81481481481481  13.4134615384615 2.22222222222222  Z " fill-rule="nonzero" fill="#d9d9d9" stroke="none" transform="matrix(1 0 0 1 3834 2580 )" />
  </g>
</svg>