<?xml version="1.0" encoding="utf-8"?>
<svg version="1.1" xmlns:xlink="http://www.w3.org/1999/xlink" width="80px" height="69px" xmlns="http://www.w3.org/2000/svg">
  <g transform="matrix(1 0 0 1 -1445 -329 )">
    <path d="M 51.4285714285714 54.041015625  C 51.8154761904762 54.041015625  52.1577380952381 53.8912760416667  52.4553571428571 53.591796875  L 58.9732142857143 47.033203125  C 59.2708333333333 46.7337239583333  59.4196428571429 46.3893229166667  59.4196428571429 46  C 59.4196428571429 45.6106770833333  59.2708333333333 45.2662760416667  58.9732142857143 44.966796875  L 48.5714285714286 34.5  L 58.9732142857143 24.033203125  C 59.2708333333333 23.7337239583333  59.4196428571429 23.3893229166667  59.4196428571429 23  C 59.4196428571429 22.6106770833333  59.2708333333333 22.2662760416667  58.9732142857143 21.966796875  L 52.4553571428571 15.408203125  C 52.1577380952381 15.1087239583333  51.8154761904762 14.958984375  51.4285714285714 14.958984375  C 51.0416666666667 14.958984375  50.6994047619048 15.1087239583333  50.4017857142857 15.408203125  L 40 25.875  L 29.5982142857143 15.408203125  C 29.3005952380952 15.1087239583333  28.9583333333333 14.958984375  28.5714285714286 14.958984375  C 28.1845238095238 14.958984375  27.8422619047619 15.1087239583333  27.5446428571429 15.408203125  L 21.0267857142857 21.966796875  C 20.7291666666667 22.2662760416667  20.5803571428571 22.6106770833333  20.5803571428571 23  C 20.5803571428571 23.3893229166667  20.7291666666667 23.7337239583333  21.0267857142857 24.033203125  L 31.4285714285714 34.5  L 21.0267857142857 44.966796875  C 20.7291666666667 45.2662760416667  20.5803571428571 45.6106770833333  20.5803571428571 46  C 20.5803571428571 46.3893229166667  20.7291666666667 46.7337239583333  21.0267857142857 47.033203125  L 27.5446428571429 53.591796875  C 27.8422619047619 53.8912760416667  28.1845238095238 54.041015625  28.5714285714286 54.041015625  C 28.9583333333333 54.041015625  29.3005952380952 53.8912760416667  29.5982142857143 53.591796875  L 40 43.125  L 50.4017857142857 53.591796875  C 50.6994047619048 53.8912760416667  51.0416666666667 54.041015625  51.4285714285714 54.041015625  Z M 77.9017857142857 2.111328125  C 79.3005952380952 3.51888020833333  80 5.2109375  80 7.1875  L 80 61.8125  C 80 63.7890625  79.3005952380952 65.4811197916667  77.9017857142857 66.888671875  C 76.5029761904762 68.2962239583333  74.8214285714286 69  72.8571428571429 69  L 7.14285714285714 69  C 5.17857142857143 69  3.49702380952381 68.2962239583333  2.09821428571429 66.888671875  C 0.699404761904762 65.4811197916667  0 63.7890625  0 61.8125  L 0 7.1875  C 0 5.2109375  0.699404761904762 3.51888020833333  2.09821428571429 2.111328125  C 3.49702380952381 0.70377604166666  5.17857142857143 0  7.14285714285714 0  L 72.8571428571429 0  C 74.8214285714286 0  76.5029761904762 0.70377604166666  77.9017857142857 2.111328125  Z " fill-rule="nonzero" fill="#cccccc" stroke="none" transform="matrix(1 0 0 1 1445 329 )" />
  </g>
</svg>