<?xml version="1.0" encoding="utf-8"?>
<svg version="1.1" xmlns:xlink="http://www.w3.org/1999/xlink" width="591px" height="10px" preserveAspectRatio="xMinYMid meet" viewBox="1824 1816  591 8" xmlns="http://www.w3.org/2000/svg">
  <path d="M 1829.5 1830  L 1829.5 1825  A 5 5 0 0 1 1834 1820.5 L 2377 1820.5  A 3 3 0 0 1 2380 1817.5 A 3 3 0 0 1 2383 1820.5 L 2405 1820.5  A 5 5 0 0 1 2410.5 1825.5 L 2410.5 1848  A 5 5 0 0 0 2415.5 1853.5 L 2424 1853.5  " stroke-width="1" stroke="#ff3399" fill="none" />
  <path d="M 1829.5 1825  A 3 3 0 0 0 1826.5 1828 A 3 3 0 0 0 1829.5 1831 A 3 3 0 0 0 1832.5 1828 A 3 3 0 0 0 1829.5 1825 Z " fill-rule="nonzero" fill="#ff3399" stroke="none" />
</svg>