<?xml version="1.0" encoding="utf-8"?>
<svg version="1.1" xmlns:xlink="http://www.w3.org/1999/xlink" width="10px" height="352px" preserveAspectRatio="xMidYMin meet" viewBox="2206 1957  8 352" xmlns="http://www.w3.org/2000/svg">
  <path d="M 2011 1962.5  L 2205 1962.5  A 5 5 0 0 1 2210.5 1967 L 2210.5 2020  A 3 3 0 0 1 2213.5 2023 A 3 3 0 0 1 2210.5 2026 L 2210.5 2299  A 5 5 0 0 0 2215.5 2304.5 L 2424 2304.5  " stroke-width="1" stroke="#ff3399" fill="none" />
  <path d="M 2013 1959.5  A 3 3 0 0 0 2010 1962.5 A 3 3 0 0 0 2013 1965.5 A 3 3 0 0 0 2016 1962.5 A 3 3 0 0 0 2013 1959.5 Z " fill-rule="nonzero" fill="#ff3399" stroke="none" />
</svg>