<?xml version="1.0" encoding="utf-8"?>
<svg version="1.1" xmlns:xlink="http://www.w3.org/1999/xlink" width="10px" height="277px" preserveAspectRatio="xMidYMin meet" viewBox="2388 1900  8 277" xmlns="http://www.w3.org/2000/svg">
  <path d="M 1869 1905.5  L 1887 1905.5  A 3 3 0 0 1 1890 1902.5 A 3 3 0 0 1 1893 1905.5 L 2387 1905.5  A 5 5 0 0 1 2392.5 1910 L 2392.5 2020  A 3 3 0 0 1 2395.5 2023 A 3 3 0 0 1 2392.5 2026 L 2392.5 2167  A 5 5 0 0 0 2397.5 2172.5 L 2424 2172.5  " stroke-width="1" stroke="#ff3399" fill="none" />
  <path d="M 1871 1902.5  A 3 3 0 0 0 1868 1905.5 A 3 3 0 0 0 1871 1908.5 A 3 3 0 0 0 1874 1905.5 A 3 3 0 0 0 1871 1902.5 Z " fill-rule="nonzero" fill="#ff3399" stroke="none" />
</svg>