<?xml version="1.0" encoding="utf-8"?>
<svg version="1.1" xmlns:xlink="http://www.w3.org/1999/xlink" width="29px" height="340px" xmlns="http://www.w3.org/2000/svg">
  <g transform="matrix(1 0 0 1 -1808 -1853 )">
    <path d="M 1809 1857  A 3 3 0 0 1 1812 1854 L 1833 1854  A 3 3 0 0 1 1836 1857 L 1836 2189  A 3 3 0 0 1 1833 2192 L 1812 2192  A 3 3 0 0 1 1809 2189 L 1809 1857  Z " fill-rule="nonzero" fill="#ff3399" stroke="none" fill-opacity="0.0980392156862745" />
    <path d="M 1808.5 1857  A 3.5 3.5 0 0 1 1812 1853.5 L 1833 1853.5  A 3.5 3.5 0 0 1 1836.5 1857 L 1836.5 2189  A 3.5 3.5 0 0 1 1833 2192.5 L 1812 2192.5  A 3.5 3.5 0 0 1 1808.5 2189 L 1808.5 1857  Z " stroke-width="1" stroke-dasharray="9,4" stroke="#ff3399" fill="none" stroke-dashoffset="0.5" />
  </g>
</svg>