<?xml version="1.0" encoding="utf-8"?>
<svg version="1.1" xmlns:xlink="http://www.w3.org/1999/xlink" width="221px" height="10px" preserveAspectRatio="xMinYMid meet" viewBox="2750 3283  221 8" xmlns="http://www.w3.org/2000/svg">
  <path d="M 3010 3339.5  L 2971 3339.5  A 5 5 0 0 1 2966.5 3334.5 L 2966.5 3292  A 5 5 0 0 0 2961.5 3287.5 L 2755.5 3287.5  A 0.5 0.5 0 0 0 2755.5 3288 L 2755.5 3288  " stroke-width="1" stroke="#ff3399" fill="none" />
  <path d="M 3008 3336.5  A 3 3 0 0 0 3005 3339.5 A 3 3 0 0 0 3008 3342.5 A 3 3 0 0 0 3011 3339.5 A 3 3 0 0 0 3008 3336.5 Z " fill-rule="nonzero" fill="#ff3399" stroke="none" />
</svg>