<?xml version="1.0" encoding="utf-8"?>
<svg version="1.1" xmlns:xlink="http://www.w3.org/1999/xlink" width="10px" height="508px" preserveAspectRatio="xMidYMin meet" viewBox="2126 1801  8 508" xmlns="http://www.w3.org/2000/svg">
  <path d="M 2008 1806.5  L 2125 1806.5  A 5 5 0 0 1 2130.5 1811 L 2130.5 2020  A 3 3 0 0 1 2133.5 2023 A 3 3 0 0 1 2130.5 2026 L 2130.5 2299  A 5 5 0 0 0 2135.5 2304.5 L 2265 2304.5  " stroke-width="1" stroke="#ff3399" fill="none" />
  <path d="M 2010 1803.5  A 3 3 0 0 0 2007 1806.5 A 3 3 0 0 0 2010 1809.5 A 3 3 0 0 0 2013 1806.5 A 3 3 0 0 0 2010 1803.5 Z " fill-rule="nonzero" fill="#ff3399" stroke="none" />
</svg>