<?xml version="1.0" encoding="utf-8"?>
<svg version="1.1" xmlns:xlink="http://www.w3.org/1999/xlink" width="18px" height="18px" preserveAspectRatio="xMinYMid meet" viewBox="2001 1865  18 16" xmlns="http://www.w3.org/2000/svg">
  <path d="M 2008 1873.5  L 2079 1873.5  A 5 5 0 0 1 2084.5 1878 L 2084.5 2020  A 3 3 0 0 1 2087.5 2023 A 3 3 0 0 1 2084.5 2026 L 2084.5 2472  A 5 5 0 0 0 2089.5 2477.5 L 2267 2477.5  " stroke-width="1" stroke="#ff3399" fill="none" />
  <path d="M 2010 1870.5  A 3 3 0 0 0 2007 1873.5 A 3 3 0 0 0 2010 1876.5 A 3 3 0 0 0 2013 1873.5 A 3 3 0 0 0 2010 1870.5 Z " fill-rule="nonzero" fill="#ff3399" stroke="none" />
</svg>