<?xml version="1.0" encoding="utf-8"?>
<svg version="1.1" xmlns:xlink="http://www.w3.org/1999/xlink" width="10px" height="689px" preserveAspectRatio="xMidYMin meet" viewBox="2067 1920  8 689" xmlns="http://www.w3.org/2000/svg">
  <path d="M 1908 1925.5  L 2066 1925.5  A 5 5 0 0 1 2071.5 1930 L 2071.5 2020  A 3 3 0 0 1 2074.5 2023 A 3 3 0 0 1 2071.5 2026 L 2071.5 2599  A 5 5 0 0 0 2076.5 2604.5 L 2267 2604.5  " stroke-width="1" stroke="#ff3399" fill="none" />
  <path d="M 1910 1922.5  A 3 3 0 0 0 1907 1925.5 A 3 3 0 0 0 1910 1928.5 A 3 3 0 0 0 1913 1925.5 A 3 3 0 0 0 1910 1922.5 Z " fill-rule="nonzero" fill="#ff3399" stroke="none" />
</svg>