<?xml version="1.0" encoding="utf-8"?>
<svg version="1.1" xmlns:xlink="http://www.w3.org/1999/xlink" width="737px" height="93px" xmlns="http://www.w3.org/2000/svg">
  <g transform="matrix(1 0 0 1 -2476 -1875 )">
    <path d="M 2477 1879  A 3 3 0 0 1 2480 1876 L 3209 1876  A 3 3 0 0 1 3212 1879 L 3212 1964  A 3 3 0 0 1 3209 1967 L 2480 1967  A 3 3 0 0 1 2477 1964 L 2477 1879  Z " fill-rule="nonzero" fill="#ff3399" stroke="none" fill-opacity="0.0980392156862745" />
    <path d="M 2476.5 1879  A 3.5 3.5 0 0 1 2480 1875.5 L 3209 1875.5  A 3.5 3.5 0 0 1 3212.5 1879 L 3212.5 1964  A 3.5 3.5 0 0 1 3209 1967.5 L 2480 1967.5  A 3.5 3.5 0 0 1 2476.5 1964 L 2476.5 1879  Z " stroke-width="1" stroke-dasharray="9,4" stroke="#ff3399" fill="none" stroke-dashoffset="0.5" />
  </g>
</svg>