<?xml version="1.0" encoding="utf-8"?>
<svg version="1.1" xmlns:xlink="http://www.w3.org/1999/xlink" width="834px" height="30px" xmlns="http://www.w3.org/2000/svg">
  <g transform="matrix(1 0 0 1 -2462 -2237 )">
    <path d="M 2463 2241  A 3 3 0 0 1 2466 2238 L 3292 2238  A 3 3 0 0 1 3295 2241 L 3295 2263  A 3 3 0 0 1 3292 2266 L 2466 2266  A 3 3 0 0 1 2463 2263 L 2463 2241  Z " fill-rule="nonzero" fill="#ff3399" stroke="none" fill-opacity="0.0980392156862745" />
    <path d="M 2462.5 2241  A 3.5 3.5 0 0 1 2466 2237.5 L 3292 2237.5  A 3.5 3.5 0 0 1 3295.5 2241 L 3295.5 2263  A 3.5 3.5 0 0 1 3292 2266.5 L 2466 2266.5  A 3.5 3.5 0 0 1 2462.5 2263 L 2462.5 2241  Z " stroke-width="1" stroke-dasharray="9,4" stroke="#ff3399" fill="none" stroke-dashoffset="0.5" />
  </g>
</svg>