<?xml version="1.0" encoding="utf-8"?>
<svg version="1.1" xmlns:xlink="http://www.w3.org/1999/xlink" width="353px" height="10px" preserveAspectRatio="xMinYMid meet" viewBox="3257 2423  353 8" xmlns="http://www.w3.org/2000/svg">
  <path d="M 3262.5 1707  L 3262.5 1994  A 3 3 0 0 1 3265.5 1997 A 3 3 0 0 1 3262.5 2000 L 3262.5 2310  A 3 3 0 0 1 3265.5 2313 A 3 3 0 0 1 3262.5 2316 L 3262.5 2422  A 5 5 0 0 0 3267.5 2427.5 L 3610 2427.5  " stroke-width="1" stroke="#ff3399" fill="none" />
  <path d="M 3262.5 1706  A 3 3 0 0 0 3259.5 1709 A 3 3 0 0 0 3262.5 1712 A 3 3 0 0 0 3265.5 1709 A 3 3 0 0 0 3262.5 1706 Z " fill-rule="nonzero" fill="#ff3399" stroke="none" />
</svg>