<?xml version="1.0" encoding="utf-8"?>
<svg version="1.1" xmlns:xlink="http://www.w3.org/1999/xlink" width="444px" height="10px" preserveAspectRatio="xMinYMid meet" viewBox="1821 1391  444 8" xmlns="http://www.w3.org/2000/svg">
  <path d="M 1826.5 1553  L 1826.5 1400  A 5 5 0 0 1 1831 1395.5 L 2127 1395.5  A 3 3 0 0 1 2130 1392.5 A 3 3 0 0 1 2133 1395.5 L 2265 1395.5  " stroke-width="1" stroke="#ff3399" fill="none" />
  <path d="M 1826.5 1548  A 3 3 0 0 0 1823.5 1551 A 3 3 0 0 0 1826.5 1554 A 3 3 0 0 0 1829.5 1551 A 3 3 0 0 0 1826.5 1548 Z " fill-rule="nonzero" fill="#ff3399" stroke="none" />
</svg>