<?xml version="1.0" encoding="utf-8"?>
<svg version="1.1" xmlns:xlink="http://www.w3.org/1999/xlink" width="281px" height="10px" preserveAspectRatio="xMinYMid meet" viewBox="1990 2490  281 8" xmlns="http://www.w3.org/2000/svg">
  <path d="M 1995.5 1926  L 1995.5 2020  A 3 3 0 0 1 1998.5 2023 A 3 3 0 0 1 1995.5 2026 L 1995.5 2489  A 5 5 0 0 0 2000.5 2494.5 L 2271 2494.5  " stroke-width="1" stroke="#ff3399" fill="none" />
  <path d="M 1995.5 1925  A 3 3 0 0 0 1992.5 1928 A 3 3 0 0 0 1995.5 1931 A 3 3 0 0 0 1998.5 1928 A 3 3 0 0 0 1995.5 1925 Z " fill-rule="nonzero" fill="#ff3399" stroke="none" />
</svg>