<?xml version="1.0" encoding="utf-8"?>
<svg version="1.1" xmlns:xlink="http://www.w3.org/1999/xlink" width="50px" height="10px" preserveAspectRatio="xMinYMid meet" viewBox="2215 2200  50 8" xmlns="http://www.w3.org/2000/svg">
  <path d="M 2192 1909.5  L 2215 1909.5  A 5 5 0 0 1 2220.5 1914 L 2220.5 2020  A 3 3 0 0 1 2223.5 2023 A 3 3 0 0 1 2220.5 2026 L 2220.5 2199  A 5 5 0 0 0 2225.5 2204.5 L 2265 2204.5  " stroke-width="1" stroke="#ff3399" fill="none" />
  <path d="M 2194 1906.5  A 3 3 0 0 0 2191 1909.5 A 3 3 0 0 0 2194 1912.5 A 3 3 0 0 0 2197 1909.5 A 3 3 0 0 0 2194 1906.5 Z " fill-rule="nonzero" fill="#ff3399" stroke="none" />
</svg>