<?xml version="1.0" encoding="utf-8"?>
<svg version="1.1" xmlns:xlink="http://www.w3.org/1999/xlink" width="18px" height="18px" preserveAspectRatio="xMinYMid meet" viewBox="2999 2669  18 16" xmlns="http://www.w3.org/2000/svg">
  <path d="M 3010 2677.5  L 2971 2677.5  A 5 5 0 0 1 2966.5 2672.5 L 2966.5 2630  A 5 5 0 0 0 2961.5 2625.5 L 2755.5 2625.5  A 0.5 0.5 0 0 0 2755.5 2626 L 2755.5 2626  " stroke-width="1" stroke="#ff3399" fill="none" />
  <path d="M 3008 2674.5  A 3 3 0 0 0 3005 2677.5 A 3 3 0 0 0 3008 2680.5 A 3 3 0 0 0 3011 2677.5 A 3 3 0 0 0 3008 2674.5 Z " fill-rule="nonzero" fill="#ff3399" stroke="none" />
</svg>