<?xml version="1.0" encoding="utf-8"?>
<svg version="1.1" xmlns:xlink="http://www.w3.org/1999/xlink" width="18px" height="18px" preserveAspectRatio="xMinYMid meet" viewBox="1998 1803  18 16" xmlns="http://www.w3.org/2000/svg">
  <path d="M 2008 1814.5  L 2024 1814.5  A 5 5 0 0 1 2029.5 1819 L 2029.5 2020  A 3 3 0 0 1 2032.5 2023 A 3 3 0 0 1 2029.5 2026 L 2029.5 2299  A 5 5 0 0 0 2034.5 2304.5 L 2269 2304.5  " stroke-width="1" stroke="#ff3399" fill="none" />
  <path d="M 2010 1811.5  A 3 3 0 0 0 2007 1814.5 A 3 3 0 0 0 2010 1817.5 A 3 3 0 0 0 2013 1814.5 A 3 3 0 0 0 2010 1811.5 Z " fill-rule="nonzero" fill="#ff3399" stroke="none" />
</svg>