<?xml version="1.0" encoding="utf-8"?>
<svg version="1.1" xmlns:xlink="http://www.w3.org/1999/xlink" width="294px" height="116px" xmlns="http://www.w3.org/2000/svg">
  <g transform="matrix(1 0 0 1 -338 -530 )">
    <path d="M 339 534  A 3 3 0 0 1 342 531 L 628 531  A 3 3 0 0 1 631 534 L 631 642  A 3 3 0 0 1 628 645 L 342 645  A 3 3 0 0 1 339 642 L 339 534  Z " fill-rule="nonzero" fill="#000000" stroke="none" fill-opacity="0.0196078431372549" />
    <path d="M 338.5 534  A 3.5 3.5 0 0 1 342 530.5 L 628 530.5  A 3.5 3.5 0 0 1 631.5 534 L 631.5 642  A 3.5 3.5 0 0 1 628 645.5 L 342 645.5  A 3.5 3.5 0 0 1 338.5 642 L 338.5 534  Z " stroke-width="1" stroke-dasharray="9,4" stroke="#d9d9d9" fill="none" stroke-dashoffset="0.5" />
  </g>
</svg>