<?xml version="1.0" encoding="utf-8"?>
<svg version="1.1" xmlns:xlink="http://www.w3.org/1999/xlink" width="113px" height="13px" xmlns="http://www.w3.org/2000/svg">
  <g transform="matrix(1 0 0 1 -2032 -1697 )">
    <path d="M 2033 1701  A 3 3 0 0 1 2036 1698 L 2141 1698  A 3 3 0 0 1 2144 1701 L 2144 1706  A 3 3 0 0 1 2141 1709 L 2036 1709  A 3 3 0 0 1 2033 1706 L 2033 1701  Z " fill-rule="nonzero" fill="#ff3399" stroke="none" fill-opacity="0.0980392156862745" />
    <path d="M 2032.5 1701  A 3.5 3.5 0 0 1 2036 1697.5 L 2141 1697.5  A 3.5 3.5 0 0 1 2144.5 1701 L 2144.5 1706  A 3.5 3.5 0 0 1 2141 1709.5 L 2036 1709.5  A 3.5 3.5 0 0 1 2032.5 1706 L 2032.5 1701  Z " stroke-width="1" stroke-dasharray="9,4" stroke="#ff3399" fill="none" stroke-dashoffset="0.5" />
  </g>
</svg>