<?xml version="1.0" encoding="utf-8"?>
<svg version="1.1" xmlns:xlink="http://www.w3.org/1999/xlink" width="128px" height="84px" xmlns="http://www.w3.org/2000/svg">
  <g transform="matrix(1 0 0 1 -2036 -1940 )">
    <path d="M 2037 1944  A 3 3 0 0 1 2040 1941 L 2160 1941  A 3 3 0 0 1 2163 1944 L 2163 2020  A 3 3 0 0 1 2160 2023 L 2040 2023  A 3 3 0 0 1 2037 2020 L 2037 1944  Z " fill-rule="nonzero" fill="#ff3399" stroke="none" fill-opacity="0.0980392156862745" />
    <path d="M 2036.5 1944  A 3.5 3.5 0 0 1 2040 1940.5 L 2160 1940.5  A 3.5 3.5 0 0 1 2163.5 1944 L 2163.5 2020  A 3.5 3.5 0 0 1 2160 2023.5 L 2040 2023.5  A 3.5 3.5 0 0 1 2036.5 2020 L 2036.5 1944  Z " stroke-width="1" stroke-dasharray="9,4" stroke="#ff3399" fill="none" stroke-dashoffset="0.5" />
  </g>
</svg>