<?xml version="1.0" encoding="utf-8"?>
<svg version="1.1" xmlns:xlink="http://www.w3.org/1999/xlink" width="530px" height="67px" xmlns="http://www.w3.org/2000/svg">
  <g transform="matrix(1 0 0 1 -2036 -1776 )">
    <path d="M 2037 1780  A 3 3 0 0 1 2040 1777 L 2562 1777  A 3 3 0 0 1 2565 1780 L 2565 1839  A 3 3 0 0 1 2562 1842 L 2040 1842  A 3 3 0 0 1 2037 1839 L 2037 1780  Z " fill-rule="nonzero" fill="#ff3399" stroke="none" fill-opacity="0.0980392156862745" />
    <path d="M 2036.5 1780  A 3.5 3.5 0 0 1 2040 1776.5 L 2562 1776.5  A 3.5 3.5 0 0 1 2565.5 1780 L 2565.5 1839  A 3.5 3.5 0 0 1 2562 1842.5 L 2040 1842.5  A 3.5 3.5 0 0 1 2036.5 1839 L 2036.5 1780  Z " stroke-width="1" stroke-dasharray="9,4" stroke="#ff3399" fill="none" stroke-dashoffset="0.5" />
  </g>
</svg>