<?xml version="1.0" encoding="utf-8"?>
<svg version="1.1" xmlns:xlink="http://www.w3.org/1999/xlink" width="530px" height="110px" xmlns="http://www.w3.org/2000/svg">
  <g transform="matrix(1 0 0 1 -2036 -2052 )">
    <path d="M 2037 2056  A 3 3 0 0 1 2040 2053 L 2562 2053  A 3 3 0 0 1 2565 2056 L 2565 2158  A 3 3 0 0 1 2562 2161 L 2040 2161  A 3 3 0 0 1 2037 2158 L 2037 2056  Z " fill-rule="nonzero" fill="#ff3399" stroke="none" fill-opacity="0.0980392156862745" />
    <path d="M 2036.5 2056  A 3.5 3.5 0 0 1 2040 2052.5 L 2562 2052.5  A 3.5 3.5 0 0 1 2565.5 2056 L 2565.5 2158  A 3.5 3.5 0 0 1 2562 2161.5 L 2040 2161.5  A 3.5 3.5 0 0 1 2036.5 2158 L 2036.5 2056  Z " stroke-width="1" stroke-dasharray="9,4" stroke="#ff3399" fill="none" stroke-dashoffset="0.5" />
  </g>
</svg>