<?xml version="1.0" encoding="utf-8"?>
<svg version="1.1" xmlns:xlink="http://www.w3.org/1999/xlink" width="50px" height="43px" xmlns="http://www.w3.org/2000/svg">
  <g transform="matrix(1 0 0 1 -4712 -2245 )">
    <path d="M 35.3515625 26.875  C 35.3515625 27.1176215277778  35.2585565476191 27.3322482638889  35.0725446428571 27.5188802083333  L 30.9988839285714 31.6061197916667  C 30.8128720238095 31.7927517361111  30.5989583333333 31.8860677083333  30.3571428571429 31.8860677083333  C 30.1153273809524 31.8860677083333  29.9014136904762 31.7927517361111  29.7154017857143 31.6061197916667  L 25 26.875  L 20.2845982142857 31.6061197916667  C 20.0985863095238 31.7927517361111  19.8846726190476 31.8860677083333  19.6428571428571 31.8860677083333  C 19.4010416666667 31.8860677083333  19.1871279761905 31.7927517361111  19.0011160714286 31.6061197916667  L 14.9274553571429 27.5188802083333  C 14.741443452381 27.3322482638889  14.6484375 27.1176215277778  14.6484375 26.875  C 14.6484375 26.6323784722222  14.741443452381 26.4177517361111  14.9274553571429 26.2311197916667  L 19.6428571428571 21.5  L 14.9274553571429 16.7688802083333  C 14.741443452381 16.5822482638889  14.6484375 16.3676215277778  14.6484375 16.125  C 14.6484375 15.8823784722222  14.741443452381 15.6677517361111  14.9274553571429 15.4811197916667  L 19.0011160714286 11.3938802083333  C 19.1871279761905 11.2072482638889  19.4010416666667 11.1139322916667  19.6428571428571 11.1139322916667  C 19.8846726190476 11.1139322916667  20.0985863095238 11.2072482638889  20.2845982142857 11.3938802083333  L 25 16.125  L 29.7154017857143 11.3938802083333  C 29.9014136904762 11.2072482638889  30.1153273809524 11.1139322916667  30.3571428571429 11.1139322916667  C 30.5989583333333 11.1139322916667  30.8128720238095 11.2072482638889  30.9988839285714 11.3938802083333  L 35.0725446428571 15.4811197916667  C 35.2585565476191 15.6677517361111  35.3515625 15.8823784722222  35.3515625 16.125  C 35.3515625 16.3676215277778  35.2585565476191 16.5822482638889  35.0725446428571 16.7688802083333  L 30.3571428571429 21.5  L 35.0725446428571 26.2311197916667  C 35.2585565476191 26.4177517361111  35.3515625 26.6323784722222  35.3515625 26.875  Z M 8 8  L 8 35  L 42 35  L 42 8  L 8 8  Z M 48.6886160714286 1.31575520833333  C 49.5628720238095 2.19292534722222  50 3.24739583333333  50 4.47916666666667  L 50 38.5208333333333  C 50 39.7526041666667  49.5628720238095 40.8070746527778  48.6886160714286 41.6842447916667  C 47.8143601190476 42.5614149305556  46.7633928571429 43  45.5357142857143 43  L 4.46428571428571 43  C 3.23660714285714 43  2.18563988095238 42.5614149305556  1.31138392857143 41.6842447916667  C 0.437127976190476 40.8070746527778  0 39.7526041666667  0 38.5208333333333  L 0 4.47916666666667  C 0 3.24739583333333  0.437127976190476 2.19292534722222  1.31138392857143 1.31575520833333  C 2.18563988095238 0.43858506944444  3.23660714285714 0  4.46428571428571 0  L 45.5357142857143 0  C 46.7633928571429 0  47.8143601190476 0.43858506944444  48.6886160714286 1.31575520833333  Z " fill-rule="nonzero" fill="#000000" stroke="none" transform="matrix(1 0 0 1 4712 2245 )" />
  </g>
</svg>