<?xml version="1.0" encoding="utf-8"?>
<svg version="1.1" xmlns:xlink="http://www.w3.org/1999/xlink" width="18px" height="18px" preserveAspectRatio="xMinYMid meet" viewBox="2210 1987  18 16" xmlns="http://www.w3.org/2000/svg">
  <path d="M 2219.5 1993  L 2219.5 2490  A 3 3 0 0 1 2222.5 2493 A 3 3 0 0 1 2219.5 2496 L 2219.5 2657  A 5 5 0 0 0 2224.5 2662.5 L 3196 2662.5  " stroke-width="1" stroke="#ff3399" fill="none" />
  <path d="M 2219.5 1992  A 3 3 0 0 0 2216.5 1995 A 3 3 0 0 0 2219.5 1998 A 3 3 0 0 0 2222.5 1995 A 3 3 0 0 0 2219.5 1992 Z " fill-rule="nonzero" fill="#ff3399" stroke="none" />
</svg>