<?xml version="1.0" encoding="utf-8"?>
<svg version="1.1" xmlns:xlink="http://www.w3.org/1999/xlink" width="10px" height="201px" preserveAspectRatio="xMidYMin meet" viewBox="3028 1915  8 201" xmlns="http://www.w3.org/2000/svg">
  <path d="M 2281.5 1932  L 2281.5 1925  A 5 5 0 0 1 2286.5 1920.5 L 3027 1920.5  A 5 5 0 0 1 3032.5 1925.5 L 3032.5 2106  A 5 5 0 0 0 3037.5 2111.5 L 3190 2111.5  " stroke-width="1" stroke="#ff3399" fill="none" />
  <path d="M 2281.5 1927  A 3 3 0 0 0 2278.5 1930 A 3 3 0 0 0 2281.5 1933 A 3 3 0 0 0 2284.5 1930 A 3 3 0 0 0 2281.5 1927 Z " fill-rule="nonzero" fill="#ff3399" stroke="none" />
</svg>