<?xml version="1.0" encoding="utf-8"?>
<svg version="1.1" xmlns:xlink="http://www.w3.org/1999/xlink" width="179px" height="27px" xmlns="http://www.w3.org/2000/svg">
  <g transform="matrix(1 0 0 1 -2259 -1925 )">
    <path d="M 2260 1929  A 3 3 0 0 1 2263 1926 L 2434 1926  A 3 3 0 0 1 2437 1929 L 2437 1948  A 3 3 0 0 1 2434 1951 L 2263 1951  A 3 3 0 0 1 2260 1948 L 2260 1929  Z " fill-rule="nonzero" fill="#ff3399" stroke="none" fill-opacity="0.0980392156862745" />
    <path d="M 2259.5 1929  A 3.5 3.5 0 0 1 2263 1925.5 L 2434 1925.5  A 3.5 3.5 0 0 1 2437.5 1929 L 2437.5 1948  A 3.5 3.5 0 0 1 2434 1951.5 L 2263 1951.5  A 3.5 3.5 0 0 1 2259.5 1948 L 2259.5 1929  Z " stroke-width="1" stroke-dasharray="9,4" stroke="#ff3399" fill="none" stroke-dashoffset="0.5" />
  </g>
</svg>