<?xml version="1.0" encoding="utf-8"?>
<svg version="1.1" xmlns:xlink="http://www.w3.org/1999/xlink" width="151px" height="13px" xmlns="http://www.w3.org/2000/svg">
  <g transform="matrix(1 0 0 1 -2259 -1854 )">
    <path d="M 2260 1858  A 3 3 0 0 1 2263 1855 L 2406 1855  A 3 3 0 0 1 2409 1858 L 2409 1863  A 3 3 0 0 1 2406 1866 L 2263 1866  A 3 3 0 0 1 2260 1863 L 2260 1858  Z " fill-rule="nonzero" fill="#ff3399" stroke="none" fill-opacity="0.0980392156862745" />
    <path d="M 2259.5 1858  A 3.5 3.5 0 0 1 2263 1854.5 L 2406 1854.5  A 3.5 3.5 0 0 1 2409.5 1858 L 2409.5 1863  A 3.5 3.5 0 0 1 2406 1866.5 L 2263 1866.5  A 3.5 3.5 0 0 1 2259.5 1863 L 2259.5 1858  Z " stroke-width="1" stroke-dasharray="9,4" stroke="#ff3399" fill="none" stroke-dashoffset="0.5" />
  </g>
</svg>