<?xml version="1.0" encoding="utf-8"?>
<svg version="1.1" xmlns:xlink="http://www.w3.org/1999/xlink" width="18px" height="18px" preserveAspectRatio="xMinYMid meet" viewBox="2476 1962  18 16" xmlns="http://www.w3.org/2000/svg">
  <path d="M 2485.5 1972  L 2485.5 1965  A 5 5 0 0 1 2490.5 1960.5 L 3188 1960.5  A 5 5 0 0 1 3193.5 1965.5 L 3193.5 2138  A 5 5 0 0 0 3198.5 2143.5 L 3418 2143.5  " stroke-width="1" stroke="#ff3399" fill="none" />
  <path d="M 2485.5 1967  A 3 3 0 0 0 2482.5 1970 A 3 3 0 0 0 2485.5 1973 A 3 3 0 0 0 2488.5 1970 A 3 3 0 0 0 2485.5 1967 Z " fill-rule="nonzero" fill="#ff3399" stroke="none" />
</svg>