<?xml version="1.0" encoding="utf-8"?>
<svg version="1.1" xmlns:xlink="http://www.w3.org/1999/xlink" width="691px" height="89px" xmlns="http://www.w3.org/2000/svg">
  <g transform="matrix(1 0 0 1 -2268 -1986 )">
    <path d="M 2269 1990  A 3 3 0 0 1 2272 1987 L 2955 1987  A 3 3 0 0 1 2958 1990 L 2958 2071  A 3 3 0 0 1 2955 2074 L 2272 2074  A 3 3 0 0 1 2269 2071 L 2269 1990  Z " fill-rule="nonzero" fill="#ff3399" stroke="none" fill-opacity="0.0980392156862745" />
    <path d="M 2268.5 1990  A 3.5 3.5 0 0 1 2272 1986.5 L 2955 1986.5  A 3.5 3.5 0 0 1 2958.5 1990 L 2958.5 2071  A 3.5 3.5 0 0 1 2955 2074.5 L 2272 2074.5  A 3.5 3.5 0 0 1 2268.5 2071 L 2268.5 1990  Z " stroke-width="1" stroke-dasharray="9,4" stroke="#ff3399" fill="none" stroke-dashoffset="0.5" />
  </g>
</svg>