<?xml version="1.0" encoding="utf-8"?>
<svg version="1.1" xmlns:xlink="http://www.w3.org/1999/xlink" width="179px" height="44px" xmlns="http://www.w3.org/2000/svg">
  <g transform="matrix(1 0 0 1 -2259 -1874 )">
    <path d="M 2260 1878  A 3 3 0 0 1 2263 1875 L 2434 1875  A 3 3 0 0 1 2437 1878 L 2437 1914  A 3 3 0 0 1 2434 1917 L 2263 1917  A 3 3 0 0 1 2260 1914 L 2260 1878  Z " fill-rule="nonzero" fill="#ff3399" stroke="none" fill-opacity="0.0980392156862745" />
    <path d="M 2259.5 1878  A 3.5 3.5 0 0 1 2263 1874.5 L 2434 1874.5  A 3.5 3.5 0 0 1 2437.5 1878 L 2437.5 1914  A 3.5 3.5 0 0 1 2434 1917.5 L 2263 1917.5  A 3.5 3.5 0 0 1 2259.5 1914 L 2259.5 1878  Z " stroke-width="1" stroke-dasharray="9,4" stroke="#ff3399" fill="none" stroke-dashoffset="0.5" />
  </g>
</svg>