<?xml version="1.0" encoding="utf-8"?>
<svg version="1.1" xmlns:xlink="http://www.w3.org/1999/xlink" width="109px" height="67px" xmlns="http://www.w3.org/2000/svg">
  <g transform="matrix(1 0 0 1 -3043 -1869 )">
    <path d="M 3044 1873  A 3 3 0 0 1 3047 1870 L 3148 1870  A 3 3 0 0 1 3151 1873 L 3151 1932  A 3 3 0 0 1 3148 1935 L 3047 1935  A 3 3 0 0 1 3044 1932 L 3044 1873  Z " fill-rule="nonzero" fill="#ff3399" stroke="none" fill-opacity="0.0980392156862745" />
    <path d="M 3043.5 1873  A 3.5 3.5 0 0 1 3047 1869.5 L 3148 1869.5  A 3.5 3.5 0 0 1 3151.5 1873 L 3151.5 1932  A 3.5 3.5 0 0 1 3148 1935.5 L 3047 1935.5  A 3.5 3.5 0 0 1 3043.5 1932 L 3043.5 1873  Z " stroke-width="1" stroke-dasharray="9,4" stroke="#ff3399" fill="none" stroke-dashoffset="0.5" />
  </g>
</svg>