<?xml version="1.0" encoding="utf-8"?>
<svg version="1.1" xmlns:xlink="http://www.w3.org/1999/xlink" width="564px" height="24px" xmlns="http://www.w3.org/2000/svg">
  <g transform="matrix(1 0 0 1 -2462 -1927 )">
    <path d="M 2463 1931  A 3 3 0 0 1 2466 1928 L 3022 1928  A 3 3 0 0 1 3025 1931 L 3025 1947  A 3 3 0 0 1 3022 1950 L 2466 1950  A 3 3 0 0 1 2463 1947 L 2463 1931  Z " fill-rule="nonzero" fill="#ff3399" stroke="none" fill-opacity="0.0980392156862745" />
    <path d="M 2462.5 1931  A 3.5 3.5 0 0 1 2466 1927.5 L 3022 1927.5  A 3.5 3.5 0 0 1 3025.5 1931 L 3025.5 1947  A 3.5 3.5 0 0 1 3022 1950.5 L 2466 1950.5  A 3.5 3.5 0 0 1 2462.5 1947 L 2462.5 1931  Z " stroke-width="1" stroke-dasharray="9,4" stroke="#ff3399" fill="none" stroke-dashoffset="0.5" />
  </g>
</svg>