<?xml version="1.0" encoding="utf-8"?>
<svg version="1.1" xmlns:xlink="http://www.w3.org/1999/xlink" width="613px" height="57px" xmlns="http://www.w3.org/2000/svg">
  <g transform="matrix(1 0 0 1 -2476 -1715 )">
    <path d="M 2477 1719  A 3 3 0 0 1 2480 1716 L 3085 1716  A 3 3 0 0 1 3088 1719 L 3088 1768  A 3 3 0 0 1 3085 1771 L 2480 1771  A 3 3 0 0 1 2477 1768 L 2477 1719  Z " fill-rule="nonzero" fill="#ff3399" stroke="none" fill-opacity="0.0980392156862745" />
    <path d="M 2476.5 1719  A 3.5 3.5 0 0 1 2480 1715.5 L 3085 1715.5  A 3.5 3.5 0 0 1 3088.5 1719 L 3088.5 1768  A 3.5 3.5 0 0 1 3085 1771.5 L 2480 1771.5  A 3.5 3.5 0 0 1 2476.5 1768 L 2476.5 1719  Z " stroke-width="1" stroke-dasharray="9,4" stroke="#ff3399" fill="none" stroke-dashoffset="0.5" />
  </g>
</svg>