<?xml version="1.0" encoding="utf-8"?>
<svg version="1.1" xmlns:xlink="http://www.w3.org/1999/xlink" width="916px" height="138px" xmlns="http://www.w3.org/2000/svg">
  <g transform="matrix(1 0 0 1 -2462 -1782 )">
    <path d="M 2463 1786  A 3 3 0 0 1 2466 1783 L 3374 1783  A 3 3 0 0 1 3377 1786 L 3377 1916  A 3 3 0 0 1 3374 1919 L 2466 1919  A 3 3 0 0 1 2463 1916 L 2463 1786  Z " fill-rule="nonzero" fill="#ff3399" stroke="none" fill-opacity="0.0980392156862745" />
    <path d="M 2462.5 1786  A 3.5 3.5 0 0 1 2466 1782.5 L 3374 1782.5  A 3.5 3.5 0 0 1 3377.5 1786 L 3377.5 1916  A 3.5 3.5 0 0 1 3374 1919.5 L 2466 1919.5  A 3.5 3.5 0 0 1 2462.5 1916 L 2462.5 1786  Z " stroke-width="1" stroke-dasharray="9,4" stroke="#ff3399" fill="none" stroke-dashoffset="0.5" />
  </g>
</svg>