<?xml version="1.0" encoding="utf-8"?>
<svg version="1.1" xmlns:xlink="http://www.w3.org/1999/xlink" width="18px" height="18px" preserveAspectRatio="xMinYMid meet" viewBox="3230 1817  18 16" xmlns="http://www.w3.org/2000/svg">
  <path d="M 3239.5 1823  L 3239.5 1853  A 3 3 0 0 1 3242.5 1856 A 3 3 0 0 1 3239.5 1859 L 3239.5 2927  A 3 3 0 0 1 3242.5 2930 A 3 3 0 0 1 3239.5 2933 L 3239.5 3010  A 5 5 0 0 0 3244.5 3015.5 L 3610 3015.5  " stroke-width="1" stroke="#ff3399" fill="none" />
  <path d="M 3239.5 1822  A 3 3 0 0 0 3236.5 1825 A 3 3 0 0 0 3239.5 1828 A 3 3 0 0 0 3242.5 1825 A 3 3 0 0 0 3239.5 1822 Z " fill-rule="nonzero" fill="#ff3399" stroke="none" />
</svg>