<?xml version="1.0" encoding="utf-8"?>
<svg version="1.1" xmlns:xlink="http://www.w3.org/1999/xlink" width="480px" height="32px" xmlns="http://www.w3.org/2000/svg">
  <g transform="matrix(1 0 0 1 -1401 -510 )">
    <path d="M 1402 514  A 3 3 0 0 1 1405 511 L 1877 511  A 3 3 0 0 1 1880 514 L 1880 538  A 3 3 0 0 1 1877 541 L 1405 541  A 3 3 0 0 1 1402 538 L 1402 514  Z " fill-rule="nonzero" fill="#1879f7" stroke="none" />
    <path d="M 1401.5 514  A 3.5 3.5 0 0 1 1405 510.5 L 1877 510.5  A 3.5 3.5 0 0 1 1880.5 514 L 1880.5 538  A 3.5 3.5 0 0 1 1877 541.5 L 1405 541.5  A 3.5 3.5 0 0 1 1401.5 538 L 1401.5 514  Z " stroke-width="1" stroke-dasharray="9,4" stroke="#d9d9d9" fill="none" stroke-dashoffset="0.5" />
  </g>
</svg>