<?xml version="1.0" encoding="utf-8"?>
<svg version="1.1" xmlns:xlink="http://www.w3.org/1999/xlink" width="10px" height="43px" preserveAspectRatio="xMidYMin meet" viewBox="2406 1715  8 43" xmlns="http://www.w3.org/2000/svg">
  <path d="M 1833.5 1738  L 1833.5 1725  A 5 5 0 0 1 1838 1720.5 L 1919 1720.5  A 3 3 0 0 1 1922 1717.5 A 3 3 0 0 1 1925 1720.5 L 2405 1720.5  A 5 5 0 0 1 2410.5 1725.5 L 2410.5 1748  A 5 5 0 0 0 2415.5 1753.5 L 2420 1753.5  " stroke-width="1" stroke="#ff3399" fill="none" />
  <path d="M 1833.5 1733  A 3 3 0 0 0 1830.5 1736 A 3 3 0 0 0 1833.5 1739 A 3 3 0 0 0 1836.5 1736 A 3 3 0 0 0 1833.5 1733 Z " fill-rule="nonzero" fill="#ff3399" stroke="none" />
</svg>