<?xml version="1.0" encoding="utf-8"?>
<svg version="1.1" xmlns:xlink="http://www.w3.org/1999/xlink" width="243px" height="35px" xmlns="http://www.w3.org/2000/svg">
  <g transform="matrix(1 0 0 1 -1717 -1896 )">
    <path d="M 1718 1900  A 3 3 0 0 1 1721 1897 L 1956 1897  A 3 3 0 0 1 1959 1900 L 1959 1927  A 3 3 0 0 1 1956 1930 L 1721 1930  A 3 3 0 0 1 1718 1927 L 1718 1900  Z " fill-rule="nonzero" fill="#ff3399" stroke="none" fill-opacity="0.0980392156862745" />
    <path d="M 1717.5 1900  A 3.5 3.5 0 0 1 1721 1896.5 L 1956 1896.5  A 3.5 3.5 0 0 1 1959.5 1900 L 1959.5 1927  A 3.5 3.5 0 0 1 1956 1930.5 L 1721 1930.5  A 3.5 3.5 0 0 1 1717.5 1927 L 1717.5 1900  Z " stroke-width="1" stroke-dasharray="9,4" stroke="#ff3399" fill="none" stroke-dashoffset="0.5" />
  </g>
</svg>