<?xml version="1.0" encoding="utf-8"?>
<svg version="1.1" xmlns:xlink="http://www.w3.org/1999/xlink" width="18px" height="18px" preserveAspectRatio="xMinYMid meet" viewBox="1720 1863  18 16" xmlns="http://www.w3.org/2000/svg">
  <path d="M 1729.5 1873  L 1729.5 1394  A 5 5 0 0 1 1734 1389.5 L 1754 1389.5  A 3 3 0 0 1 1757 1386.5 A 3 3 0 0 1 1760 1389.5 L 2416 1389.5  " stroke-width="1" stroke="#ff3399" fill="none" />
  <path d="M 1729.5 1868  A 3 3 0 0 0 1726.5 1871 A 3 3 0 0 0 1729.5 1874 A 3 3 0 0 0 1732.5 1871 A 3 3 0 0 0 1729.5 1868 Z " fill-rule="nonzero" fill="#ff3399" stroke="none" />
</svg>