<?xml version="1.0" encoding="utf-8"?>
<svg version="1.1" xmlns:xlink="http://www.w3.org/1999/xlink" width="253px" height="296px" xmlns="http://www.w3.org/2000/svg">
  <g transform="matrix(1 0 0 1 -2020 -1778 )">
    <path d="M 2021 1782  A 3 3 0 0 1 2024 1779 L 2269 1779  A 3 3 0 0 1 2272 1782 L 2272 2070  A 3 3 0 0 1 2269 2073 L 2024 2073  A 3 3 0 0 1 2021 2070 L 2021 1782  Z " fill-rule="nonzero" fill="#ff3399" stroke="none" fill-opacity="0.0980392156862745" />
    <path d="M 2020.5 1782  A 3.5 3.5 0 0 1 2024 1778.5 L 2269 1778.5  A 3.5 3.5 0 0 1 2272.5 1782 L 2272.5 2070  A 3.5 3.5 0 0 1 2269 2073.5 L 2024 2073.5  A 3.5 3.5 0 0 1 2020.5 2070 L 2020.5 1782  Z " stroke-width="1" stroke-dasharray="9,4" stroke="#ff3399" fill="none" stroke-dashoffset="0.5" />
  </g>
</svg>