<?xml version="1.0" encoding="utf-8"?>
<svg version="1.1" xmlns:xlink="http://www.w3.org/1999/xlink" width="21px" height="10px" preserveAspectRatio="xMinYMid meet" viewBox="2395 1968  21 8" xmlns="http://www.w3.org/2000/svg">
  <path d="M 2236.5 1754  L 2236.5 1745  A 5 5 0 0 1 2241.5 1740.5 L 2395 1740.5  A 5 5 0 0 1 2400.5 1745.5 L 2400.5 1967  A 5 5 0 0 0 2405.5 1972.5 L 2416 1972.5  " stroke-width="1" stroke="#ff3399" fill="none" />
  <path d="M 2236.5 1749  A 3 3 0 0 0 2233.5 1752 A 3 3 0 0 0 2236.5 1755 A 3 3 0 0 0 2239.5 1752 A 3 3 0 0 0 2236.5 1749 Z " fill-rule="nonzero" fill="#ff3399" stroke="none" />
</svg>