<?xml version="1.0" encoding="utf-8"?>
<svg version="1.1" xmlns:xlink="http://www.w3.org/1999/xlink" width="126px" height="35px" xmlns="http://www.w3.org/2000/svg">
  <g transform="matrix(1 0 0 1 -1929 -2151 )">
    <path d="M 1930 2155  A 3 3 0 0 1 1933 2152 L 2051 2152  A 3 3 0 0 1 2054 2155 L 2054 2182  A 3 3 0 0 1 2051 2185 L 1933 2185  A 3 3 0 0 1 1930 2182 L 1930 2155  Z " fill-rule="nonzero" fill="#ff3399" stroke="none" fill-opacity="0.0980392156862745" />
    <path d="M 1929.5 2155  A 3.5 3.5 0 0 1 1933 2151.5 L 2051 2151.5  A 3.5 3.5 0 0 1 2054.5 2155 L 2054.5 2182  A 3.5 3.5 0 0 1 2051 2185.5 L 1933 2185.5  A 3.5 3.5 0 0 1 1929.5 2182 L 1929.5 2155  Z " stroke-width="1" stroke-dasharray="9,4" stroke="#ff3399" fill="none" stroke-dashoffset="0.5" />
  </g>
</svg>