<?xml version="1.0" encoding="utf-8"?>
<svg version="1.1" xmlns:xlink="http://www.w3.org/1999/xlink" width="32px" height="32px" xmlns="http://www.w3.org/2000/svg">
  <g transform="matrix(1 0 0 1 -388 -505 )">
    <path d="M 389 509  A 3 3 0 0 1 392 506 L 416 506  A 3 3 0 0 1 419 509 L 419 533  A 3 3 0 0 1 416 536 L 392 536  A 3 3 0 0 1 389 533 L 389 509  Z " fill-rule="nonzero" fill="#f6f6f6" stroke="none" />
    <path d="M 388.5 509  A 3.5 3.5 0 0 1 392 505.5 L 416 505.5  A 3.5 3.5 0 0 1 419.5 509 L 419.5 533  A 3.5 3.5 0 0 1 416 536.5 L 392 536.5  A 3.5 3.5 0 0 1 388.5 533 L 388.5 509  Z " stroke-width="1" stroke="#000000" fill="none" stroke-opacity="0.0470588235294118" />
  </g>
</svg>