<?xml version="1.0" encoding="utf-8"?>
<svg version="1.1" xmlns:xlink="http://www.w3.org/1999/xlink" width="180px" height="10px" preserveAspectRatio="xMinYMid meet" viewBox="3010 1986  180 8" xmlns="http://www.w3.org/2000/svg">
  <path d="M 3189 1990.5  L 3020 1990.5  A 5 5 0 0 1 3015.5 1985.5 L 3015.5 1915  A 5 5 0 0 0 3010.5 1910.5 L 2078 1910.5  A 5 5 0 0 0 2073.5 1915.5 L 2073.5 2173  " stroke-width="1" stroke="#ff3399" fill="none" />
  <path d="M 3187 1987.5  A 3 3 0 0 0 3184 1990.5 A 3 3 0 0 0 3187 1993.5 A 3 3 0 0 0 3190 1990.5 A 3 3 0 0 0 3187 1987.5 Z " fill-rule="nonzero" fill="#ff3399" stroke="none" />
</svg>