<?xml version="1.0" encoding="utf-8"?>
<svg version="1.1" xmlns:xlink="http://www.w3.org/1999/xlink" width="690px" height="69px" xmlns="http://www.w3.org/2000/svg">
  <g transform="matrix(1 0 0 1 -2036 -1714 )">
    <path d="M 2037 1718  A 3 3 0 0 1 2040 1715 L 2722 1715  A 3 3 0 0 1 2725 1718 L 2725 1779  A 3 3 0 0 1 2722 1782 L 2040 1782  A 3 3 0 0 1 2037 1779 L 2037 1718  Z " fill-rule="nonzero" fill="#ff3399" stroke="none" fill-opacity="0.0980392156862745" />
    <path d="M 2036.5 1718  A 3.5 3.5 0 0 1 2040 1714.5 L 2722 1714.5  A 3.5 3.5 0 0 1 2725.5 1718 L 2725.5 1779  A 3.5 3.5 0 0 1 2722 1782.5 L 2040 1782.5  A 3.5 3.5 0 0 1 2036.5 1779 L 2036.5 1718  Z " stroke-width="1" stroke-dasharray="9,4" stroke="#ff3399" fill="none" stroke-dashoffset="0.5" />
  </g>
</svg>