<?xml version="1.0" encoding="utf-8"?>
<svg version="1.1" xmlns:xlink="http://www.w3.org/1999/xlink" width="166px" height="97px" xmlns="http://www.w3.org/2000/svg">
  <g transform="matrix(1 0 0 1 -2036 -2191 )">
    <path d="M 2037 2195  A 3 3 0 0 1 2040 2192 L 2198 2192  A 3 3 0 0 1 2201 2195 L 2201 2284  A 3 3 0 0 1 2198 2287 L 2040 2287  A 3 3 0 0 1 2037 2284 L 2037 2195  Z " fill-rule="nonzero" fill="#ff3399" stroke="none" fill-opacity="0.0980392156862745" />
    <path d="M 2036.5 2195  A 3.5 3.5 0 0 1 2040 2191.5 L 2198 2191.5  A 3.5 3.5 0 0 1 2201.5 2195 L 2201.5 2284  A 3.5 3.5 0 0 1 2198 2287.5 L 2040 2287.5  A 3.5 3.5 0 0 1 2036.5 2284 L 2036.5 2195  Z " stroke-width="1" stroke-dasharray="9,4" stroke="#ff3399" fill="none" stroke-dashoffset="0.5" />
  </g>
</svg>