<?xml version="1.0" encoding="utf-8"?>
<svg version="1.1" xmlns:xlink="http://www.w3.org/1999/xlink" width="10px" height="190px" preserveAspectRatio="xMidYMin meet" viewBox="2186 1854  8 190" xmlns="http://www.w3.org/2000/svg">
  <path d="M 2190.5 2043  L 2190.5 1913  A 3 3 0 0 0 2193.5 1910 A 3 3 0 0 0 2190.5 1907 L 2190.5 1864  A 5 5 0 0 1 2195.5 1859.5 L 3188 1859.5  " stroke-width="1" stroke="#ff3399" fill="none" />
  <path d="M 2190.5 2038  A 3 3 0 0 0 2187.5 2041 A 3 3 0 0 0 2190.5 2044 A 3 3 0 0 0 2193.5 2041 A 3 3 0 0 0 2190.5 2038 Z " fill-rule="nonzero" fill="#ff3399" stroke="none" />
</svg>