<?xml version="1.0" encoding="utf-8"?>
<svg version="1.1" xmlns:xlink="http://www.w3.org/1999/xlink" width="10px" height="486px" preserveAspectRatio="xMidYMin meet" viewBox="2301 2256  8 486" xmlns="http://www.w3.org/2000/svg">
  <path d="M 2305.5 2257  L 2305.5 2565  A 3 3 0 0 1 2308.5 2568 A 3 3 0 0 1 2305.5 2571 L 2305.5 2732  A 5 5 0 0 0 2310.5 2737.5 L 3196 2737.5  " stroke-width="1" stroke="#ff3399" fill="none" />
  <path d="M 2305.5 2256  A 3 3 0 0 0 2302.5 2259 A 3 3 0 0 0 2305.5 2262 A 3 3 0 0 0 2308.5 2259 A 3 3 0 0 0 2305.5 2256 Z " fill-rule="nonzero" fill="#ff3399" stroke="none" />
</svg>