<?xml version="1.0" encoding="utf-8"?>
<svg version="1.1" xmlns:xlink="http://www.w3.org/1999/xlink" width="10px" height="451px" preserveAspectRatio="xMidYMin meet" viewBox="1988 2122  8 451" xmlns="http://www.w3.org/2000/svg">
  <path d="M 2198 2127.5  L 2076 2127.5  A 3 3 0 0 0 2073 2124.5 A 3 3 0 0 0 2070 2127.5 L 1997 2127.5  A 5 5 0 0 0 1992.5 2132.5 L 1992.5 2563  A 5 5 0 0 0 1997.5 2568.5 L 3194 2568.5  " stroke-width="1" stroke="#ff3399" fill="none" />
  <path d="M 2196 2124.5  A 3 3 0 0 0 2193 2127.5 A 3 3 0 0 0 2196 2130.5 A 3 3 0 0 0 2199 2127.5 A 3 3 0 0 0 2196 2124.5 Z " fill-rule="nonzero" fill="#ff3399" stroke="none" />
</svg>