<?xml version="1.0" encoding="utf-8"?>
<svg version="1.1" xmlns:xlink="http://www.w3.org/1999/xlink" width="127px" height="26px" xmlns="http://www.w3.org/2000/svg">
  <g transform="matrix(1 0 0 1 -2036 -1784 )">
    <path d="M 2037 1788  A 3 3 0 0 1 2040 1785 L 2159 1785  A 3 3 0 0 1 2162 1788 L 2162 1806  A 3 3 0 0 1 2159 1809 L 2040 1809  A 3 3 0 0 1 2037 1806 L 2037 1788  Z " fill-rule="nonzero" fill="#ff3399" stroke="none" fill-opacity="0.0980392156862745" />
    <path d="M 2036.5 1788  A 3.5 3.5 0 0 1 2040 1784.5 L 2159 1784.5  A 3.5 3.5 0 0 1 2162.5 1788 L 2162.5 1806  A 3.5 3.5 0 0 1 2159 1809.5 L 2040 1809.5  A 3.5 3.5 0 0 1 2036.5 1806 L 2036.5 1788  Z " stroke-width="1" stroke-dasharray="9,4" stroke="#ff3399" fill="none" stroke-dashoffset="0.5" />
  </g>
</svg>