<?xml version="1.0" encoding="utf-8"?>
<svg version="1.1" xmlns:xlink="http://www.w3.org/1999/xlink" width="627px" height="37px" xmlns="http://www.w3.org/2000/svg">
  <g transform="matrix(1 0 0 1 -1867 -1741 )">
    <path d="M 1868 1745  A 3 3 0 0 1 1871 1742 L 2490 1742  A 3 3 0 0 1 2493 1745 L 2493 1774  A 3 3 0 0 1 2490 1777 L 1871 1777  A 3 3 0 0 1 1868 1774 L 1868 1745  Z " fill-rule="nonzero" fill="#ff3399" stroke="none" fill-opacity="0.0980392156862745" />
    <path d="M 1867.5 1745  A 3.5 3.5 0 0 1 1871 1741.5 L 2490 1741.5  A 3.5 3.5 0 0 1 2493.5 1745 L 2493.5 1774  A 3.5 3.5 0 0 1 2490 1777.5 L 1871 1777.5  A 3.5 3.5 0 0 1 1867.5 1774 L 1867.5 1745  Z " stroke-width="1" stroke-dasharray="9,4" stroke="#ff3399" fill="none" stroke-dashoffset="0.5" />
  </g>
</svg>