<?xml version="1.0" encoding="utf-8"?>
<svg version="1.1" xmlns:xlink="http://www.w3.org/1999/xlink" width="18px" height="18px" preserveAspectRatio="xMinYMid meet" viewBox="2209 1933  18 16" xmlns="http://www.w3.org/2000/svg">
  <path d="M 2218.5 1943  L 2218.5 1938  A 5 5 0 0 1 2223.5 1933.5 L 2709 1933.5  A 5 5 0 0 0 2714.5 1928.5 L 2714.5 1852  A 5 5 0 0 1 2719.5 1847.5 L 2724 1847.5  " stroke-width="1" stroke="#ff3399" fill="none" />
  <path d="M 2218.5 1938  A 3 3 0 0 0 2215.5 1941 A 3 3 0 0 0 2218.5 1944 A 3 3 0 0 0 2221.5 1941 A 3 3 0 0 0 2218.5 1938 Z " fill-rule="nonzero" fill="#ff3399" stroke="none" />
</svg>