<?xml version="1.0" encoding="utf-8"?>
<svg version="1.1" xmlns:xlink="http://www.w3.org/1999/xlink" width="509px" height="10px" preserveAspectRatio="xMinYMid meet" viewBox="2213 1625  509 8" xmlns="http://www.w3.org/2000/svg">
  <path d="M 2218.5 1888  L 2218.5 1634  A 5 5 0 0 1 2223 1629.5 L 2440 1629.5  A 3 3 0 0 1 2443 1626.5 A 3 3 0 0 1 2446 1629.5 L 2722 1629.5  " stroke-width="1" stroke="#ff3399" fill="none" />
  <path d="M 2218.5 1883  A 3 3 0 0 0 2215.5 1886 A 3 3 0 0 0 2218.5 1889 A 3 3 0 0 0 2221.5 1886 A 3 3 0 0 0 2218.5 1883 Z " fill-rule="nonzero" fill="#ff3399" stroke="none" />
</svg>