<?xml version="1.0" encoding="utf-8"?>
<svg version="1.1" xmlns:xlink="http://www.w3.org/1999/xlink" width="131px" height="10px" preserveAspectRatio="xMinYMid meet" viewBox="2599 2261  131 8" xmlns="http://www.w3.org/2000/svg">
  <path d="M 2290.5 2098  L 2290.5 2085  A 5 5 0 0 1 2295.5 2080.5 L 2599 2080.5  A 5 5 0 0 1 2604.5 2085.5 L 2604.5 2260  A 5 5 0 0 0 2609.5 2265.5 L 2730 2265.5  " stroke-width="1" stroke="#ff3399" fill="none" />
  <path d="M 2290.5 2093  A 3 3 0 0 0 2287.5 2096 A 3 3 0 0 0 2290.5 2099 A 3 3 0 0 0 2293.5 2096 A 3 3 0 0 0 2290.5 2093 Z " fill-rule="nonzero" fill="#ff3399" stroke="none" />
</svg>