<?xml version="1.0" encoding="utf-8"?>
<svg version="1.1" xmlns:xlink="http://www.w3.org/1999/xlink" width="259px" height="134px" xmlns="http://www.w3.org/2000/svg">
  <g transform="matrix(1 0 0 1 -2443 -1815 )">
    <path d="M 2444 1819  A 3 3 0 0 1 2447 1816 L 2698 1816  A 3 3 0 0 1 2701 1819 L 2701 1945  A 3 3 0 0 1 2698 1948 L 2447 1948  A 3 3 0 0 1 2444 1945 L 2444 1819  Z " fill-rule="nonzero" fill="#ff3399" stroke="none" fill-opacity="0.0980392156862745" />
    <path d="M 2443.5 1819  A 3.5 3.5 0 0 1 2447 1815.5 L 2698 1815.5  A 3.5 3.5 0 0 1 2701.5 1819 L 2701.5 1945  A 3.5 3.5 0 0 1 2698 1948.5 L 2447 1948.5  A 3.5 3.5 0 0 1 2443.5 1945 L 2443.5 1819  Z " stroke-width="1" stroke-dasharray="9,4" stroke="#ff3399" fill="none" stroke-dashoffset="0.5" />
  </g>
</svg>