<?xml version="1.0" encoding="utf-8"?>
<svg version="1.1" xmlns:xlink="http://www.w3.org/1999/xlink" width="259px" height="139px" xmlns="http://www.w3.org/2000/svg">
  <g transform="matrix(1 0 0 1 -2145 -2265 )">
    <path d="M 2146 2269  A 3 3 0 0 1 2149 2266 L 2400 2266  A 3 3 0 0 1 2403 2269 L 2403 2400  A 3 3 0 0 1 2400 2403 L 2149 2403  A 3 3 0 0 1 2146 2400 L 2146 2269  Z " fill-rule="nonzero" fill="#ff3399" stroke="none" fill-opacity="0.0980392156862745" />
    <path d="M 2145.5 2269  A 3.5 3.5 0 0 1 2149 2265.5 L 2400 2265.5  A 3.5 3.5 0 0 1 2403.5 2269 L 2403.5 2400  A 3.5 3.5 0 0 1 2400 2403.5 L 2149 2403.5  A 3.5 3.5 0 0 1 2145.5 2400 L 2145.5 2269  Z " stroke-width="1" stroke-dasharray="9,4" stroke="#ff3399" fill="none" stroke-dashoffset="0.5" />
  </g>
</svg>