<?xml version="1.0" encoding="utf-8"?>
<svg version="1.1" xmlns:xlink="http://www.w3.org/1999/xlink" width="10px" height="1645px" preserveAspectRatio="xMidYMin meet" viewBox="2615 1823  8 1645" xmlns="http://www.w3.org/2000/svg">
  <path d="M 2619.5 1824  L 2619.5 1959  A 3 3 0 0 1 2622.5 1962 A 3 3 0 0 1 2619.5 1965 L 2619.5 1997  A 3 3 0 0 1 2622.5 2000 A 3 3 0 0 1 2619.5 2003 L 2619.5 2006  A 3 3 0 0 1 2622.5 2009 A 3 3 0 0 1 2619.5 2012 L 2619.5 2030  A 3 3 0 0 1 2622.5 2033 A 3 3 0 0 1 2619.5 2036 L 2619.5 2188  A 3 3 0 0 1 2622.5 2191 A 3 3 0 0 1 2619.5 2194 L 2619.5 2305  A 3 3 0 0 1 2622.5 2308 A 3 3 0 0 1 2619.5 2311 L 2619.5 2866  A 3 3 0 0 1 2622.5 2869 A 3 3 0 0 1 2619.5 2872 L 2619.5 2985  A 3 3 0 0 1 2622.5 2988 A 3 3 0 0 1 2619.5 2991 L 2619.5 3111  A 3 3 0 0 1 2622.5 3114 A 3 3 0 0 1 2619.5 3117 L 2619.5 3275  A 3 3 0 0 1 2622.5 3278 A 3 3 0 0 1 2619.5 3281 L 2619.5 3458  A 5 5 0 0 0 2624.5 3463.5 L 2956 3463.5  " stroke-width="1" stroke="#ff3399" fill="none" />
  <path d="M 2619.5 1823  A 3 3 0 0 0 2616.5 1826 A 3 3 0 0 0 2619.5 1829 A 3 3 0 0 0 2622.5 1826 A 3 3 0 0 0 2619.5 1823 Z " fill-rule="nonzero" fill="#ff3399" stroke="none" />
</svg>