<?xml version="1.0" encoding="utf-8"?>
<svg version="1.1" xmlns:xlink="http://www.w3.org/1999/xlink" width="24px" height="24px" xmlns="http://www.w3.org/2000/svg">
  <g transform="matrix(1 0 0 1 -3149 -1853 )">
    <path d="M 3150 1857  A 3 3 0 0 1 3153 1854 L 3169 1854  A 3 3 0 0 1 3172 1857 L 3172 1873  A 3 3 0 0 1 3169 1876 L 3153 1876  A 3 3 0 0 1 3150 1873 L 3150 1857  Z " fill-rule="nonzero" fill="#f6f6f6" stroke="none" />
    <path d="M 3149.5 1857  A 3.5 3.5 0 0 1 3153 1853.5 L 3169 1853.5  A 3.5 3.5 0 0 1 3172.5 1857 L 3172.5 1873  A 3.5 3.5 0 0 1 3169 1876.5 L 3153 1876.5  A 3.5 3.5 0 0 1 3149.5 1873 L 3149.5 1857  Z " stroke-width="1" stroke="#000000" fill="none" stroke-opacity="0.0470588235294118" />
  </g>
</svg>