<?xml version="1.0" encoding="utf-8"?>
<svg version="1.1" xmlns:xlink="http://www.w3.org/1999/xlink" width="165px" height="10px" preserveAspectRatio="xMinYMid meet" viewBox="3445 2193  165 8" xmlns="http://www.w3.org/2000/svg">
  <path d="M 2802.5 1868  L 2802.5 1775  A 5 5 0 0 1 2807 1770.5 L 3252 1770.5  A 3 3 0 0 1 3255 1767.5 A 3 3 0 0 1 3258 1770.5 L 3445 1770.5  A 5 5 0 0 1 3450.5 1775 L 3450.5 1960  A 3 3 0 0 1 3453.5 1963 A 3 3 0 0 1 3450.5 1966 L 3450.5 2037  A 3 3 0 0 1 3453.5 2040 A 3 3 0 0 1 3450.5 2043 L 3450.5 2192  A 5 5 0 0 0 3455.5 2197.5 L 3610 2197.5  " stroke-width="1" stroke="#ff3399" fill="none" />
  <path d="M 2802.5 1863  A 3 3 0 0 0 2799.5 1866 A 3 3 0 0 0 2802.5 1869 A 3 3 0 0 0 2805.5 1866 A 3 3 0 0 0 2802.5 1863 Z " fill-rule="nonzero" fill="#ff3399" stroke="none" />
</svg>