<?xml version="1.0" encoding="utf-8"?>
<svg version="1.1" xmlns:xlink="http://www.w3.org/1999/xlink" width="354px" height="10px" preserveAspectRatio="xMinYMid meet" viewBox="3258 3472  354 8" xmlns="http://www.w3.org/2000/svg">
  <path d="M 3263.5 2378  L 3263.5 2967  A 3 3 0 0 1 3266.5 2970 A 3 3 0 0 1 3263.5 2973 L 3263.5 3471  A 5 5 0 0 0 3268.5 3476.5 L 3612 3476.5  " stroke-width="1" stroke="#ff3399" fill="none" />
  <path d="M 3263.5 2377  A 3 3 0 0 0 3260.5 2380 A 3 3 0 0 0 3263.5 2383 A 3 3 0 0 0 3266.5 2380 A 3 3 0 0 0 3263.5 2377 Z " fill-rule="nonzero" fill="#ff3399" stroke="none" />
</svg>