<?xml version="1.0" encoding="utf-8"?>
<svg version="1.1" xmlns:xlink="http://www.w3.org/1999/xlink" width="10px" height="1530px" preserveAspectRatio="xMidYMin meet" viewBox="3251 1738  8 1530" xmlns="http://www.w3.org/2000/svg">
  <path d="M 3255.5 1739  L 3255.5 1960  A 3 3 0 0 1 3258.5 1963 A 3 3 0 0 1 3255.5 1966 L 3255.5 2037  A 3 3 0 0 1 3258.5 2040 A 3 3 0 0 1 3255.5 2043 L 3255.5 2967  A 3 3 0 0 1 3258.5 2970 A 3 3 0 0 1 3255.5 2973 L 3255.5 3258  A 5 5 0 0 0 3260 3263.5 A 3 3 0 0 1 3263 3260.5 A 3 3 0 0 1 3266 3263.5 L 3612 3263.5  " stroke-width="1" stroke="#ff3399" fill="none" />
  <path d="M 3255.5 1738  A 3 3 0 0 0 3252.5 1741 A 3 3 0 0 0 3255.5 1744 A 3 3 0 0 0 3258.5 1741 A 3 3 0 0 0 3255.5 1738 Z " fill-rule="nonzero" fill="#ff3399" stroke="none" />
</svg>