<?xml version="1.0" encoding="utf-8"?>
<svg version="1.1" xmlns:xlink="http://www.w3.org/1999/xlink" width="1112px" height="10px" preserveAspectRatio="xMinYMid meet" viewBox="2436 2233  1112 8" xmlns="http://www.w3.org/2000/svg">
  <path d="M 2529 2040.5  L 2446 2040.5  A 5 5 0 0 0 2441.5 2045.5 L 2441.5 2232  A 5 5 0 0 0 2446 2237.5 L 2799 2237.5  A 3 3 0 0 1 2802 2234.5 A 3 3 0 0 1 2805 2237.5 L 3252 2237.5  A 3 3 0 0 1 3255 2234.5 A 3 3 0 0 1 3258 2237.5 L 3285 2237.5  A 3 3 0 0 1 3288 2234.5 A 3 3 0 0 1 3291 2237.5 L 3379 2237.5  A 3 3 0 0 1 3382 2234.5 A 3 3 0 0 1 3385 2237.5 L 3538 2237.5  A 5 5 0 0 0 3543.5 2232 L 3543.5 2200  A 3 3 0 0 0 3546.5 2197 A 3 3 0 0 0 3543.5 2194 L 3543.5 2082  A 3 3 0 0 0 3546.5 2079 A 3 3 0 0 0 3543.5 2076 L 3543.5 2043  A 3 3 0 0 0 3546.5 2040 A 3 3 0 0 0 3543.5 2037 L 3543.5 1966  A 3 3 0 0 0 3546.5 1963 A 3 3 0 0 0 3543.5 1960 A 4 4 0 0 1 3547.5 1956.5 L 3608 1956.5  " stroke-width="1" stroke="#ff3399" fill="none" />
  <path d="M 2527 2037.5  A 3 3 0 0 0 2524 2040.5 A 3 3 0 0 0 2527 2043.5 A 3 3 0 0 0 2530 2040.5 A 3 3 0 0 0 2527 2037.5 Z " fill-rule="nonzero" fill="#ff3399" stroke="none" />
</svg>