<?xml version="1.0" encoding="utf-8"?>
<svg version="1.1" xmlns:xlink="http://www.w3.org/1999/xlink" width="10px" height="1197px" preserveAspectRatio="xMidYMin meet" viewBox="3378 1880  8 1197" xmlns="http://www.w3.org/2000/svg">
  <path d="M 3073 1885.5  L 3252 1885.5  A 3 3 0 0 1 3255 1882.5 A 3 3 0 0 1 3258 1885.5 L 3377 1885.5  A 5 5 0 0 1 3382.5 1890 L 3382.5 1960  A 3 3 0 0 1 3385.5 1963 A 3 3 0 0 1 3382.5 1966 L 3382.5 2037  A 3 3 0 0 1 3385.5 2040 A 3 3 0 0 1 3382.5 2043 L 3382.5 2967  A 3 3 0 0 1 3385.5 2970 A 3 3 0 0 1 3382.5 2973 L 3382.5 3067  A 5 5 0 0 0 3387.5 3072.5 L 3610 3072.5  " stroke-width="1" stroke="#ff3399" fill="none" />
  <path d="M 3075 1882.5  A 3 3 0 0 0 3072 1885.5 A 3 3 0 0 0 3075 1888.5 A 3 3 0 0 0 3078 1885.5 A 3 3 0 0 0 3075 1882.5 Z " fill-rule="nonzero" fill="#ff3399" stroke="none" />
</svg>