<?xml version="1.0" encoding="utf-8"?>
<svg version="1.1" xmlns:xlink="http://www.w3.org/1999/xlink" width="329px" height="10px" preserveAspectRatio="xMinYMid meet" viewBox="3283 2440  329 8" xmlns="http://www.w3.org/2000/svg">
  <path d="M 2815 1963.5  L 3252 1963.5  A 3 3 0 0 1 3255 1960.5 A 3 3 0 0 1 3258 1963.5 L 3283 1963.5  A 5 5 0 0 1 3288.5 1968 L 3288.5 2037  A 3 3 0 0 1 3291.5 2040 A 3 3 0 0 1 3288.5 2043 L 3288.5 2439  A 5 5 0 0 0 3293 2444.5 L 3379 2444.5  A 3 3 0 0 1 3382 2441.5 A 3 3 0 0 1 3385 2444.5 L 3612 2444.5  " stroke-width="1" stroke="#ff3399" fill="none" />
  <path d="M 2817 1960.5  A 3 3 0 0 0 2814 1963.5 A 3 3 0 0 0 2817 1966.5 A 3 3 0 0 0 2820 1963.5 A 3 3 0 0 0 2817 1960.5 Z " fill-rule="nonzero" fill="#ff3399" stroke="none" />
</svg>