<?xml version="1.0" encoding="utf-8"?>
<svg version="1.1" xmlns:xlink="http://www.w3.org/1999/xlink" width="10px" height="131px" preserveAspectRatio="xMidYMin meet" viewBox="3488 2074  8 131" xmlns="http://www.w3.org/2000/svg">
  <path d="M 2542.5 2131  L 2542.5 2195  A 5 5 0 0 0 2547 2200.5 L 2799 2200.5  A 3 3 0 0 1 2802 2197.5 A 3 3 0 0 1 2805 2200.5 L 3252 2200.5  A 3 3 0 0 1 3255 2197.5 A 3 3 0 0 1 3258 2200.5 L 3285 2200.5  A 3 3 0 0 1 3288 2197.5 A 3 3 0 0 1 3291 2200.5 L 3379 2200.5  A 3 3 0 0 1 3382 2197.5 A 3 3 0 0 1 3385 2200.5 L 3487 2200.5  A 5 5 0 0 0 3492.5 2195.5 L 3492.5 2084  A 5 5 0 0 1 3497.5 2079.5 L 3608 2079.5  " stroke-width="1" stroke="#ff3399" fill="none" />
  <path d="M 2542.5 2130  A 3 3 0 0 0 2539.5 2133 A 3 3 0 0 0 2542.5 2136 A 3 3 0 0 0 2545.5 2133 A 3 3 0 0 0 2542.5 2130 Z " fill-rule="nonzero" fill="#ff3399" stroke="none" />
</svg>