<?xml version="1.0" encoding="utf-8"?>
<svg version="1.1" xmlns:xlink="http://www.w3.org/1999/xlink" width="206px" height="10px" preserveAspectRatio="xMinYMid meet" viewBox="3199 1746  206 8" xmlns="http://www.w3.org/2000/svg">
  <path d="M 3200 1750.5  L 3252 1750.5  A 3 3 0 0 1 3255 1747.5 A 3 3 0 0 1 3258 1750.5 L 3395 1750.5  A 5 5 0 0 1 3400.5 1755 L 3400.5 1767  A 3 3 0 0 1 3403.5 1770 A 3 3 0 0 1 3400.5 1773 L 3400.5 1960  A 3 3 0 0 1 3403.5 1963 A 3 3 0 0 1 3400.5 1966 L 3400.5 2037  A 3 3 0 0 1 3403.5 2040 A 3 3 0 0 1 3400.5 2043 L 3400.5 2197  A 3 3 0 0 1 3403.5 2200 A 3 3 0 0 1 3400.5 2203 L 3400.5 2234  A 3 3 0 0 1 3403.5 2237 A 3 3 0 0 1 3400.5 2240 L 3400.5 2441  A 3 3 0 0 1 3403.5 2444 A 3 3 0 0 1 3400.5 2447 L 3400.5 2967  A 3 3 0 0 1 3403.5 2970 A 3 3 0 0 1 3400.5 2973 L 3400.5 3069  A 3 3 0 0 1 3403.5 3072 A 3 3 0 0 1 3400.5 3075 L 3400.5 3260  A 3 3 0 0 1 3403.5 3263 A 3 3 0 0 1 3400.5 3266 L 3400.5 3473  A 3 3 0 0 1 3403.5 3476 A 3 3 0 0 1 3400.5 3479 L 3400.5 4128  A 3 3 0 0 1 3403.5 4131 A 3 3 0 0 1 3400.5 4134 L 3400.5 4266  A 5 5 0 0 0 3405.5 4271.5 L 3616 4271.5  " stroke-width="1" stroke="#ff3399" fill="none" />
  <path d="M 3202 1747.5  A 3 3 0 0 0 3199 1750.5 A 3 3 0 0 0 3202 1753.5 A 3 3 0 0 0 3205 1750.5 A 3 3 0 0 0 3202 1747.5 Z " fill-rule="nonzero" fill="#ff3399" stroke="none" />
</svg>