<?xml version="1.0" encoding="utf-8"?>
<svg version="1.1" xmlns:xlink="http://www.w3.org/1999/xlink" width="455px" height="10px" preserveAspectRatio="xMinYMid meet" viewBox="2700 1717  455 8" xmlns="http://www.w3.org/2000/svg">
  <path d="M 2701 1721.5  L 3145 1721.5  A 5 5 0 0 1 3150.5 1726 L 3150.5 1767  A 3 3 0 0 1 3153.5 1770 A 3 3 0 0 1 3150.5 1773 L 3150.5 1882  A 3 3 0 0 1 3153.5 1885 A 3 3 0 0 1 3150.5 1888 L 3150.5 1960  A 3 3 0 0 1 3153.5 1963 A 3 3 0 0 1 3150.5 1966 L 3150.5 2037  A 3 3 0 0 1 3153.5 2040 A 3 3 0 0 1 3150.5 2043 L 3150.5 2197  A 3 3 0 0 1 3153.5 2200 A 3 3 0 0 1 3150.5 2203 L 3150.5 2234  A 3 3 0 0 1 3153.5 2237 A 3 3 0 0 1 3150.5 2240 L 3150.5 2967  A 3 3 0 0 1 3153.5 2970 A 3 3 0 0 1 3150.5 2973 L 3150.5 4126  A 5 5 0 0 0 3155.5 4131.5 L 3614 4131.5  " stroke-width="1" stroke="#ff3399" fill="none" />
  <path d="M 2703 1718.5  A 3 3 0 0 0 2700 1721.5 A 3 3 0 0 0 2703 1724.5 A 3 3 0 0 0 2706 1721.5 A 3 3 0 0 0 2703 1718.5 Z " fill-rule="nonzero" fill="#ff3399" stroke="none" />
</svg>