<?xml version="1.0" encoding="utf-8"?>
<svg version="1.1" xmlns:xlink="http://www.w3.org/1999/xlink" width="437px" height="10px" preserveAspectRatio="xMinYMid meet" viewBox="205 1395  437 8" xmlns="http://www.w3.org/2000/svg">
  <path d="M 210.5 1557  L 210.5 1404  A 5 5 0 0 1 215 1399.5 L 504 1399.5  A 3 3 0 0 1 507 1396.5 A 3 3 0 0 1 510 1399.5 L 642 1399.5  " stroke-width="1" stroke="#ff3399" fill="none" />
  <path d="M 210.5 1552  A 3 3 0 0 0 207.5 1555 A 3 3 0 0 0 210.5 1558 A 3 3 0 0 0 213.5 1555 A 3 3 0 0 0 210.5 1552 Z " fill-rule="nonzero" fill="#ff3399" stroke="none" />
</svg>