<?xml version="1.0" encoding="utf-8"?>
<svg version="1.1" xmlns:xlink="http://www.w3.org/1999/xlink" width="18px" height="18px" preserveAspectRatio="xMinYMid meet" viewBox="562 1962  18 16" xmlns="http://www.w3.org/2000/svg">
  <path d="M 569 1970.5  L 595 1970.5  A 5 5 0 0 1 600.5 1975 L 600.5 2024  A 3 3 0 0 1 603.5 2027 A 3 3 0 0 1 600.5 2030 L 600.5 2203  A 5 5 0 0 0 605.5 2208.5 L 642 2208.5  " stroke-width="1" stroke="#ff3399" fill="none" />
  <path d="M 571 1967.5  A 3 3 0 0 0 568 1970.5 A 3 3 0 0 0 571 1973.5 A 3 3 0 0 0 574 1970.5 A 3 3 0 0 0 571 1967.5 Z " fill-rule="nonzero" fill="#ff3399" stroke="none" />
</svg>