<?xml version="1.0" encoding="utf-8"?>
<svg version="1.1" xmlns:xlink="http://www.w3.org/1999/xlink" width="137px" height="10px" preserveAspectRatio="xMinYMid meet" viewBox="505 2304  137 8" xmlns="http://www.w3.org/2000/svg">
  <path d="M 384 1810.5  L 505 1810.5  A 5 5 0 0 1 510.5 1815 L 510.5 2024  A 3 3 0 0 1 513.5 2027 A 3 3 0 0 1 510.5 2030 L 510.5 2303  A 5 5 0 0 0 515.5 2308.5 L 642 2308.5  " stroke-width="1" stroke="#ff3399" fill="none" />
  <path d="M 386 1807.5  A 3 3 0 0 0 383 1810.5 A 3 3 0 0 0 386 1813.5 A 3 3 0 0 0 389 1810.5 A 3 3 0 0 0 386 1807.5 Z " fill-rule="nonzero" fill="#ff3399" stroke="none" />
</svg>