<?xml version="1.0" encoding="utf-8"?>
<svg version="1.1" xmlns:xlink="http://www.w3.org/1999/xlink" width="10px" height="689px" preserveAspectRatio="xMidYMin meet" viewBox="456 1924  8 689" xmlns="http://www.w3.org/2000/svg">
  <path d="M 284 1929.5  L 455 1929.5  A 5 5 0 0 1 460.5 1934 L 460.5 2024  A 3 3 0 0 1 463.5 2027 A 3 3 0 0 1 460.5 2030 L 460.5 2603  A 5 5 0 0 0 465.5 2608.5 L 644 2608.5  " stroke-width="1" stroke="#ff3399" fill="none" />
  <path d="M 286 1926.5  A 3 3 0 0 0 283 1929.5 A 3 3 0 0 0 286 1932.5 A 3 3 0 0 0 289 1929.5 A 3 3 0 0 0 286 1926.5 Z " fill-rule="nonzero" fill="#ff3399" stroke="none" />
</svg>