<?xml version="1.0" encoding="utf-8"?>
<svg version="1.1" xmlns:xlink="http://www.w3.org/1999/xlink" width="18px" height="18px" preserveAspectRatio="xMinYMid meet" viewBox="377 1869  18 16" xmlns="http://www.w3.org/2000/svg">
  <path d="M 384 1877.5  L 505 1877.5  A 5 5 0 0 1 510.5 1882 L 510.5 2024  A 3 3 0 0 1 513.5 2027 A 3 3 0 0 1 510.5 2030 L 510.5 2476  A 5 5 0 0 0 515.5 2481.5 L 644 2481.5  " stroke-width="1" stroke="#ff3399" fill="none" />
  <path d="M 386 1874.5  A 3 3 0 0 0 383 1877.5 A 3 3 0 0 0 386 1880.5 A 3 3 0 0 0 389 1877.5 A 3 3 0 0 0 386 1874.5 Z " fill-rule="nonzero" fill="#ff3399" stroke="none" />
</svg>