<?xml version="1.0" encoding="utf-8"?>
<svg version="1.1" xmlns:xlink="http://www.w3.org/1999/xlink" width="10px" height="1183px" preserveAspectRatio="xMidYMin meet" viewBox="367 1982  8 1183" xmlns="http://www.w3.org/2000/svg">
  <path d="M 371.5 1983  L 371.5 2024  A 3 3 0 0 1 374.5 2027 A 3 3 0 0 1 371.5 2030 L 371.5 3155  A 5 5 0 0 0 376.5 3160.5 L 648 3160.5  " stroke-width="1" stroke="#ff3399" fill="none" />
  <path d="M 371.5 1982  A 3 3 0 0 0 368.5 1985 A 3 3 0 0 0 371.5 1988 A 3 3 0 0 0 374.5 1985 A 3 3 0 0 0 371.5 1982 Z " fill-rule="nonzero" fill="#ff3399" stroke="none" />
</svg>