<?xml version="1.0" encoding="utf-8"?>
<svg version="1.1" xmlns:xlink="http://www.w3.org/1999/xlink" width="680px" height="30px" xmlns="http://www.w3.org/2000/svg">
  <g transform="matrix(1 0 0 1 -2462 -2031 )">
    <path d="M 2463 2035  A 3 3 0 0 1 2466 2032 L 3138 2032  A 3 3 0 0 1 3141 2035 L 3141 2057  A 3 3 0 0 1 3138 2060 L 2466 2060  A 3 3 0 0 1 2463 2057 L 2463 2035  Z " fill-rule="nonzero" fill="#ff3399" stroke="none" fill-opacity="0.0980392156862745" />
    <path d="M 2462.5 2035  A 3.5 3.5 0 0 1 2466 2031.5 L 3138 2031.5  A 3.5 3.5 0 0 1 3141.5 2035 L 3141.5 2057  A 3.5 3.5 0 0 1 3138 2060.5 L 2466 2060.5  A 3.5 3.5 0 0 1 2462.5 2057 L 2462.5 2035  Z " stroke-width="1" stroke-dasharray="9,4" stroke="#ff3399" fill="none" stroke-dashoffset="0.5" />
  </g>
</svg>