<?xml version="1.0" encoding="utf-8"?>
<svg version="1.1" xmlns:xlink="http://www.w3.org/1999/xlink" width="45px" height="27px" xmlns="http://www.w3.org/2000/svg">
  <g transform="matrix(1 0 0 1 -3239 -1697 )">
    <path d="M 3240 1701  A 3 3 0 0 1 3243 1698 L 3280 1698  A 3 3 0 0 1 3283 1701 L 3283 1720  A 3 3 0 0 1 3280 1723 L 3243 1723  A 3 3 0 0 1 3240 1720 L 3240 1701  Z " fill-rule="nonzero" fill="#ff3399" stroke="none" fill-opacity="0.0980392156862745" />
    <path d="M 3239.5 1701  A 3.5 3.5 0 0 1 3243 1697.5 L 3280 1697.5  A 3.5 3.5 0 0 1 3283.5 1701 L 3283.5 1720  A 3.5 3.5 0 0 1 3280 1723.5 L 3243 1723.5  A 3.5 3.5 0 0 1 3239.5 1720 L 3239.5 1701  Z " stroke-width="1" stroke-dasharray="9,4" stroke="#ff3399" fill="none" stroke-dashoffset="0.5" />
  </g>
</svg>