<?xml version="1.0" encoding="utf-8"?>
<svg version="1.1" xmlns:xlink="http://www.w3.org/1999/xlink" width="288px" height="28px" xmlns="http://www.w3.org/2000/svg">
  <g transform="matrix(1 0 0 1 -1915 -1803 )">
    <path d="M 1916 1807  A 3 3 0 0 1 1919 1804 L 2199 1804  A 3 3 0 0 1 2202 1807 L 2202 1827  A 3 3 0 0 1 2199 1830 L 1919 1830  A 3 3 0 0 1 1916 1827 L 1916 1807  Z " fill-rule="nonzero" fill="#ff3399" stroke="none" fill-opacity="0.0980392156862745" />
    <path d="M 1915.5 1807  A 3.5 3.5 0 0 1 1919 1803.5 L 2199 1803.5  A 3.5 3.5 0 0 1 2202.5 1807 L 2202.5 1827  A 3.5 3.5 0 0 1 2199 1830.5 L 1919 1830.5  A 3.5 3.5 0 0 1 1915.5 1827 L 1915.5 1807  Z " stroke-width="1" stroke-dasharray="9,4" stroke="#ff3399" fill="none" stroke-dashoffset="0.5" />
  </g>
</svg>