<?xml version="1.0" encoding="utf-8"?>
<svg version="1.1" xmlns:xlink="http://www.w3.org/1999/xlink" width="259px" height="59px" xmlns="http://www.w3.org/2000/svg">
  <g transform="matrix(1 0 0 1 -1848 -2576 )">
    <path d="M 1849 2580  A 3 3 0 0 1 1852 2577 L 2103 2577  A 3 3 0 0 1 2106 2580 L 2106 2631  A 3 3 0 0 1 2103 2634 L 1852 2634  A 3 3 0 0 1 1849 2631 L 1849 2580  Z " fill-rule="nonzero" fill="#ff3399" stroke="none" fill-opacity="0.0980392156862745" />
    <path d="M 1848.5 2580  A 3.5 3.5 0 0 1 1852 2576.5 L 2103 2576.5  A 3.5 3.5 0 0 1 2106.5 2580 L 2106.5 2631  A 3.5 3.5 0 0 1 2103 2634.5 L 1852 2634.5  A 3.5 3.5 0 0 1 1848.5 2631 L 1848.5 2580  Z " stroke-width="1" stroke-dasharray="9,4" stroke="#ff3399" fill="none" stroke-dashoffset="0.5" />
  </g>
</svg>