<?xml version="1.0" encoding="utf-8"?>
<svg version="1.1" xmlns:xlink="http://www.w3.org/1999/xlink" width="259px" height="86px" xmlns="http://www.w3.org/2000/svg">
  <g transform="matrix(1 0 0 1 -1848 -2489 )">
    <path d="M 1849 2493  A 3 3 0 0 1 1852 2490 L 2103 2490  A 3 3 0 0 1 2106 2493 L 2106 2571  A 3 3 0 0 1 2103 2574 L 1852 2574  A 3 3 0 0 1 1849 2571 L 1849 2493  Z " fill-rule="nonzero" fill="#ff3399" stroke="none" fill-opacity="0.0980392156862745" />
    <path d="M 1848.5 2493  A 3.5 3.5 0 0 1 1852 2489.5 L 2103 2489.5  A 3.5 3.5 0 0 1 2106.5 2493 L 2106.5 2571  A 3.5 3.5 0 0 1 2103 2574.5 L 1852 2574.5  A 3.5 3.5 0 0 1 1848.5 2571 L 1848.5 2493  Z " stroke-width="1" stroke-dasharray="9,4" stroke="#ff3399" fill="none" stroke-dashoffset="0.5" />
  </g>
</svg>