<?xml version="1.0" encoding="utf-8"?>
<svg version="1.1" xmlns:xlink="http://www.w3.org/1999/xlink" width="18px" height="18px" preserveAspectRatio="xMinYMid meet" viewBox="2230 2133  18 16" xmlns="http://www.w3.org/2000/svg">
  <path d="M 2239.5 2139  L 2239.5 2186  A 5 5 0 0 0 2244 2191.5 L 2554 2191.5  A 3 3 0 0 1 2557 2188.5 A 3 3 0 0 1 2560 2191.5 L 2757 2191.5  A 3 3 0 0 1 2760 2188.5 A 3 3 0 0 1 2763 2191.5 L 2881 2191.5  A 5 5 0 0 1 2886.5 2196 L 2886.5 2305  A 3 3 0 0 1 2889.5 2308 A 3 3 0 0 1 2886.5 2311 L 2886.5 2569  A 5 5 0 0 0 2891.5 2574.5 L 2967 2574.5  " stroke-width="1" stroke="#ff3399" fill="none" />
  <path d="M 2239.5 2138  A 3 3 0 0 0 2236.5 2141 A 3 3 0 0 0 2239.5 2144 A 3 3 0 0 0 2242.5 2141 A 3 3 0 0 0 2239.5 2138 Z " fill-rule="nonzero" fill="#ff3399" stroke="none" />
</svg>