<?xml version="1.0" encoding="utf-8"?>
<svg version="1.1" xmlns:xlink="http://www.w3.org/1999/xlink" width="10px" height="175px" preserveAspectRatio="xMidYMin meet" viewBox="2033 2138  8 175" xmlns="http://www.w3.org/2000/svg">
  <path d="M 2037.5 2139  L 2037.5 2303  A 5 5 0 0 0 2042 2308.5 L 2554 2308.5  A 3 3 0 0 1 2557 2305.5 A 3 3 0 0 1 2560 2308.5 L 2757 2308.5  A 3 3 0 0 1 2760 2305.5 A 3 3 0 0 1 2763 2308.5 L 2963 2308.5  " stroke-width="1" stroke="#ff3399" fill="none" />
  <path d="M 2037.5 2138  A 3 3 0 0 0 2034.5 2141 A 3 3 0 0 0 2037.5 2144 A 3 3 0 0 0 2040.5 2141 A 3 3 0 0 0 2037.5 2138 Z " fill-rule="nonzero" fill="#ff3399" stroke="none" />
</svg>