<?xml version="1.0" encoding="utf-8"?>
<svg version="1.1" xmlns:xlink="http://www.w3.org/1999/xlink" width="18px" height="18px" preserveAspectRatio="xMinYMid meet" viewBox="2702 1705  18 16" xmlns="http://www.w3.org/2000/svg">
  <path d="M 2709 1713.5  L 2825 1713.5  A 5 5 0 0 1 2830.5 1718 L 2830.5 1777  A 3 3 0 0 1 2833.5 1780 A 3 3 0 0 1 2830.5 1783 L 2830.5 1959  A 3 3 0 0 1 2833.5 1962 A 3 3 0 0 1 2830.5 1965 L 2830.5 1997  A 3 3 0 0 1 2833.5 2000 A 3 3 0 0 1 2830.5 2003 L 2830.5 2006  A 3 3 0 0 1 2833.5 2009 A 3 3 0 0 1 2830.5 2012 L 2830.5 2188  A 3 3 0 0 1 2833.5 2191 A 3 3 0 0 1 2830.5 2194 L 2830.5 2305  A 3 3 0 0 1 2833.5 2308 A 3 3 0 0 1 2830.5 2311 L 2830.5 2752  A 3 3 0 0 1 2833.5 2755 A 3 3 0 0 1 2830.5 2758 L 2830.5 2866  A 3 3 0 0 1 2833.5 2869 A 3 3 0 0 1 2830.5 2872 L 2830.5 2985  A 3 3 0 0 1 2833.5 2988 A 3 3 0 0 1 2830.5 2991 L 2830.5 3111  A 3 3 0 0 1 2833.5 3114 A 3 3 0 0 1 2830.5 3117 L 2830.5 3275  A 3 3 0 0 1 2833.5 3278 A 3 3 0 0 1 2830.5 3281 L 2830.5 3460  A 3 3 0 0 1 2833.5 3463 A 3 3 0 0 1 2830.5 3466 L 2830.5 3627  A 3 3 0 0 1 2833.5 3630 A 3 3 0 0 1 2830.5 3633 L 2830.5 3783  A 3 3 0 0 1 2833.5 3786 A 3 3 0 0 1 2830.5 3789 L 2830.5 3911  A 3 3 0 0 1 2833.5 3914 A 3 3 0 0 1 2830.5 3917 L 2830.5 4033  A 3 3 0 0 1 2833.5 4036 A 3 3 0 0 1 2830.5 4039 L 2830.5 4153  A 3 3 0 0 1 2833.5 4156 A 3 3 0 0 1 2830.5 4159 L 2830.5 4268  A 3 3 0 0 1 2833.5 4271 A 3 3 0 0 1 2830.5 4274 L 2830.5 4440  A 3 3 0 0 1 2833.5 4443 A 3 3 0 0 1 2830.5 4446 L 2830.5 4620  A 5 5 0 0 0 2835.5 4625.5 L 2967 4625.5  " stroke-width="1" stroke="#ff3399" fill="none" />
  <path d="M 2711 1710.5  A 3 3 0 0 0 2708 1713.5 A 3 3 0 0 0 2711 1716.5 A 3 3 0 0 0 2714 1713.5 A 3 3 0 0 0 2711 1710.5 Z " fill-rule="nonzero" fill="#ff3399" stroke="none" />
</svg>