<?xml version="1.0" encoding="utf-8"?>
<svg version="1.1" xmlns:xlink="http://www.w3.org/1999/xlink" width="937px" height="10px" preserveAspectRatio="xMinYMid meet" viewBox="2032 3910  937 8" xmlns="http://www.w3.org/2000/svg">
  <path d="M 2037.5 2693  L 2037.5 2985  A 3 3 0 0 1 2040.5 2988 A 3 3 0 0 1 2037.5 2991 L 2037.5 3909  A 5 5 0 0 0 2042.5 3914.5 L 2969 3914.5  " stroke-width="1" stroke="#ff3399" fill="none" />
  <path d="M 2037.5 2692  A 3 3 0 0 0 2034.5 2695 A 3 3 0 0 0 2037.5 2698 A 3 3 0 0 0 2040.5 2695 A 3 3 0 0 0 2037.5 2692 Z " fill-rule="nonzero" fill="#ff3399" stroke="none" />
</svg>