<?xml version="1.0" encoding="utf-8"?>
<svg version="1.1" xmlns:xlink="http://www.w3.org/1999/xlink" width="18px" height="18px" preserveAspectRatio="xMinYMid meet" viewBox="2257 2230  18 16" xmlns="http://www.w3.org/2000/svg">
  <path d="M 2266.5 2236  L 2266.5 2305  A 3 3 0 0 1 2269.5 2308 A 3 3 0 0 1 2266.5 2311 L 2266.5 2346  A 3 3 0 0 1 2269.5 2349 A 3 3 0 0 1 2266.5 2352 L 2266.5 2985  A 3 3 0 0 1 2269.5 2988 A 3 3 0 0 1 2266.5 2991 L 2266.5 3273  A 5 5 0 0 0 2271.5 3278.5 L 2963 3278.5  " stroke-width="1" stroke="#ff3399" fill="none" />
  <path d="M 2266.5 2235  A 3 3 0 0 0 2263.5 2238 A 3 3 0 0 0 2266.5 2241 A 3 3 0 0 0 2269.5 2238 A 3 3 0 0 0 2266.5 2235 Z " fill-rule="nonzero" fill="#ff3399" stroke="none" />
</svg>