<?xml version="1.0" encoding="utf-8"?>
<svg version="1.1" xmlns:xlink="http://www.w3.org/1999/xlink" width="900px" height="10px" preserveAspectRatio="xMinYMid meet" viewBox="2073 3782  900 8" xmlns="http://www.w3.org/2000/svg">
  <path d="M 2078.5 2609  L 2078.5 2985  A 3 3 0 0 1 2081.5 2988 A 3 3 0 0 1 2078.5 2991 L 2078.5 3781  A 5 5 0 0 0 2083.5 3786.5 L 2973 3786.5  " stroke-width="1" stroke="#ff3399" fill="none" />
  <path d="M 2078.5 2608  A 3 3 0 0 0 2075.5 2611 A 3 3 0 0 0 2078.5 2614 A 3 3 0 0 0 2081.5 2611 A 3 3 0 0 0 2078.5 2608 Z " fill-rule="nonzero" fill="#ff3399" stroke="none" />
</svg>