<?xml version="1.0" encoding="utf-8"?>
<svg version="1.1" xmlns:xlink="http://www.w3.org/1999/xlink" width="674px" height="10px" preserveAspectRatio="xMinYMid meet" viewBox="2234 1996  674 8" xmlns="http://www.w3.org/2000/svg">
  <path d="M 2239.5 2016  L 2239.5 2005  A 5 5 0 0 1 2244 2000.5 L 2603 2000.5  A 3 3 0 0 1 2606 1997.5 A 3 3 0 0 1 2609 2000.5 L 2898 2000.5  A 5 5 0 0 1 2903.5 2005 L 2903.5 2006  A 3 3 0 0 1 2906.5 2009 A 3 3 0 0 1 2903.5 2012 L 2903.5 2305  A 3 3 0 0 1 2906.5 2308 A 3 3 0 0 1 2903.5 2311 L 2903.5 2437  A 5 5 0 0 0 2908.5 2442.5 L 2965 2442.5  " stroke-width="1" stroke="#ff3399" fill="none" />
  <path d="M 2239.5 2011  A 3 3 0 0 0 2236.5 2014 A 3 3 0 0 0 2239.5 2017 A 3 3 0 0 0 2242.5 2014 A 3 3 0 0 0 2239.5 2011 Z " fill-rule="nonzero" fill="#ff3399" stroke="none" />
</svg>