<?xml version="1.0" encoding="utf-8"?>
<svg version="1.1" xmlns:xlink="http://www.w3.org/1999/xlink" width="18px" height="18px" preserveAspectRatio="xMinYMid meet" viewBox="1891 2479  18 16" xmlns="http://www.w3.org/2000/svg">
  <path d="M 1898 2487.5  L 1937 2487.5  A 3 3 0 0 1 1940 2484.5 A 3 3 0 0 1 1943 2487.5 L 2263 2487.5  A 3 3 0 0 1 2266 2484.5 A 3 3 0 0 1 2269 2487.5 L 2425 2487.5  A 5 5 0 0 1 2430.5 2492 L 2430.5 2985  A 3 3 0 0 1 2433.5 2988 A 3 3 0 0 1 2430.5 2991 L 2430.5 3275  A 3 3 0 0 1 2433.5 3278 A 3 3 0 0 1 2430.5 3281 L 2430.5 3625  A 5 5 0 0 0 2435.5 3630.5 L 2969 3630.5  " stroke-width="1" stroke="#ff3399" fill="none" />
  <path d="M 1900 2484.5  A 3 3 0 0 0 1897 2487.5 A 3 3 0 0 0 1900 2490.5 A 3 3 0 0 0 1903 2487.5 A 3 3 0 0 0 1900 2484.5 Z " fill-rule="nonzero" fill="#ff3399" stroke="none" />
</svg>