<?xml version="1.0" encoding="utf-8"?>
<svg version="1.1" xmlns:xlink="http://www.w3.org/1999/xlink" width="18px" height="18px" preserveAspectRatio="xMinYMid meet" viewBox="1866 2797  18 16" xmlns="http://www.w3.org/2000/svg">
  <path d="M 1873 2805.5  L 1937 2805.5  A 3 3 0 0 1 1940 2802.5 A 3 3 0 0 1 1943 2805.5 L 2034 2805.5  A 3 3 0 0 1 2037 2802.5 A 3 3 0 0 1 2040 2805.5 L 2075 2805.5  A 3 3 0 0 1 2078 2802.5 A 3 3 0 0 1 2081 2805.5 L 2263 2805.5  A 3 3 0 0 1 2266 2802.5 A 3 3 0 0 1 2269 2805.5 L 2405 2805.5  A 5 5 0 0 1 2410.5 2810 L 2410.5 2985  A 3 3 0 0 1 2413.5 2988 A 3 3 0 0 1 2410.5 2991 L 2410.5 3275  A 3 3 0 0 1 2413.5 3278 A 3 3 0 0 1 2410.5 3281 L 2410.5 3783  A 3 3 0 0 1 2413.5 3786 A 3 3 0 0 1 2410.5 3789 L 2410.5 3911  A 3 3 0 0 1 2413.5 3914 A 3 3 0 0 1 2410.5 3917 L 2410.5 4266  A 5 5 0 0 0 2415.5 4271.5 L 2965 4271.5  " stroke-width="1" stroke="#ff3399" fill="none" />
  <path d="M 1875 2802.5  A 3 3 0 0 0 1872 2805.5 A 3 3 0 0 0 1875 2808.5 A 3 3 0 0 0 1878 2805.5 A 3 3 0 0 0 1875 2802.5 Z " fill-rule="nonzero" fill="#ff3399" stroke="none" />
</svg>