<?xml version="1.0" encoding="utf-8"?>
<svg version="1.1" xmlns:xlink="http://www.w3.org/1999/xlink" width="18px" height="18px" preserveAspectRatio="xMinYMid meet" viewBox="2684 3383  18 16" xmlns="http://www.w3.org/2000/svg">
  <path d="M 2693.5 3389  L 2693.5 3460  A 3 3 0 0 1 2696.5 3463 A 3 3 0 0 1 2693.5 3466 L 2693.5 3627  A 3 3 0 0 1 2696.5 3630 A 3 3 0 0 1 2693.5 3633 L 2693.5 3783  A 3 3 0 0 1 2696.5 3786 A 3 3 0 0 1 2693.5 3789 L 2693.5 3911  A 3 3 0 0 1 2696.5 3914 A 3 3 0 0 1 2693.5 3917 L 2693.5 4033  A 3 3 0 0 1 2696.5 4036 A 3 3 0 0 1 2693.5 4039 L 2693.5 4153  A 3 3 0 0 1 2696.5 4156 A 3 3 0 0 1 2693.5 4159 L 2693.5 4268  A 3 3 0 0 1 2696.5 4271 A 3 3 0 0 1 2693.5 4274 L 2693.5 4440  A 3 3 0 0 1 2696.5 4443 A 3 3 0 0 1 2693.5 4446 L 2693.5 4874  A 5 5 0 0 0 2698.5 4879.5 L 2967 4879.5  " stroke-width="1" stroke="#ff3399" fill="none" />
  <path d="M 2693.5 3388  A 3 3 0 0 0 2690.5 3391 A 3 3 0 0 0 2693.5 3394 A 3 3 0 0 0 2696.5 3391 A 3 3 0 0 0 2693.5 3388 Z " fill-rule="nonzero" fill="#ff3399" stroke="none" />
</svg>