<?xml version="1.0" encoding="utf-8"?>
<svg version="1.1" xmlns:xlink="http://www.w3.org/1999/xlink" width="374px" height="10px" preserveAspectRatio="xMinYMid meet" viewBox="2595 4032  374 8" xmlns="http://www.w3.org/2000/svg">
  <path d="M 2240 2509.5  L 2263 2509.5  A 3 3 0 0 1 2266 2506.5 A 3 3 0 0 1 2269 2509.5 L 2427 2509.5  A 3 3 0 0 1 2430 2506.5 A 3 3 0 0 1 2433 2509.5 L 2497 2509.5  A 3 3 0 0 1 2500 2506.5 A 3 3 0 0 1 2503 2509.5 L 2554 2509.5  A 3 3 0 0 1 2557 2506.5 A 3 3 0 0 1 2560 2509.5 L 2595 2509.5  A 5 5 0 0 1 2600.5 2514 L 2600.5 2866  A 3 3 0 0 1 2603.5 2869 A 3 3 0 0 1 2600.5 2872 L 2600.5 2985  A 3 3 0 0 1 2603.5 2988 A 3 3 0 0 1 2600.5 2991 L 2600.5 3111  A 3 3 0 0 1 2603.5 3114 A 3 3 0 0 1 2600.5 3117 L 2600.5 3275  A 3 3 0 0 1 2603.5 3278 A 3 3 0 0 1 2600.5 3281 L 2600.5 3627  A 3 3 0 0 1 2603.5 3630 A 3 3 0 0 1 2600.5 3633 L 2600.5 3783  A 3 3 0 0 1 2603.5 3786 A 3 3 0 0 1 2600.5 3789 L 2600.5 3911  A 3 3 0 0 1 2603.5 3914 A 3 3 0 0 1 2600.5 3917 L 2600.5 4031  A 5 5 0 0 0 2605.5 4036.5 L 2969 4036.5  " stroke-width="1" stroke="#ff3399" fill="none" />
  <path d="M 2242 2506.5  A 3 3 0 0 0 2239 2509.5 A 3 3 0 0 0 2242 2512.5 A 3 3 0 0 0 2245 2509.5 A 3 3 0 0 0 2242 2506.5 Z " fill-rule="nonzero" fill="#ff3399" stroke="none" />
</svg>