<?xml version="1.0" encoding="utf-8"?>
<svg version="1.1" xmlns:xlink="http://www.w3.org/1999/xlink" width="331px" height="10px" preserveAspectRatio="xMinYMid meet" viewBox="2625 3459  331 8" xmlns="http://www.w3.org/2000/svg">
  <path d="M 2630.5 2277  L 2630.5 2305  A 3 3 0 0 1 2633.5 2308 A 3 3 0 0 1 2630.5 2311 L 2630.5 2866  A 3 3 0 0 1 2633.5 2869 A 3 3 0 0 1 2630.5 2872 L 2630.5 2985  A 3 3 0 0 1 2633.5 2988 A 3 3 0 0 1 2630.5 2991 L 2630.5 3111  A 3 3 0 0 1 2633.5 3114 A 3 3 0 0 1 2630.5 3117 L 2630.5 3275  A 3 3 0 0 1 2633.5 3278 A 3 3 0 0 1 2630.5 3281 L 2630.5 3458  A 5 5 0 0 0 2635.5 3463.5 L 2956 3463.5  " stroke-width="1" stroke="#ff3399" fill="none" />
  <path d="M 2630.5 2276  A 3 3 0 0 0 2627.5 2279 A 3 3 0 0 0 2630.5 2282 A 3 3 0 0 0 2633.5 2279 A 3 3 0 0 0 2630.5 2276 Z " fill-rule="nonzero" fill="#ff3399" stroke="none" />
</svg>