<?xml version="1.0" encoding="utf-8"?>
<svg version="1.1" xmlns:xlink="http://www.w3.org/1999/xlink" width="10px" height="775px" preserveAspectRatio="xMidYMin meet" viewBox="2496 2344  8 775" xmlns="http://www.w3.org/2000/svg">
  <path d="M 2050 2349.5  L 2495 2349.5  A 5 5 0 0 1 2500.5 2354 L 2500.5 2985  A 3 3 0 0 1 2503.5 2988 A 3 3 0 0 1 2500.5 2991 L 2500.5 3109  A 5 5 0 0 0 2505.5 3114.5 L 2967 3114.5  " stroke-width="1" stroke="#ff3399" fill="none" />
  <path d="M 2052 2346.5  A 3 3 0 0 0 2049 2349.5 A 3 3 0 0 0 2052 2352.5 A 3 3 0 0 0 2055 2349.5 A 3 3 0 0 0 2052 2346.5 Z " fill-rule="nonzero" fill="#ff3399" stroke="none" />
</svg>