<?xml version="1.0" encoding="utf-8"?>
<svg version="1.1" xmlns:xlink="http://www.w3.org/1999/xlink" width="10px" height="1574px" preserveAspectRatio="xMidYMin meet" viewBox="2523 2587  8 1574" xmlns="http://www.w3.org/2000/svg">
  <path d="M 2240 2592.5  L 2263 2592.5  A 3 3 0 0 1 2266 2589.5 A 3 3 0 0 1 2269 2592.5 L 2427 2592.5  A 3 3 0 0 1 2430 2589.5 A 3 3 0 0 1 2433 2592.5 L 2497 2592.5  A 3 3 0 0 1 2500 2589.5 A 3 3 0 0 1 2503 2592.5 L 2522 2592.5  A 5 5 0 0 1 2527.5 2597 L 2527.5 2985  A 3 3 0 0 1 2530.5 2988 A 3 3 0 0 1 2527.5 2991 L 2527.5 3111  A 3 3 0 0 1 2530.5 3114 A 3 3 0 0 1 2527.5 3117 L 2527.5 3275  A 3 3 0 0 1 2530.5 3278 A 3 3 0 0 1 2527.5 3281 L 2527.5 3627  A 3 3 0 0 1 2530.5 3630 A 3 3 0 0 1 2527.5 3633 L 2527.5 3783  A 3 3 0 0 1 2530.5 3786 A 3 3 0 0 1 2527.5 3789 L 2527.5 3911  A 3 3 0 0 1 2530.5 3914 A 3 3 0 0 1 2527.5 3917 L 2527.5 4151  A 5 5 0 0 0 2532.5 4156.5 L 2967 4156.5  " stroke-width="1" stroke="#ff3399" fill="none" />
  <path d="M 2242 2589.5  A 3 3 0 0 0 2239 2592.5 A 3 3 0 0 0 2242 2595.5 A 3 3 0 0 0 2245 2592.5 A 3 3 0 0 0 2242 2589.5 Z " fill-rule="nonzero" fill="#ff3399" stroke="none" />
</svg>