<?xml version="1.0" encoding="utf-8"?>
<svg version="1.1" xmlns:xlink="http://www.w3.org/1999/xlink" width="438px" height="192px" xmlns="http://www.w3.org/2000/svg">
  <g transform="matrix(1 0 0 1 -339 -1736 )">
    <path d="M 340 1742  A 5 5 0 0 1 345 1737 L 771 1737  A 5 5 0 0 1 776 1742 L 776 1922  A 5 5 0 0 1 771 1927 L 345 1927  A 5 5 0 0 1 340 1922 L 340 1742  Z " fill-rule="nonzero" fill="#000000" stroke="none" fill-opacity="0.0196078431372549" />
    <path d="M 339.5 1742  A 5.5 5.5 0 0 1 345 1736.5 L 771 1736.5  A 5.5 5.5 0 0 1 776.5 1742 L 776.5 1922  A 5.5 5.5 0 0 1 771 1927.5 L 345 1927.5  A 5.5 5.5 0 0 1 339.5 1922 L 339.5 1742  Z " stroke-width="1" stroke-dasharray="9,4" stroke="#108ee9" fill="none" stroke-dashoffset="0.5" />
  </g>
</svg>