<?xml version="1.0" encoding="utf-8"?>
<svg version="1.1" xmlns:xlink="http://www.w3.org/1999/xlink" width="935px" height="10px" preserveAspectRatio="xMinYMid meet" viewBox="2019 1662.66666666667  935 8" xmlns="http://www.w3.org/2000/svg">
  <path d="M 1910 1888.5  L 1914 1888.5  A 5 5 0 0 0 1919.5 1883.5 L 1919.5 1847  A 5 5 0 0 1 1924.5 1842.5 L 2019 1842.5  A 5 5 0 0 0 2024.5 1837.5 L 2024.5 1671.66666666667  A 5 5 0 0 1 2029.5 1667.16666666667 L 2944 1667.16666666667  A 5 5 0 0 1 2949.5 1672.16666666667 L 2949.5 1692  A 5 5 0 0 0 2954.5 1697.5 L 2959 1697.5  " stroke-width="1" stroke="#ff3399" fill="none" />
  <path d="M 1912 1885.5  A 3 3 0 0 0 1909 1888.5 A 3 3 0 0 0 1912 1891.5 A 3 3 0 0 0 1915 1888.5 A 3 3 0 0 0 1912 1885.5 Z " fill-rule="nonzero" fill="#ff3399" stroke="none" />
</svg>