<?xml version="1.0" encoding="utf-8"?>
<svg version="1.1" xmlns:xlink="http://www.w3.org/1999/xlink" width="188px" height="13px" xmlns="http://www.w3.org/2000/svg">
  <g transform="matrix(1 0 0 1 -1808 -1709 )">
    <path d="M 1809 1713  A 3 3 0 0 1 1812 1710 L 1992 1710  A 3 3 0 0 1 1995 1713 L 1995 1718  A 3 3 0 0 1 1992 1721 L 1812 1721  A 3 3 0 0 1 1809 1718 L 1809 1713  Z " fill-rule="nonzero" fill="#ff3399" stroke="none" fill-opacity="0.0980392156862745" />
    <path d="M 1808.5 1713  A 3.5 3.5 0 0 1 1812 1709.5 L 1992 1709.5  A 3.5 3.5 0 0 1 1995.5 1713 L 1995.5 1718  A 3.5 3.5 0 0 1 1992 1721.5 L 1812 1721.5  A 3.5 3.5 0 0 1 1808.5 1718 L 1808.5 1713  Z " stroke-width="1" stroke-dasharray="9,4" stroke="#ff3399" fill="none" stroke-dashoffset="0.5" />
  </g>
</svg>