<?xml version="1.0" encoding="utf-8"?>
<svg version="1.1" xmlns:xlink="http://www.w3.org/1999/xlink" width="246px" height="55px" xmlns="http://www.w3.org/2000/svg">
  <g transform="matrix(1 0 0 1 -2443 -2041 )">
    <path d="M 2444 2045  A 3 3 0 0 1 2447 2042 L 2685 2042  A 3 3 0 0 1 2688 2045 L 2688 2092  A 3 3 0 0 1 2685 2095 L 2447 2095  A 3 3 0 0 1 2444 2092 L 2444 2045  Z " fill-rule="nonzero" fill="#ff3399" stroke="none" fill-opacity="0.0980392156862745" />
    <path d="M 2443.5 2045  A 3.5 3.5 0 0 1 2447 2041.5 L 2685 2041.5  A 3.5 3.5 0 0 1 2688.5 2045 L 2688.5 2092  A 3.5 3.5 0 0 1 2685 2095.5 L 2447 2095.5  A 3.5 3.5 0 0 1 2443.5 2092 L 2443.5 2045  Z " stroke-width="1" stroke-dasharray="9,4" stroke="#ff3399" fill="none" stroke-dashoffset="0.5" />
  </g>
</svg>