<?xml version="1.0" encoding="utf-8"?>
<svg version="1.1" xmlns:xlink="http://www.w3.org/1999/xlink" width="10px" height="131px" preserveAspectRatio="xMidYMin meet" viewBox="2602 1883  8 131" xmlns="http://www.w3.org/2000/svg">
  <path d="M 2252 1888.5  L 2601 1888.5  A 5 5 0 0 1 2606.5 1893 L 2606.5 1959  A 3 3 0 0 1 2609.5 1962 A 3 3 0 0 1 2606.5 1965 L 2606.5 2004  A 5 5 0 0 0 2611 2009.5 L 2934 2009.5  A 3 3 0 0 1 2937 2006.5 A 3 3 0 0 1 2940 2009.5 L 2961 2009.5  " stroke-width="1" stroke="#ff3399" fill="none" />
  <path d="M 2254 1885.5  A 3 3 0 0 0 2251 1888.5 A 3 3 0 0 0 2254 1891.5 A 3 3 0 0 0 2257 1888.5 A 3 3 0 0 0 2254 1885.5 Z " fill-rule="nonzero" fill="#ff3399" stroke="none" />
</svg>