<?xml version="1.0" encoding="utf-8"?>
<svg version="1.1" xmlns:xlink="http://www.w3.org/1999/xlink" width="10px" height="16px" preserveAspectRatio="xMidYMin meet" viewBox="2235 1775  8 16" xmlns="http://www.w3.org/2000/svg">
  <path d="M 2239.5 1790  L 2239.5 1785  A 5 5 0 0 1 2244.5 1780.5 L 2945 1780.5  A 5 5 0 0 1 2950.5 1785.5 L 2950.5 1843  A 5 5 0 0 0 2955.5 1848.5 L 2961 1848.5  " stroke-width="1" stroke="#ff3399" fill="none" />
  <path d="M 2239.5 1785  A 3 3 0 0 0 2236.5 1788 A 3 3 0 0 0 2239.5 1791 A 3 3 0 0 0 2242.5 1788 A 3 3 0 0 0 2239.5 1785 Z " fill-rule="nonzero" fill="#ff3399" stroke="none" />
</svg>