<?xml version="1.0" encoding="utf-8"?>
<svg version="1.1" xmlns:xlink="http://www.w3.org/1999/xlink" width="910px" height="10px" preserveAspectRatio="xMinYMid meet" viewBox="2032 1958  910 8" xmlns="http://www.w3.org/2000/svg">
  <path d="M 2037.5 2022  L 2037.5 1967  A 5 5 0 0 1 2042.5 1962.5 L 2932 1962.5  A 5 5 0 0 1 2937.5 1967.5 L 2937.5 2164  A 5 5 0 0 0 2942.5 2169.5 L 2963 2169.5  " stroke-width="1" stroke="#ff3399" fill="none" />
  <path d="M 2037.5 2017  A 3 3 0 0 0 2034.5 2020 A 3 3 0 0 0 2037.5 2023 A 3 3 0 0 0 2040.5 2020 A 3 3 0 0 0 2037.5 2017 Z " fill-rule="nonzero" fill="#ff3399" stroke="none" />
</svg>