<?xml version="1.0" encoding="utf-8"?>
<svg version="1.1" xmlns:xlink="http://www.w3.org/1999/xlink" width="177px" height="26px" xmlns="http://www.w3.org/2000/svg">
  <g transform="matrix(1 0 0 1 -1756 -1660 )">
    <path d="M 1757 1664  A 3 3 0 0 1 1760 1661 L 1929 1661  A 3 3 0 0 1 1932 1664 L 1932 1682  A 3 3 0 0 1 1929 1685 L 1760 1685  A 3 3 0 0 1 1757 1682 L 1757 1664  Z " fill-rule="nonzero" fill="#ff3399" stroke="none" fill-opacity="0.0980392156862745" />
    <path d="M 1756.5 1664  A 3.5 3.5 0 0 1 1760 1660.5 L 1929 1660.5  A 3.5 3.5 0 0 1 1932.5 1664 L 1932.5 1682  A 3.5 3.5 0 0 1 1929 1685.5 L 1760 1685.5  A 3.5 3.5 0 0 1 1756.5 1682 L 1756.5 1664  Z " stroke-width="1" stroke-dasharray="9,4" stroke="#ff3399" fill="none" stroke-dashoffset="0.5" />
  </g>
</svg>