<?xml version="1.0" encoding="utf-8"?>
<svg version="1.1" xmlns:xlink="http://www.w3.org/1999/xlink" width="428px" height="10px" preserveAspectRatio="xMinYMid meet" viewBox="2294 1656  428 8" xmlns="http://www.w3.org/2000/svg">
  <path d="M 2299.5 1943  L 2299.5 1665  A 5 5 0 0 1 2304 1660.5 L 2384 1660.5  A 3 3 0 0 1 2387 1657.5 A 3 3 0 0 1 2390 1660.5 L 2722 1660.5  " stroke-width="1" stroke="#ff3399" fill="none" />
  <path d="M 2299.5 1938  A 3 3 0 0 0 2296.5 1941 A 3 3 0 0 0 2299.5 1944 A 3 3 0 0 0 2302.5 1941 A 3 3 0 0 0 2299.5 1938 Z " fill-rule="nonzero" fill="#ff3399" stroke="none" />
</svg>