<?xml version="1.0" encoding="utf-8"?>
<svg version="1.1" xmlns:xlink="http://www.w3.org/1999/xlink" width="15px" height="10px" preserveAspectRatio="xMinYMid meet" viewBox="2709 1843  15 8" xmlns="http://www.w3.org/2000/svg">
  <path d="M 2387.5 1943  L 2387.5 1934  A 5 5 0 0 1 2392.5 1929.5 L 2709 1929.5  A 5 5 0 0 0 2714.5 1924.5 L 2714.5 1852  A 5 5 0 0 1 2719.5 1847.5 L 2724 1847.5  " stroke-width="1" stroke="#ff3399" fill="none" />
  <path d="M 2387.5 1938  A 3 3 0 0 0 2384.5 1941 A 3 3 0 0 0 2387.5 1944 A 3 3 0 0 0 2390.5 1941 A 3 3 0 0 0 2387.5 1938 Z " fill-rule="nonzero" fill="#ff3399" stroke="none" />
</svg>