<?xml version="1.0" encoding="utf-8"?>
<svg version="1.1" xmlns:xlink="http://www.w3.org/1999/xlink" width="1044px" height="1980px" xmlns="http://www.w3.org/2000/svg">
  <g transform="matrix(1 0 0 1 -326 -1119 )">
    <path d="M 327 1123  A 3 3 0 0 1 330 1120 L 1366 1120  A 3 3 0 0 1 1369 1123 L 1369 3095  A 3 3 0 0 1 1366 3098 L 330 3098  A 3 3 0 0 1 327 3095 L 327 1123  Z " fill-rule="nonzero" fill="#000000" stroke="none" fill-opacity="0.0196078431372549" />
    <path d="M 326.5 1123  A 3.5 3.5 0 0 1 330 1119.5 L 1366 1119.5  A 3.5 3.5 0 0 1 1369.5 1123 L 1369.5 3095  A 3.5 3.5 0 0 1 1366 3098.5 L 330 3098.5  A 3.5 3.5 0 0 1 326.5 3095 L 326.5 1123  Z " stroke-width="1" stroke-dasharray="9,4" stroke="#d9d9d9" fill="none" stroke-dashoffset="0.5" />
  </g>
</svg>