<?xml version="1.0" encoding="utf-8"?>
<svg version="1.1" xmlns:xlink="http://www.w3.org/1999/xlink" width="335px" height="133px" xmlns="http://www.w3.org/2000/svg">
  <g transform="matrix(1 0 0 1 -2504 -1806 )">
    <path d="M 2505 1810  A 3 3 0 0 1 2508 1807 L 2835 1807  A 3 3 0 0 1 2838 1810 L 2838 1935  A 3 3 0 0 1 2835 1938 L 2508 1938  A 3 3 0 0 1 2505 1935 L 2505 1810  Z " fill-rule="nonzero" fill="#ff3399" stroke="none" fill-opacity="0.0980392156862745" />
    <path d="M 2504.5 1810  A 3.5 3.5 0 0 1 2508 1806.5 L 2835 1806.5  A 3.5 3.5 0 0 1 2838.5 1810 L 2838.5 1935  A 3.5 3.5 0 0 1 2835 1938.5 L 2508 1938.5  A 3.5 3.5 0 0 1 2504.5 1935 L 2504.5 1810  Z " stroke-width="1" stroke-dasharray="9,4" stroke="#ff3399" fill="none" stroke-dashoffset="0.5" />
  </g>
</svg>