<?xml version="1.0" encoding="utf-8"?>
<svg version="1.1" xmlns:xlink="http://www.w3.org/1999/xlink" width="278px" height="57px" xmlns="http://www.w3.org/2000/svg">
  <g transform="matrix(1 0 0 1 -2220 -1882 )">
    <path d="M 2221 1886  A 3 3 0 0 1 2224 1883 L 2494 1883  A 3 3 0 0 1 2497 1886 L 2497 1935  A 3 3 0 0 1 2494 1938 L 2224 1938  A 3 3 0 0 1 2221 1935 L 2221 1886  Z " fill-rule="nonzero" fill="#ff3399" stroke="none" fill-opacity="0.0980392156862745" />
    <path d="M 2220.5 1886  A 3.5 3.5 0 0 1 2224 1882.5 L 2494 1882.5  A 3.5 3.5 0 0 1 2497.5 1886 L 2497.5 1935  A 3.5 3.5 0 0 1 2494 1938.5 L 2224 1938.5  A 3.5 3.5 0 0 1 2220.5 1935 L 2220.5 1886  Z " stroke-width="1" stroke-dasharray="9,4" stroke="#ff3399" fill="none" stroke-dashoffset="0.5" />
  </g>
</svg>