<?xml version="1.0" encoding="utf-8"?>
<svg version="1.1" xmlns:xlink="http://www.w3.org/1999/xlink" width="259px" height="119px" xmlns="http://www.w3.org/2000/svg">
  <g transform="matrix(1 0 0 1 -1949 -2031 )">
    <path d="M 1950 2035  A 3 3 0 0 1 1953 2032 L 2204 2032  A 3 3 0 0 1 2207 2035 L 2207 2146  A 3 3 0 0 1 2204 2149 L 1953 2149  A 3 3 0 0 1 1950 2146 L 1950 2035  Z " fill-rule="nonzero" fill="#ff3399" stroke="none" fill-opacity="0.0980392156862745" />
    <path d="M 1949.5 2035  A 3.5 3.5 0 0 1 1953 2031.5 L 2204 2031.5  A 3.5 3.5 0 0 1 2207.5 2035 L 2207.5 2146  A 3.5 3.5 0 0 1 2204 2149.5 L 1953 2149.5  A 3.5 3.5 0 0 1 1949.5 2146 L 1949.5 2035  Z " stroke-width="1" stroke-dasharray="9,4" stroke="#ff3399" fill="none" stroke-dashoffset="0.5" />
  </g>
</svg>