<?xml version="1.0" encoding="utf-8"?>
<svg version="1.1" xmlns:xlink="http://www.w3.org/1999/xlink" width="549px" height="211px" xmlns="http://www.w3.org/2000/svg">
  <g transform="matrix(1 0 0 1 -1962 -2465 )">
    <path d="M 1963 2469  A 3 3 0 0 1 1966 2466 L 2507 2466  A 3 3 0 0 1 2510 2469 L 2510 2672  A 3 3 0 0 1 2507 2675 L 1966 2675  A 3 3 0 0 1 1963 2672 L 1963 2469  Z " fill-rule="nonzero" fill="#ff3399" stroke="none" fill-opacity="0.0980392156862745" />
    <path d="M 1962.5 2469  A 3.5 3.5 0 0 1 1966 2465.5 L 2507 2465.5  A 3.5 3.5 0 0 1 2510.5 2469 L 2510.5 2672  A 3.5 3.5 0 0 1 2507 2675.5 L 1966 2675.5  A 3.5 3.5 0 0 1 1962.5 2672 L 1962.5 2469  Z " stroke-width="1" stroke-dasharray="9,4" stroke="#ff3399" fill="none" stroke-dashoffset="0.5" />
  </g>
</svg>