<?xml version="1.0" encoding="utf-8"?>
<svg version="1.1" xmlns:xlink="http://www.w3.org/1999/xlink" width="15px" height="10px" preserveAspectRatio="xMinYMid meet" viewBox="2458 1796  15 8" xmlns="http://www.w3.org/2000/svg">
  <path d="M 2459 1800.5  L 2463 1800.5  A 5 5 0 0 0 2468.5 1795.5 L 2468.5 1770  A 5 5 0 0 1 2473 1765.5 L 2550 1765.5  A 3 3 0 0 1 2553 1762.5 A 3 3 0 0 1 2556 1765.5 L 2765 1765.5  A 5 5 0 0 1 2770.5 1770.5 L 2770.5 2517  A 5 5 0 0 0 2775.5 2522.5 L 3087 2522.5  " stroke-width="1" stroke="#ff3399" fill="none" />
  <path d="M 2461 1797.5  A 3 3 0 0 0 2458 1800.5 A 3 3 0 0 0 2461 1803.5 A 3 3 0 0 0 2464 1800.5 A 3 3 0 0 0 2461 1797.5 Z " fill-rule="nonzero" fill="#ff3399" stroke="none" />
</svg>