<?xml version="1.0" encoding="utf-8"?>
<svg version="1.1" xmlns:xlink="http://www.w3.org/1999/xlink" width="18px" height="18px" preserveAspectRatio="xMinYMid meet" viewBox="2082 2040  18 16" xmlns="http://www.w3.org/2000/svg">
  <path d="M 2091.5 2046  L 2091.5 2354  A 5 5 0 0 0 2096 2359.5 L 2609 2359.5  A 3 3 0 0 1 2612 2356.5 A 3 3 0 0 1 2615 2359.5 L 2767 2359.5  A 3 3 0 0 1 2770 2356.5 A 3 3 0 0 1 2773 2359.5 L 2800 2359.5  A 3 3 0 0 1 2803 2356.5 A 3 3 0 0 1 2806 2359.5 L 3085 2359.5  " stroke-width="1" stroke="#ff3399" fill="none" />
  <path d="M 2091.5 2045  A 3 3 0 0 0 2088.5 2048 A 3 3 0 0 0 2091.5 2051 A 3 3 0 0 0 2094.5 2048 A 3 3 0 0 0 2091.5 2045 Z " fill-rule="nonzero" fill="#ff3399" stroke="none" />
</svg>