<?xml version="1.0" encoding="utf-8"?>
<svg version="1.1" xmlns:xlink="http://www.w3.org/1999/xlink" width="351px" height="10px" preserveAspectRatio="xMinYMid meet" viewBox="2384 2466  351 8" xmlns="http://www.w3.org/2000/svg">
  <path d="M 2385 2470.5  L 2609 2470.5  A 3 3 0 0 1 2612 2467.5 A 3 3 0 0 1 2615 2470.5 L 2725 2470.5  A 5 5 0 0 1 2730.5 2475 L 2730.5 2882  A 3 3 0 0 1 2733.5 2885 A 3 3 0 0 1 2730.5 2888 L 2730.5 3067  A 5 5 0 0 0 2735 3072.5 L 2800 3072.5  A 3 3 0 0 1 2803 3069.5 A 3 3 0 0 1 2806 3072.5 L 3083 3072.5  " stroke-width="1" stroke="#ff3399" fill="none" />
  <path d="M 2387 2467.5  A 3 3 0 0 0 2384 2470.5 A 3 3 0 0 0 2387 2473.5 A 3 3 0 0 0 2390 2470.5 A 3 3 0 0 0 2387 2467.5 Z " fill-rule="nonzero" fill="#ff3399" stroke="none" />
</svg>