<?xml version="1.0" encoding="utf-8"?>
<svg version="1.1" xmlns:xlink="http://www.w3.org/1999/xlink" width="10px" height="45px" preserveAspectRatio="xMidYMin meet" viewBox="2729 1989  8 45" xmlns="http://www.w3.org/2000/svg">
  <path d="M 2385 2029.5  L 2580 2029.5  A 3 3 0 0 1 2583 2026.5 A 3 3 0 0 1 2586 2029.5 L 2609 2029.5  A 3 3 0 0 1 2612 2026.5 A 3 3 0 0 1 2615 2029.5 L 2728 2029.5  A 5 5 0 0 0 2733.5 2024.5 L 2733.5 1999  A 5 5 0 0 1 2738 1994.5 L 2767 1994.5  A 3 3 0 0 1 2770 1991.5 A 3 3 0 0 1 2773 1994.5 L 2800 1994.5  A 3 3 0 0 1 2803 1991.5 A 3 3 0 0 1 2806 1994.5 L 3083 1994.5  " stroke-width="1" stroke="#ff3399" fill="none" />
  <path d="M 2387 2026.5  A 3 3 0 0 0 2384 2029.5 A 3 3 0 0 0 2387 2032.5 A 3 3 0 0 0 2390 2029.5 A 3 3 0 0 0 2387 2026.5 Z " fill-rule="nonzero" fill="#ff3399" stroke="none" />
</svg>