<?xml version="1.0" encoding="utf-8"?>
<svg version="1.1" xmlns:xlink="http://www.w3.org/1999/xlink" width="287px" height="10px" preserveAspectRatio="xMinYMid meet" viewBox="2798 3259  287 8" xmlns="http://www.w3.org/2000/svg">
  <path d="M 2803.5 1713  A 3 3 0 0 1 2806.5 1716 A 3 3 0 0 1 2803.5 1719 L 2803.5 2519  A 3 3 0 0 1 2806.5 2522 A 3 3 0 0 1 2803.5 2525 L 2803.5 2882  A 3 3 0 0 1 2806.5 2885 A 3 3 0 0 1 2803.5 2888 L 2803.5 3258  A 5 5 0 0 0 2808.5 3263.5 L 3085 3263.5  " stroke-width="1" stroke="#ff3399" fill="none" />
  <path d="M 2805.35510940921 1710.64233821767  A 3 3 0 0 0 2802.35510940921 1713.64233821767 A 3 3 0 0 0 2805.35510940921 1716.64233821767 A 3 3 0 0 0 2808.35510940921 1713.64233821767 A 3 3 0 0 0 2805.35510940921 1710.64233821767 Z " fill-rule="nonzero" fill="#ff3399" stroke="none" />
</svg>