<?xml version="1.0" encoding="utf-8"?>
<svg version="1.1" xmlns:xlink="http://www.w3.org/1999/xlink" width="10px" height="296px" preserveAspectRatio="xMidYMin meet" viewBox="2579 1906  8 296" xmlns="http://www.w3.org/2000/svg">
  <path d="M 2409 1911.5  L 2578 1911.5  A 5 5 0 0 1 2583.5 1916.5 L 2583.5 2192  A 5 5 0 0 0 2588 2197.5 L 2609 2197.5  A 3 3 0 0 1 2612 2194.5 A 3 3 0 0 1 2615 2197.5 L 2767 2197.5  A 3 3 0 0 1 2770 2194.5 A 3 3 0 0 1 2773 2197.5 L 2800 2197.5  A 3 3 0 0 1 2803 2194.5 A 3 3 0 0 1 2806 2197.5 L 3083 2197.5  " stroke-width="1" stroke="#ff3399" fill="none" />
  <path d="M 2411 1908.5  A 3 3 0 0 0 2408 1911.5 A 3 3 0 0 0 2411 1914.5 A 3 3 0 0 0 2414 1911.5 A 3 3 0 0 0 2411 1908.5 Z " fill-rule="nonzero" fill="#ff3399" stroke="none" />
</svg>