<?xml version="1.0" encoding="utf-8"?>
<svg version="1.1" xmlns:xlink="http://www.w3.org/1999/xlink" width="1030px" height="10px" preserveAspectRatio="xMinYMid meet" viewBox="2046 1891  1030 8" xmlns="http://www.w3.org/2000/svg">
  <path d="M 2051.5 2232  L 2051.5 1900  A 5 5 0 0 1 2056 1895.5 L 2609 1895.5  A 3 3 0 0 1 2612 1892.5 A 3 3 0 0 1 2615 1895.5 L 2767 1895.5  A 3 3 0 0 1 2770 1892.5 A 3 3 0 0 1 2773 1895.5 L 2800 1895.5  A 3 3 0 0 1 2803 1892.5 A 3 3 0 0 1 2806 1895.5 L 3066 1895.5  A 5 5 0 0 0 3071.5 1890.5 L 3071.5 1876  A 5 5 0 0 1 3076.5 1871.5 L 3081 1871.5  " stroke-width="1" stroke="#ff3399" fill="none" />
  <path d="M 2051.5 2227  A 3 3 0 0 0 2048.5 2230 A 3 3 0 0 0 2051.5 2233 A 3 3 0 0 0 2054.5 2230 A 3 3 0 0 0 2051.5 2227 Z " fill-rule="nonzero" fill="#ff3399" stroke="none" />
</svg>