<?xml version="1.0" encoding="utf-8"?>
<svg version="1.1" xmlns:xlink="http://www.w3.org/1999/xlink" width="406px" height="10px" preserveAspectRatio="xMinYMid meet" viewBox="2679 3472  406 8" xmlns="http://www.w3.org/2000/svg">
  <path d="M 2684.5 2773  L 2684.5 2882  A 3 3 0 0 1 2687.5 2885 A 3 3 0 0 1 2684.5 2888 L 2684.5 3471  A 5 5 0 0 0 2689.5 3476.5 L 3085 3476.5  " stroke-width="1" stroke="#ff3399" fill="none" />
  <path d="M 2684.5 2772  A 3 3 0 0 0 2681.5 2775 A 3 3 0 0 0 2684.5 2778 A 3 3 0 0 0 2687.5 2775 A 3 3 0 0 0 2684.5 2772 Z " fill-rule="nonzero" fill="#ff3399" stroke="none" />
</svg>