<?xml version="1.0" encoding="utf-8"?>
<svg version="1.1" xmlns:xlink="http://www.w3.org/1999/xlink" width="140px" height="28px" xmlns="http://www.w3.org/2000/svg">
  <g transform="matrix(1 0 0 1 -1827 -1839 )">
    <path d="M 1828 1843  A 3 3 0 0 1 1831 1840 L 1963 1840  A 3 3 0 0 1 1966 1843 L 1966 1863  A 3 3 0 0 1 1963 1866 L 1831 1866  A 3 3 0 0 1 1828 1863 L 1828 1843  Z " fill-rule="nonzero" fill="#ff3399" stroke="none" fill-opacity="0.0980392156862745" />
    <path d="M 1827.5 1843  A 3.5 3.5 0 0 1 1831 1839.5 L 1963 1839.5  A 3.5 3.5 0 0 1 1966.5 1843 L 1966.5 1863  A 3.5 3.5 0 0 1 1963 1866.5 L 1831 1866.5  A 3.5 3.5 0 0 1 1827.5 1863 L 1827.5 1843  Z " stroke-width="1" stroke-dasharray="9,4" stroke="#ff3399" fill="none" stroke-dashoffset="0.5" />
  </g>
</svg>