<?xml version="1.0" encoding="utf-8"?>
<svg version="1.1" xmlns:xlink="http://www.w3.org/1999/xlink" width="178px" height="37px" xmlns="http://www.w3.org/2000/svg">
  <g transform="matrix(1 0 0 1 -2230 -1765 )">
    <path d="M 2231 1769  A 3 3 0 0 1 2234 1766 L 2404 1766  A 3 3 0 0 1 2407 1769 L 2407 1798  A 3 3 0 0 1 2404 1801 L 2234 1801  A 3 3 0 0 1 2231 1798 L 2231 1769  Z " fill-rule="nonzero" fill="#ff3399" stroke="none" fill-opacity="0.0980392156862745" />
    <path d="M 2230.5 1769  A 3.5 3.5 0 0 1 2234 1765.5 L 2404 1765.5  A 3.5 3.5 0 0 1 2407.5 1769 L 2407.5 1798  A 3.5 3.5 0 0 1 2404 1801.5 L 2234 1801.5  A 3.5 3.5 0 0 1 2230.5 1798 L 2230.5 1769  Z " stroke-width="1" stroke-dasharray="9,4" stroke="#ff3399" fill="none" stroke-dashoffset="0.5" />
  </g>
</svg>