<?xml version="1.0" encoding="utf-8"?>
<svg version="1.1" xmlns:xlink="http://www.w3.org/1999/xlink" width="10px" height="188px" preserveAspectRatio="xMidYMin meet" viewBox="2046 1665  8 188" xmlns="http://www.w3.org/2000/svg">
  <path d="M 2050.5 1852  L 2050.5 1834  A 3 3 0 0 0 2053.5 1831 A 3 3 0 0 0 2050.5 1828 L 2050.5 1675  A 5 5 0 0 1 2055 1670.5 L 2157 1670.5  A 3 3 0 0 1 2160 1667.5 A 3 3 0 0 1 2163 1670.5 L 2311 1670.5  A 3 3 0 0 1 2314 1667.5 A 3 3 0 0 1 2317 1670.5 L 2424 1670.5  " stroke-width="1" stroke="#ff3399" fill="none" />
  <path d="M 2050.5 1847  A 3 3 0 0 0 2047.5 1850 A 3 3 0 0 0 2050.5 1853 A 3 3 0 0 0 2053.5 1850 A 3 3 0 0 0 2050.5 1847 Z " fill-rule="nonzero" fill="#ff3399" stroke="none" />
</svg>