<?xml version="1.0" encoding="utf-8"?>
<svg version="1.1" xmlns:xlink="http://www.w3.org/1999/xlink" width="464px" height="28px" xmlns="http://www.w3.org/2000/svg">
  <g transform="matrix(1 0 0 1 -1841 -1873 )">
    <path d="M 1842 1877  A 3 3 0 0 1 1845 1874 L 2301 1874  A 3 3 0 0 1 2304 1877 L 2304 1897  A 3 3 0 0 1 2301 1900 L 1845 1900  A 3 3 0 0 1 1842 1897 L 1842 1877  Z " fill-rule="nonzero" fill="#ff3399" stroke="none" fill-opacity="0.0980392156862745" />
    <path d="M 1841.5 1877  A 3.5 3.5 0 0 1 1845 1873.5 L 2301 1873.5  A 3.5 3.5 0 0 1 2304.5 1877 L 2304.5 1897  A 3.5 3.5 0 0 1 2301 1900.5 L 1845 1900.5  A 3.5 3.5 0 0 1 1841.5 1897 L 1841.5 1877  Z " stroke-width="1" stroke-dasharray="9,4" stroke="#ff3399" fill="none" stroke-dashoffset="0.5" />
  </g>
</svg>