<?xml version="1.0" encoding="utf-8"?>
<svg version="1.1" xmlns:xlink="http://www.w3.org/1999/xlink" width="562px" height="144px" xmlns="http://www.w3.org/2000/svg">
  <g transform="matrix(1 0 0 1 -1827 -1918 )">
    <path d="M 1828 1922  A 3 3 0 0 1 1831 1919 L 2385 1919  A 3 3 0 0 1 2388 1922 L 2388 2058  A 3 3 0 0 1 2385 2061 L 1831 2061  A 3 3 0 0 1 1828 2058 L 1828 1922  Z " fill-rule="nonzero" fill="#ff3399" stroke="none" fill-opacity="0.0980392156862745" />
    <path d="M 1827.5 1922  A 3.5 3.5 0 0 1 1831 1918.5 L 2385 1918.5  A 3.5 3.5 0 0 1 2388.5 1922 L 2388.5 2058  A 3.5 3.5 0 0 1 2385 2061.5 L 1831 2061.5  A 3.5 3.5 0 0 1 1827.5 2058 L 1827.5 1922  Z " stroke-width="1" stroke-dasharray="9,4" stroke="#ff3399" fill="none" stroke-dashoffset="0.5" />
  </g>
</svg>