<?xml version="1.0" encoding="utf-8"?>
<svg version="1.1" xmlns:xlink="http://www.w3.org/1999/xlink" width="490px" height="24px" xmlns="http://www.w3.org/2000/svg">
  <g transform="matrix(1 0 0 1 -1863 -2113 )">
    <path d="M 1864 2117  A 3 3 0 0 1 1867 2114 L 2349 2114  A 3 3 0 0 1 2352 2117 L 2352 2133  A 3 3 0 0 1 2349 2136 L 1867 2136  A 3 3 0 0 1 1864 2133 L 1864 2117  Z " fill-rule="nonzero" fill="#ff3399" stroke="none" fill-opacity="0.0980392156862745" />
    <path d="M 1863.5 2117  A 3.5 3.5 0 0 1 1867 2113.5 L 2349 2113.5  A 3.5 3.5 0 0 1 2352.5 2117 L 2352.5 2133  A 3.5 3.5 0 0 1 2349 2136.5 L 1867 2136.5  A 3.5 3.5 0 0 1 1863.5 2133 L 1863.5 2117  Z " stroke-width="1" stroke-dasharray="9,4" stroke="#ff3399" fill="none" stroke-dashoffset="0.5" />
  </g>
</svg>