<?xml version="1.0" encoding="utf-8"?>
<svg version="1.1" xmlns:xlink="http://www.w3.org/1999/xlink" width="256px" height="10px" preserveAspectRatio="xMinYMid meet" viewBox="1909 1827  256 8" xmlns="http://www.w3.org/2000/svg">
  <path d="M 1910 1831.5  L 2155 1831.5  A 5 5 0 0 0 2160.5 1826.5 L 2160.5 1562  A 5 5 0 0 1 2165 1557.5 L 2311 1557.5  A 3 3 0 0 1 2314 1554.5 A 3 3 0 0 1 2317 1557.5 L 2424 1557.5  " stroke-width="1" stroke="#ff3399" fill="none" />
  <path d="M 1912 1828.5  A 3 3 0 0 0 1909 1831.5 A 3 3 0 0 0 1912 1834.5 A 3 3 0 0 0 1915 1831.5 A 3 3 0 0 0 1912 1828.5 Z " fill-rule="nonzero" fill="#ff3399" stroke="none" />
</svg>