<?xml version="1.0" encoding="utf-8"?>
<svg version="1.1" xmlns:xlink="http://www.w3.org/1999/xlink" width="101px" height="10px" preserveAspectRatio="xMinYMid meet" viewBox="2162 1997  101 8" xmlns="http://www.w3.org/2000/svg">
  <path d="M 2167.5 1482  L 2167.5 1487  A 3 3 0 0 1 2170.5 1490 A 3 3 0 0 1 2167.5 1493 L 2167.5 1777  A 3 3 0 0 1 2170.5 1780 A 3 3 0 0 1 2167.5 1783 L 2167.5 1883  A 3 3 0 0 1 2170.5 1886 A 3 3 0 0 1 2167.5 1889 L 2167.5 1996  A 5 5 0 0 0 2172.5 2001.5 L 2263 2001.5  " stroke-width="1" stroke="#ff3399" fill="none" />
  <path d="M 2167.5 1481  A 3 3 0 0 0 2164.5 1484 A 3 3 0 0 0 2167.5 1487 A 3 3 0 0 0 2170.5 1484 A 3 3 0 0 0 2167.5 1481 Z " fill-rule="nonzero" fill="#ff3399" stroke="none" />
</svg>