<?xml version="1.0" encoding="utf-8"?>
<svg version="1.1" xmlns:xlink="http://www.w3.org/1999/xlink" width="18px" height="18px" preserveAspectRatio="xMinYMid meet" viewBox="2143 1418  18 16" xmlns="http://www.w3.org/2000/svg">
  <path d="M 2154 1426.5  L 2145 1426.5  A 5 5 0 0 0 2140.5 1431 L 2140.5 1487  A 3 3 0 0 1 2143.5 1490 A 3 3 0 0 1 2140.5 1493 L 2140.5 1777  A 3 3 0 0 1 2143.5 1780 A 3 3 0 0 1 2140.5 1783 L 2140.5 1881  A 5 5 0 0 0 2145.5 1886.5 L 2269 1886.5  " stroke-width="1" stroke="#ff3399" fill="none" />
  <path d="M 2152 1423.5  A 3 3 0 0 0 2149 1426.5 A 3 3 0 0 0 2152 1429.5 A 3 3 0 0 0 2155 1426.5 A 3 3 0 0 0 2152 1423.5 Z " fill-rule="nonzero" fill="#ff3399" stroke="none" />
</svg>