<?xml version="1.0" encoding="utf-8"?>
<svg version="1.1" xmlns:xlink="http://www.w3.org/1999/xlink" width="310px" height="95px" xmlns="http://www.w3.org/2000/svg">
  <g transform="matrix(1 0 0 1 -566 -85 )">
    <path d="M 566 85  L 876 85  L 876 180  L 566 180  L 566 85  " fill-rule="nonzero" fill="#cccccc" stroke="none" />
    <path d="M 573 92  L 869 92  L 869 173  L 573 173  L 573 92  " fill-rule="nonzero" fill="#ffffff" stroke="none" />
    <path d="M 734.325 113.5  C 730.335 113.5  727.2 110.365  727.2 106.375  C 727.2 102.385  730.335 99.25  734.325 99.25  C 738.315 99.25  741.45 102.385  741.45 106.375  C 741.45 110.365  738.315 113.5  734.325 113.5  " fill-rule="nonzero" fill="#cccccc" stroke="none" />
    <path d="M 576 171  L 576 129.2  L 648.75 110.2  L 750.6 157.025806451613  L 808.8 121.6  L 867 157.025806451613  L 867 171  L 576 171  " fill-rule="nonzero" fill="#169bd5" stroke="none" />
  </g>
</svg>