<?xml version="1.0" encoding="utf-8"?>
<svg version="1.1" xmlns:xlink="http://www.w3.org/1999/xlink" width="14px" height="18px" xmlns="http://www.w3.org/2000/svg">
  <g transform="matrix(1 0 0 1 -548 -432 )">
    <path d="M 9.03567567567567 13.66875  C 9.15675675675676 13.78125  9.2172972972973 13.9125  9.2172972972973 14.0625  L 9.2172972972973 17.4375  C 9.2172972972973 17.5875  9.15675675675676 17.71875  9.03567567567567 17.83125  C 8.9145945945946 17.94375  8.77333333333333 18  8.61189189189189 18  L 4.97945945945946 18  C 4.81801801801802 18  4.67675675675676 17.94375  4.55567567567568 17.83125  C 4.43459459459459 17.71875  4.37405405405405 17.5875  4.37405405405405 17.4375  L 4.37405405405405 14.0625  C 4.37405405405405 13.9125  4.43459459459459 13.78125  4.55567567567568 13.66875  C 4.67675675675676 13.55625  4.81801801801802 13.5  4.97945945945946 13.5  L 8.61189189189189 13.5  C 8.77333333333333 13.5  8.9145945945946 13.55625  9.03567567567567 13.66875  Z M 13.3794594594595 3.39609375  C 13.7931531531532 4.10390625  14 4.846875  14 5.625  C 14 6.13125  13.9218018018018 6.6046875  13.7654054054054 7.0453125  C 13.609009009009 7.4859375  13.4324324324324 7.84453125  13.2356756756757 8.12109375  C 13.0389189189189 8.39765625  12.7614414414414 8.6765625  12.4032432432432 8.9578125  C 12.045045045045 9.2390625  11.754954954955 9.44296875  11.532972972973 9.56953125  C 11.310990990991 9.69609375  11.0032432432432 9.8625  10.6097297297297 10.06875  C 10.196036036036 10.284375  9.85045045045045 10.5890625  9.57297297297297 10.9828125  C 9.2954954954955 11.3765625  9.15675675675676 11.690625  9.15675675675676 11.925  C 9.15675675675676 12.084375  9.09621621621622 12.23671875  8.97513513513513 12.38203125  C 8.85405405405405 12.52734375  8.71279279279279 12.6  8.55135135135135 12.6  L 4.91891891891892 12.6  C 4.76756756756757 12.6  4.63891891891892 12.51328125  4.53297297297297 12.33984375  C 4.42702702702703 12.16640625  4.37405405405405 11.990625  4.37405405405405 11.8125  L 4.37405405405405 11.1796875  C 4.37405405405405 10.4015625  4.70198198198198 9.66796875  5.35783783783784 8.97890625  C 6.01369369369369 8.28984375  6.73513513513514 7.78125  7.52216216216216 7.453125  C 8.11747747747748 7.2  8.54126126126126 6.9375  8.79351351351351 6.665625  C 9.04576576576577 6.39375  9.17189189189189 6.0375  9.17189189189189 5.596875  C 9.17189189189189 5.203125  8.9372972972973 4.85625  8.46810810810811 4.55625  C 7.99891891891892 4.25625  7.45657657657658 4.10625  6.84108108108108 4.10625  C 6.18522522522523 4.10625  5.64036036036036 4.2421875  5.20648648648649 4.5140625  C 4.85333333333333 4.7484375  4.31351351351351 5.2875  3.58702702702703 6.13125  C 3.45585585585586 6.28125  3.29945945945946 6.35625  3.11783783783784 6.35625  C 2.99675675675676 6.35625  2.87063063063063 6.31875  2.73945945945946 6.24375  L 0.257297297297297 4.4859375  C 0.126126126126126 4.3921875  0.0479279279279282 4.275  0.0227027027027027 4.134375  C -0.00252252252252238 3.99375  0.0252252252252253 3.8625  0.105945945945946 3.740625  C 1.72036036036036 1.246875  4.06126126126126 0  7.12864864864865 0  C 7.93585585585586 0  8.74810810810811 0.1453125  9.56540540540541 0.435937499999999  C 10.3827027027027 0.726562499999999  11.1192792792793 1.115625  11.7751351351351 1.603125  C 12.430990990991 2.090625  12.9657657657658 2.68828125  13.3794594594595 3.39609375  Z " fill-rule="nonzero" fill="#d7d7d7" stroke="none" transform="matrix(1 0 0 1 548 432 )" />
  </g>
</svg>