<?xml version="1.0" encoding="utf-8"?>
<svg version="1.1" xmlns:xlink="http://www.w3.org/1999/xlink" width="312px" height="55px" xmlns="http://www.w3.org/2000/svg">
  <g transform="matrix(1 0 0 1 -1850 -1346 )">
    <path d="M 1851 1350  A 3 3 0 0 1 1854 1347 L 2158 1347  A 3 3 0 0 1 2161 1350 L 2161 1397  A 3 3 0 0 1 2158 1400 L 1854 1400  A 3 3 0 0 1 1851 1397 L 1851 1350  Z " fill-rule="nonzero" fill="#ff3399" stroke="none" fill-opacity="0.0980392156862745" />
    <path d="M 1850.5 1350  A 3.5 3.5 0 0 1 1854 1346.5 L 2158 1346.5  A 3.5 3.5 0 0 1 2161.5 1350 L 2161.5 1397  A 3.5 3.5 0 0 1 2158 1400.5 L 1854 1400.5  A 3.5 3.5 0 0 1 1850.5 1397 L 1850.5 1350  Z " stroke-width="1" stroke-dasharray="9,4" stroke="#ff3399" fill="none" stroke-dashoffset="0.5" />
  </g>
</svg>