<?xml version="1.0" encoding="utf-8"?>
<svg version="1.1" xmlns:xlink="http://www.w3.org/1999/xlink" width="20px" height="10px" preserveAspectRatio="xMinYMid meet" viewBox="2245 1565  20 8" xmlns="http://www.w3.org/2000/svg">
  <path d="M 1996.5 1507  L 1996.5 1495  A 5 5 0 0 1 2001.5 1490.5 L 2245 1490.5  A 5 5 0 0 1 2250.5 1495.5 L 2250.5 1564  A 5 5 0 0 0 2255.5 1569.5 L 2265 1569.5  " stroke-width="1" stroke="#ff3399" fill="none" />
  <path d="M 1996.5 1502  A 3 3 0 0 0 1993.5 1505 A 3 3 0 0 0 1996.5 1508 A 3 3 0 0 0 1999.5 1505 A 3 3 0 0 0 1996.5 1502 Z " fill-rule="nonzero" fill="#ff3399" stroke="none" />
</svg>