<?xml version="1.0" encoding="utf-8"?>
<svg version="1.1" xmlns:xlink="http://www.w3.org/1999/xlink" width="18px" height="18px" preserveAspectRatio="xMinYMid meet" viewBox="2225 1543  18 16" xmlns="http://www.w3.org/2000/svg">
  <path d="M 2234.5 1553  L 2234.5 1400  A 5 5 0 0 1 2239 1395.5 L 2527 1395.5  A 3 3 0 0 1 2530 1392.5 A 3 3 0 0 1 2533 1395.5 L 2665 1395.5  " stroke-width="1" stroke="#ff3399" fill="none" />
  <path d="M 2234.5 1548  A 3 3 0 0 0 2231.5 1551 A 3 3 0 0 0 2234.5 1554 A 3 3 0 0 0 2237.5 1551 A 3 3 0 0 0 2234.5 1548 Z " fill-rule="nonzero" fill="#ff3399" stroke="none" />
</svg>