<?xml version="1.0" encoding="utf-8"?>
<svg version="1.1" xmlns:xlink="http://www.w3.org/1999/xlink" width="18px" height="18px" preserveAspectRatio="xMinYMid meet" viewBox="2401 1798  18 16" xmlns="http://www.w3.org/2000/svg">
  <path d="M 2408 1806.5  L 2525 1806.5  A 5 5 0 0 1 2530.5 1811 L 2530.5 2020  A 3 3 0 0 1 2533.5 2023 A 3 3 0 0 1 2530.5 2026 L 2530.5 2299  A 5 5 0 0 0 2535.5 2304.5 L 2665 2304.5  " stroke-width="1" stroke="#ff3399" fill="none" />
  <path d="M 2410 1803.5  A 3 3 0 0 0 2407 1806.5 A 3 3 0 0 0 2410 1809.5 A 3 3 0 0 0 2413 1806.5 A 3 3 0 0 0 2410 1803.5 Z " fill-rule="nonzero" fill="#ff3399" stroke="none" />
</svg>