<?xml version="1.0" encoding="utf-8"?>
<svg version="1.1" xmlns:xlink="http://www.w3.org/1999/xlink" width="281px" height="10px" preserveAspectRatio="xMinYMid meet" viewBox="2390 3152  281 8" xmlns="http://www.w3.org/2000/svg">
  <path d="M 2395.5 1979  L 2395.5 2020  A 3 3 0 0 1 2398.5 2023 A 3 3 0 0 1 2395.5 2026 L 2395.5 3151  A 5 5 0 0 0 2400.5 3156.5 L 2671 3156.5  " stroke-width="1" stroke="#ff3399" fill="none" />
  <path d="M 2395.5 1978  A 3 3 0 0 0 2392.5 1981 A 3 3 0 0 0 2395.5 1984 A 3 3 0 0 0 2398.5 1981 A 3 3 0 0 0 2395.5 1978 Z " fill-rule="nonzero" fill="#ff3399" stroke="none" />
</svg>