<?xml version="1.0" encoding="utf-8"?>
<svg version="1.1" xmlns:xlink="http://www.w3.org/1999/xlink" width="50px" height="10px" preserveAspectRatio="xMinYMid meet" viewBox="3361 3335  50 8" xmlns="http://www.w3.org/2000/svg">
  <path d="M 3410 3339.5  L 3371 3339.5  A 5 5 0 0 1 3366.5 3334.5 L 3366.5 3292  A 5 5 0 0 0 3361.5 3287.5 L 3155.5 3287.5  A 0.5 0.5 0 0 0 3155.5 3288 L 3155.5 3288  " stroke-width="1" stroke="#ff3399" fill="none" />
  <path d="M 3408 3336.5  A 3 3 0 0 0 3405 3339.5 A 3 3 0 0 0 3408 3342.5 A 3 3 0 0 0 3411 3339.5 A 3 3 0 0 0 3408 3336.5 Z " fill-rule="nonzero" fill="#ff3399" stroke="none" />
</svg>