<?xml version="1.0" encoding="utf-8"?>
<svg version="1.1" xmlns:xlink="http://www.w3.org/1999/xlink" width="34px" height="10px" preserveAspectRatio="xMinYMid meet" viewBox="2591 1962  34 8" xmlns="http://www.w3.org/2000/svg">
  <path d="M 2592 1966.5  L 2615 1966.5  A 5 5 0 0 1 2620.5 1971 L 2620.5 2020  A 3 3 0 0 1 2623.5 2023 A 3 3 0 0 1 2620.5 2026 L 2620.5 2199  A 5 5 0 0 0 2625.5 2204.5 L 2665 2204.5  " stroke-width="1" stroke="#ff3399" fill="none" />
  <path d="M 2594 1963.5  A 3 3 0 0 0 2591 1966.5 A 3 3 0 0 0 2594 1969.5 A 3 3 0 0 0 2597 1966.5 A 3 3 0 0 0 2594 1963.5 Z " fill-rule="nonzero" fill="#ff3399" stroke="none" />
</svg>