<?xml version="1.0" encoding="utf-8"?>
<svg version="1.1" xmlns:xlink="http://www.w3.org/1999/xlink" width="346px" height="398px" xmlns="http://www.w3.org/2000/svg">
  <g transform="matrix(1 0 0 1 -1432 -435 )">
    <path d="M 1432 435  L 1778 435  L 1778 833  L 1432 833  L 1432 435  " fill-rule="nonzero" fill="#cccccc" stroke="none" />
    <path d="M 1456 459  L 1754 459  L 1754 809  L 1456 809  L 1456 459  " fill-rule="nonzero" fill="#ffffff" stroke="none" />
    <path d="M 1637.87 546.6  C 1623.338 546.6  1611.92 535.182  1611.92 520.65  C 1611.92 506.118  1623.338 494.7  1637.87 494.7  C 1652.402 494.7  1663.82 506.118  1663.82 520.65  C 1663.82 535.182  1652.402 546.6  1637.87 546.6  " fill-rule="nonzero" fill="#cccccc" stroke="none" />
    <path d="M 1465 801  L 1465 617.85  L 1535.25 534.6  L 1633.6 601.2  L 1689.8 584.55  L 1746 601.2  L 1746 801  L 1465 801  " fill-rule="nonzero" fill="#169bd5" stroke="none" />
  </g>
</svg>