<?xml version="1.0" encoding="utf-8"?>
<svg version="1.1" xmlns:xlink="http://www.w3.org/1999/xlink" width="1104px" height="117px" xmlns="http://www.w3.org/2000/svg">
  <g transform="matrix(1 0 0 1 -674 -297 )">
    <path d="M 674 297  L 1778 297  L 1778 414  L 674 414  L 674 297  " fill-rule="nonzero" fill="#cccccc" stroke="none" />
    <path d="M 682 305  L 1770 305  L 1770 406  L 682 406  L 682 305  " fill-rule="nonzero" fill="#ffffff" stroke="none" />
    <path d="M 1256.855 332.1  C 1251.941 332.1  1248.08 328.239  1248.08 323.325  C 1248.08 318.411  1251.941 314.55  1256.855 314.55  C 1261.769 314.55  1265.63 318.411  1265.63 323.325  C 1265.63 328.239  1261.769 332.1  1256.855 332.1  " fill-rule="nonzero" fill="#cccccc" stroke="none" />
    <path d="M 685 403  L 685 350.75  L 955.5 327  L 1334.2 396.959239130435  L 1550.6 341.25  L 1767 396.959239130435  L 1767 403  L 685 403  " fill-rule="nonzero" fill="#169bd5" stroke="none" />
  </g>
</svg>