<?xml version="1.0" encoding="utf-8"?>
<svg version="1.1" xmlns:xlink="http://www.w3.org/1999/xlink" width="246px" height="280px" xmlns="http://www.w3.org/2000/svg">
  <g transform="matrix(1 0 0 1 -3031 -1806 )">
    <path d="M 3032 1810  A 3 3 0 0 1 3035 1807 L 3273 1807  A 3 3 0 0 1 3276 1810 L 3276 2082  A 3 3 0 0 1 3273 2085 L 3035 2085  A 3 3 0 0 1 3032 2082 L 3032 1810  Z " fill-rule="nonzero" fill="#ff3399" stroke="none" fill-opacity="0.0980392156862745" />
    <path d="M 3031.5 1810  A 3.5 3.5 0 0 1 3035 1806.5 L 3273 1806.5  A 3.5 3.5 0 0 1 3276.5 1810 L 3276.5 2082  A 3.5 3.5 0 0 1 3273 2085.5 L 3035 2085.5  A 3.5 3.5 0 0 1 3031.5 2082 L 3031.5 1810  Z " stroke-width="1" stroke-dasharray="9,4" stroke="#ff3399" fill="none" stroke-dashoffset="0.5" />
  </g>
</svg>