<?xml version="1.0" encoding="utf-8"?>
<svg version="1.1" xmlns:xlink="http://www.w3.org/1999/xlink" width="158px" height="49px" xmlns="http://www.w3.org/2000/svg">
  <g transform="matrix(1 0 0 1 -3208 -2369 )">
    <path d="M 3209 2373  A 3 3 0 0 1 3212 2370 L 3362 2370  A 3 3 0 0 1 3365 2373 L 3365 2414  A 3 3 0 0 1 3362 2417 L 3212 2417  A 3 3 0 0 1 3209 2414 L 3209 2373  Z " fill-rule="nonzero" fill="#ff3399" stroke="none" fill-opacity="0.0980392156862745" />
    <path d="M 3208.5 2373  A 3.5 3.5 0 0 1 3212 2369.5 L 3362 2369.5  A 3.5 3.5 0 0 1 3365.5 2373 L 3365.5 2414  A 3.5 3.5 0 0 1 3362 2417.5 L 3212 2417.5  A 3.5 3.5 0 0 1 3208.5 2414 L 3208.5 2373  Z " stroke-width="1" stroke-dasharray="9,4" stroke="#ff3399" fill="none" stroke-dashoffset="0.5" />
  </g>
</svg>