<?xml version="1.0" encoding="utf-8"?>
<svg version="1.1" xmlns:xlink="http://www.w3.org/1999/xlink" width="14px" height="14px" xmlns="http://www.w3.org/2000/svg">
  <g transform="matrix(1 0 0 1 -4497 -2398 )">
    <path d="M 4504 2398  C 4507.92 2398  4511 2401.08  4511 2405  C 4511 2408.92  4507.92 2412  4504 2412  C 4500.08 2412  4497 2408.92  4497 2405  C 4497 2401.08  4500.08 2398  4504 2398  Z " fill-rule="nonzero" fill="#1890ff" stroke="none" />
    <path d="M 4504 2398.5  C 4507.64 2398.5  4510.5 2401.36  4510.5 2405  C 4510.5 2408.64  4507.64 2411.5  4504 2411.5  C 4500.36 2411.5  4497.5 2408.64  4497.5 2405  C 4497.5 2401.36  4500.36 2398.5  4504 2398.5  Z " stroke-width="1" stroke="#d9d9d9" fill="none" />
  </g>
</svg>