<?xml version="1.0" encoding="utf-8"?>
<svg version="1.1" xmlns:xlink="http://www.w3.org/1999/xlink" width="18px" height="18px" preserveAspectRatio="xMinYMid meet" viewBox="2518 1947  18 16" xmlns="http://www.w3.org/2000/svg">
  <path d="M 2529 1955.5  L 2446 1955.5  A 5 5 0 0 0 2441.5 1960.5 L 2441.5 2147  A 5 5 0 0 0 2446 2152.5 L 2799 2152.5  A 3 3 0 0 1 2802 2149.5 A 3 3 0 0 1 2805 2152.5 L 3207 2152.5  A 3 3 0 0 1 3210 2149.5 A 3 3 0 0 1 3213 2152.5 L 3285 2152.5  A 3 3 0 0 1 3288 2149.5 A 3 3 0 0 1 3291 2152.5 L 3327 2152.5  A 3 3 0 0 1 3330 2149.5 A 3 3 0 0 1 3333 2152.5 L 3379 2152.5  A 3 3 0 0 1 3382 2149.5 A 3 3 0 0 1 3385 2152.5 L 3447 2152.5  A 3 3 0 0 1 3450 2149.5 A 3 3 0 0 1 3453 2152.5 L 3538 2152.5  A 5 5 0 0 0 3543.5 2147 L 3543.5 1997  A 3 3 0 0 0 3546.5 1994 A 3 3 0 0 0 3543.5 1991 L 3543.5 1876  A 5 5 0 0 1 3548.5 1871.5 L 3608 1871.5  " stroke-width="1" stroke="#ff3399" fill="none" />
  <path d="M 2527 1952.5  A 3 3 0 0 0 2524 1955.5 A 3 3 0 0 0 2527 1958.5 A 3 3 0 0 0 2530 1955.5 A 3 3 0 0 0 2527 1952.5 Z " fill-rule="nonzero" fill="#ff3399" stroke="none" />
</svg>