<?xml version="1.0" encoding="utf-8"?>
<svg version="1.1" xmlns:xlink="http://www.w3.org/1999/xlink" width="329px" height="10px" preserveAspectRatio="xMinYMid meet" viewBox="3283 2355  329 8" xmlns="http://www.w3.org/2000/svg">
  <path d="M 2815 1878.5  L 3283 1878.5  A 5 5 0 0 1 3288.5 1883.5 L 3288.5 2354  A 5 5 0 0 0 3293 2359.5 L 3327 2359.5  A 3 3 0 0 1 3330 2356.5 A 3 3 0 0 1 3333 2359.5 L 3379 2359.5  A 3 3 0 0 1 3382 2356.5 A 3 3 0 0 1 3385 2359.5 L 3612 2359.5  " stroke-width="1" stroke="#ff3399" fill="none" />
  <path d="M 2817 1875.5  A 3 3 0 0 0 2814 1878.5 A 3 3 0 0 0 2817 1881.5 A 3 3 0 0 0 2820 1878.5 A 3 3 0 0 0 2817 1875.5 Z " fill-rule="nonzero" fill="#ff3399" stroke="none" />
</svg>