<?xml version="1.0" encoding="utf-8"?>
<svg version="1.1" xmlns:xlink="http://www.w3.org/1999/xlink" width="18px" height="18px" preserveAspectRatio="xMinYMid meet" viewBox="3321 1707  18 16" xmlns="http://www.w3.org/2000/svg">
  <path d="M 3330.5 1713  A 3 3 0 0 1 3333.5 1716 A 3 3 0 0 1 3330.5 1719 L 3330.5 2519  A 3 3 0 0 1 3333.5 2522 A 3 3 0 0 1 3330.5 2525 L 3330.5 2882  A 3 3 0 0 1 3333.5 2885 A 3 3 0 0 1 3330.5 2888 L 3330.5 3258  A 5 5 0 0 0 3335.5 3263.5 L 3612 3263.5  " stroke-width="1" stroke="#ff3399" fill="none" />
  <path d="M 3332.35510940921 1710.64233821767  A 3 3 0 0 0 3329.35510940921 1713.64233821767 A 3 3 0 0 0 3332.35510940921 1716.64233821767 A 3 3 0 0 0 3335.35510940921 1713.64233821767 A 3 3 0 0 0 3332.35510940921 1710.64233821767 Z " fill-rule="nonzero" fill="#ff3399" stroke="none" />
</svg>