<?xml version="1.0" encoding="utf-8"?>
<svg version="1.1" xmlns:xlink="http://www.w3.org/1999/xlink" width="121px" height="10px" preserveAspectRatio="xMinYMid meet" viewBox="3487 1990  121 8" xmlns="http://www.w3.org/2000/svg">
  <path d="M 2542.5 2046  L 2542.5 2110  A 5 5 0 0 0 2547 2115.5 L 2799 2115.5  A 3 3 0 0 1 2802 2112.5 A 3 3 0 0 1 2805 2115.5 L 3207 2115.5  A 3 3 0 0 1 3210 2112.5 A 3 3 0 0 1 3213 2115.5 L 3285 2115.5  A 3 3 0 0 1 3288 2112.5 A 3 3 0 0 1 3291 2115.5 L 3327 2115.5  A 3 3 0 0 1 3330 2112.5 A 3 3 0 0 1 3333 2115.5 L 3379 2115.5  A 3 3 0 0 1 3382 2112.5 A 3 3 0 0 1 3385 2115.5 L 3447 2115.5  A 3 3 0 0 1 3450 2112.5 A 3 3 0 0 1 3453 2115.5 L 3487 2115.5  A 5 5 0 0 0 3492.5 2110.5 L 3492.5 1999  A 5 5 0 0 1 3497.5 1994.5 L 3608 1994.5  " stroke-width="1" stroke="#ff3399" fill="none" />
  <path d="M 2542.5 2045  A 3 3 0 0 0 2539.5 2048 A 3 3 0 0 0 2542.5 2051 A 3 3 0 0 0 2545.5 2048 A 3 3 0 0 0 2542.5 2045 Z " fill-rule="nonzero" fill="#ff3399" stroke="none" />
</svg>