<?xml version="1.0" encoding="utf-8"?>
<svg version="1.1" xmlns:xlink="http://www.w3.org/1999/xlink" width="10px" height="1282px" preserveAspectRatio="xMidYMin meet" viewBox="3378 1795  8 1282" xmlns="http://www.w3.org/2000/svg">
  <path d="M 3073 1800.5  L 3077 1800.5  A 3 3 0 0 1 3080 1797.5 A 3 3 0 0 1 3083 1800.5 L 3327 1800.5  A 3 3 0 0 1 3330 1797.5 A 3 3 0 0 1 3333 1800.5 L 3377 1800.5  A 5 5 0 0 1 3382.5 1805 L 3382.5 2519  A 3 3 0 0 1 3385.5 2522 A 3 3 0 0 1 3382.5 2525 L 3382.5 2882  A 3 3 0 0 1 3385.5 2885 A 3 3 0 0 1 3382.5 2888 L 3382.5 3067  A 5 5 0 0 0 3387.5 3072.5 L 3610 3072.5  " stroke-width="1" stroke="#ff3399" fill="none" />
  <path d="M 3075 1797.5  A 3 3 0 0 0 3072 1800.5 A 3 3 0 0 0 3075 1803.5 A 3 3 0 0 0 3078 1800.5 A 3 3 0 0 0 3075 1797.5 Z " fill-rule="nonzero" fill="#ff3399" stroke="none" />
</svg>