<?xml version="1.0" encoding="utf-8"?>
<svg version="1.1" xmlns:xlink="http://www.w3.org/1999/xlink" width="438px" height="175px" xmlns="http://www.w3.org/2000/svg">
  <g transform="matrix(1 0 0 1 -464 -411 )">
    <path d="M 465 415  A 3 3 0 0 1 468 412 L 898 412  A 3 3 0 0 1 901 415 L 901 582  A 3 3 0 0 1 898 585 L 468 585  A 3 3 0 0 1 465 582 L 465 415  Z " fill-rule="nonzero" fill="#000000" stroke="none" fill-opacity="0.0196078431372549" />
    <path d="M 464.5 415  A 3.5 3.5 0 0 1 468 411.5 L 898 411.5  A 3.5 3.5 0 0 1 901.5 415 L 901.5 582  A 3.5 3.5 0 0 1 898 585.5 L 468 585.5  A 3.5 3.5 0 0 1 464.5 582 L 464.5 415  Z " stroke-width="1" stroke-dasharray="9,4" stroke="#d9d9d9" fill="none" stroke-dashoffset="0.5" />
  </g>
</svg>