<?xml version="1.0" encoding="utf-8"?>
<svg version="1.1" xmlns:xlink="http://www.w3.org/1999/xlink" width="361px" height="69px" xmlns="http://www.w3.org/2000/svg">
  <g transform="matrix(1 0 0 1 -2203 -2035 )">
    <path d="M 2204 2039  A 3 3 0 0 1 2207 2036 L 2560 2036  A 3 3 0 0 1 2563 2039 L 2563 2100  A 3 3 0 0 1 2560 2103 L 2207 2103  A 3 3 0 0 1 2204 2100 L 2204 2039  Z " fill-rule="nonzero" fill="#ff3399" stroke="none" fill-opacity="0.0980392156862745" />
    <path d="M 2203.5 2039  A 3.5 3.5 0 0 1 2207 2035.5 L 2560 2035.5  A 3.5 3.5 0 0 1 2563.5 2039 L 2563.5 2100  A 3.5 3.5 0 0 1 2560 2103.5 L 2207 2103.5  A 3.5 3.5 0 0 1 2203.5 2100 L 2203.5 2039  Z " stroke-width="1" stroke-dasharray="9,4" stroke="#ff3399" fill="none" stroke-dashoffset="0.5" />
  </g>
</svg>