<?xml version="1.0" encoding="utf-8"?>
<svg version="1.1" xmlns:xlink="http://www.w3.org/1999/xlink" width="904px" height="46px" xmlns="http://www.w3.org/2000/svg">
  <g transform="matrix(1 0 0 1 -1922 -1668 )">
    <path d="M 1923 1672  A 3 3 0 0 1 1926 1669 L 2822 1669  A 3 3 0 0 1 2825 1672 L 2825 1710  A 3 3 0 0 1 2822 1713 L 1926 1713  A 3 3 0 0 1 1923 1710 L 1923 1672  Z " fill-rule="nonzero" fill="#ff3399" stroke="none" fill-opacity="0.0980392156862745" />
    <path d="M 1922.5 1672  A 3.5 3.5 0 0 1 1926 1668.5 L 2822 1668.5  A 3.5 3.5 0 0 1 2825.5 1672 L 2825.5 1710  A 3.5 3.5 0 0 1 2822 1713.5 L 1926 1713.5  A 3.5 3.5 0 0 1 1922.5 1710 L 1922.5 1672  Z " stroke-width="1" stroke-dasharray="9,4" stroke="#ff3399" fill="none" stroke-dashoffset="0.5" />
  </g>
</svg>