<?xml version="1.0" encoding="utf-8"?>
<svg version="1.1" xmlns:xlink="http://www.w3.org/1999/xlink" width="10px" height="153px" preserveAspectRatio="xMidYMin meet" viewBox="2470 1633  8 153" xmlns="http://www.w3.org/2000/svg">
  <path d="M 2474.5 1785  L 2474.5 1643  A 5 5 0 0 1 2479.5 1638.5 L 2899 1638.5  A 5 5 0 0 1 2904.5 1643.5 L 2904.5 1958  A 5 5 0 0 0 2909.5 1963.5 L 2957 1963.5  " stroke-width="1" stroke="#ff3399" fill="none" />
  <path d="M 2474.5 1780  A 3 3 0 0 0 2471.5 1783 A 3 3 0 0 0 2474.5 1786 A 3 3 0 0 0 2477.5 1783 A 3 3 0 0 0 2474.5 1780 Z " fill-rule="nonzero" fill="#ff3399" stroke="none" />
</svg>