<?xml version="1.0" encoding="utf-8"?>
<svg version="1.1" xmlns:xlink="http://www.w3.org/1999/xlink" width="321px" height="161px" xmlns="http://www.w3.org/2000/svg">
  <g transform="matrix(1 0 0 1 -2418 -1806 )">
    <path d="M 2419 1810  A 3 3 0 0 1 2422 1807 L 2735 1807  A 3 3 0 0 1 2738 1810 L 2738 1963  A 3 3 0 0 1 2735 1966 L 2422 1966  A 3 3 0 0 1 2419 1963 L 2419 1810  Z " fill-rule="nonzero" fill="#ff3399" stroke="none" fill-opacity="0.0980392156862745" />
    <path d="M 2418.5 1810  A 3.5 3.5 0 0 1 2422 1806.5 L 2735 1806.5  A 3.5 3.5 0 0 1 2738.5 1810 L 2738.5 1963  A 3.5 3.5 0 0 1 2735 1966.5 L 2422 1966.5  A 3.5 3.5 0 0 1 2418.5 1963 L 2418.5 1810  Z " stroke-width="1" stroke-dasharray="9,4" stroke="#ff3399" fill="none" stroke-dashoffset="0.5" />
  </g>
</svg>