<?xml version="1.0" encoding="utf-8"?>
<svg version="1.1" xmlns:xlink="http://www.w3.org/1999/xlink" width="18px" height="18px" preserveAspectRatio="xMinYMid meet" viewBox="3638 2240  18 16" xmlns="http://www.w3.org/2000/svg">
  <path d="M 3649 2248.5  L 3518.31012658228 2248.5  A 5 5 0 0 0 3513.81012658228 2253.5 L 3513.81012658228 2278.82911392405  A 5 5 0 0 1 3508.81012658228 2284.32911392405 L 3409.08544303797 2284.32911392405  A 0.0854430379747555 0.0854430379747555 0 0 0 3409.5 2284.41455696202 L 3409.5 2284  " stroke-width="1" stroke="#ff3399" fill="none" />
  <path d="M 3647 2245.5  A 3 3 0 0 0 3644 2248.5 A 3 3 0 0 0 3647 2251.5 A 3 3 0 0 0 3650 2248.5 A 3 3 0 0 0 3647 2245.5 Z " fill-rule="nonzero" fill="#ff3399" stroke="none" />
</svg>