<?xml version="1.0" encoding="utf-8"?>
<svg version="1.1" xmlns:xlink="http://www.w3.org/1999/xlink" width="401px" height="10px" preserveAspectRatio="xMinYMid meet" viewBox="3209 3488  401 8" xmlns="http://www.w3.org/2000/svg">
  <path d="M 3214.5 1810  L 3214.5 1853  A 3 3 0 0 1 3217.5 1856 A 3 3 0 0 1 3214.5 1859 L 3214.5 3375  A 3 3 0 0 1 3217.5 3378 A 3 3 0 0 1 3214.5 3381 L 3214.5 3487  A 5 5 0 0 0 3219.5 3492.5 L 3610 3492.5  " stroke-width="1" stroke="#ff3399" fill="none" />
  <path d="M 3214.5 1809  A 3 3 0 0 0 3211.5 1812 A 3 3 0 0 0 3214.5 1815 A 3 3 0 0 0 3217.5 1812 A 3 3 0 0 0 3214.5 1809 Z " fill-rule="nonzero" fill="#ff3399" stroke="none" />
</svg>