<?xml version="1.0" encoding="utf-8"?>
<svg version="1.1" xmlns:xlink="http://www.w3.org/1999/xlink" width="890px" height="95px" xmlns="http://www.w3.org/2000/svg">
  <g transform="matrix(1 0 0 1 -2466 -1728 )">
    <path d="M 2467 1732  A 3 3 0 0 1 2470 1729 L 3352 1729  A 3 3 0 0 1 3355 1732 L 3355 1819  A 3 3 0 0 1 3352 1822 L 2470 1822  A 3 3 0 0 1 2467 1819 L 2467 1732  Z " fill-rule="nonzero" fill="#ff3399" stroke="none" fill-opacity="0.0980392156862745" />
    <path d="M 2466.5 1732  A 3.5 3.5 0 0 1 2470 1728.5 L 3352 1728.5  A 3.5 3.5 0 0 1 3355.5 1732 L 3355.5 1819  A 3.5 3.5 0 0 1 3352 1822.5 L 2470 1822.5  A 3.5 3.5 0 0 1 2466.5 1819 L 2466.5 1732  Z " stroke-width="1" stroke-dasharray="9,4" stroke="#ff3399" fill="none" stroke-dashoffset="0.5" />
  </g>
</svg>