<?xml version="1.0" encoding="utf-8"?>
<svg version="1.1" xmlns:xlink="http://www.w3.org/1999/xlink" width="186px" height="13px" xmlns="http://www.w3.org/2000/svg">
  <g transform="matrix(1 0 0 1 -2453 -1699 )">
    <path d="M 2454 1703  A 3 3 0 0 1 2457 1700 L 2635 1700  A 3 3 0 0 1 2638 1703 L 2638 1708  A 3 3 0 0 1 2635 1711 L 2457 1711  A 3 3 0 0 1 2454 1708 L 2454 1703  Z " fill-rule="nonzero" fill="#ff3399" stroke="none" fill-opacity="0.0980392156862745" />
    <path d="M 2453.5 1703  A 3.5 3.5 0 0 1 2457 1699.5 L 2635 1699.5  A 3.5 3.5 0 0 1 2638.5 1703 L 2638.5 1708  A 3.5 3.5 0 0 1 2635 1711.5 L 2457 1711.5  A 3.5 3.5 0 0 1 2453.5 1708 L 2453.5 1703  Z " stroke-width="1" stroke-dasharray="9,4" stroke="#ff3399" fill="none" stroke-dashoffset="0.5" />
  </g>
</svg>