<?xml version="1.0" encoding="utf-8"?>
<svg version="1.1" xmlns:xlink="http://www.w3.org/1999/xlink" width="770px" height="326px" xmlns="http://www.w3.org/2000/svg">
  <g transform="matrix(1 0 0 1 -2470 -1849 )">
    <path d="M 2471 1853  A 3 3 0 0 1 2474 1850 L 3236 1850  A 3 3 0 0 1 3239 1853 L 3239 2171  A 3 3 0 0 1 3236 2174 L 2474 2174  A 3 3 0 0 1 2471 2171 L 2471 1853  Z " fill-rule="nonzero" fill="#ff3399" stroke="none" fill-opacity="0.0980392156862745" />
    <path d="M 2470.5 1853  A 3.5 3.5 0 0 1 2474 1849.5 L 3236 1849.5  A 3.5 3.5 0 0 1 3239.5 1853 L 3239.5 2171  A 3.5 3.5 0 0 1 3236 2174.5 L 2474 2174.5  A 3.5 3.5 0 0 1 2470.5 2171 L 2470.5 1853  Z " stroke-width="1" stroke-dasharray="9,4" stroke="#ff3399" fill="none" stroke-dashoffset="0.5" />
  </g>
</svg>