<?xml version="1.0" encoding="utf-8"?>
<svg version="1.1" xmlns:xlink="http://www.w3.org/1999/xlink" width="10px" height="22px" preserveAspectRatio="xMidYMin meet" viewBox="3446 1753  8 22" xmlns="http://www.w3.org/2000/svg">
  <path d="M 2607.5 1832  L 2607.5 1775  A 5 5 0 0 1 2612.5 1770.5 L 3445 1770.5  A 5 5 0 0 0 3450.5 1765.5 L 3450.5 1763  A 5 5 0 0 1 3455.5 1758.5 L 3606 1758.5  " stroke-width="1" stroke="#ff3399" fill="none" />
  <path d="M 2607.5 1827  A 3 3 0 0 0 2604.5 1830 A 3 3 0 0 0 2607.5 1833 A 3 3 0 0 0 2610.5 1830 A 3 3 0 0 0 2607.5 1827 Z " fill-rule="nonzero" fill="#ff3399" stroke="none" />
</svg>