<?xml version="1.0" encoding="utf-8"?>
<svg version="1.1" xmlns:xlink="http://www.w3.org/1999/xlink" width="687px" height="82px" xmlns="http://www.w3.org/2000/svg">
  <g transform="matrix(1 0 0 1 -2036 -2117 )">
    <path d="M 2037 2121  A 3 3 0 0 1 2040 2118 L 2719 2118  A 3 3 0 0 1 2722 2121 L 2722 2195  A 3 3 0 0 1 2719 2198 L 2040 2198  A 3 3 0 0 1 2037 2195 L 2037 2121  Z " fill-rule="nonzero" fill="#ff3399" stroke="none" fill-opacity="0.0980392156862745" />
    <path d="M 2036.5 2121  A 3.5 3.5 0 0 1 2040 2117.5 L 2719 2117.5  A 3.5 3.5 0 0 1 2722.5 2121 L 2722.5 2195  A 3.5 3.5 0 0 1 2719 2198.5 L 2040 2198.5  A 3.5 3.5 0 0 1 2036.5 2195 L 2036.5 2121  Z " stroke-width="1" stroke-dasharray="9,4" stroke="#ff3399" fill="none" stroke-dashoffset="0.5" />
  </g>
</svg>