<?xml version="1.0" encoding="utf-8"?>
<svg version="1.1" xmlns:xlink="http://www.w3.org/1999/xlink" width="18px" height="18px" preserveAspectRatio="xMinYMid meet" viewBox="2343 1979  18 16" xmlns="http://www.w3.org/2000/svg">
  <path d="M 2352.5 1989  L 2352.5 1985  A 5 5 0 0 1 2357.5 1980.5 L 3175 1980.5  A 5 5 0 0 1 3180.5 1985.5 L 3180.5 2106  A 5 5 0 0 0 3185.5 2111.5 L 3190 2111.5  " stroke-width="1" stroke="#ff3399" fill="none" />
  <path d="M 2352.5 1984  A 3 3 0 0 0 2349.5 1987 A 3 3 0 0 0 2352.5 1990 A 3 3 0 0 0 2355.5 1987 A 3 3 0 0 0 2352.5 1984 Z " fill-rule="nonzero" fill="#ff3399" stroke="none" />
</svg>