<?xml version="1.0" encoding="utf-8"?>
<svg version="1.1" xmlns:xlink="http://www.w3.org/1999/xlink" width="731px" height="132px" xmlns="http://www.w3.org/2000/svg">
  <g transform="matrix(1 0 0 1 -2036 -2252 )">
    <path d="M 2037 2256  A 3 3 0 0 1 2040 2253 L 2763 2253  A 3 3 0 0 1 2766 2256 L 2766 2380  A 3 3 0 0 1 2763 2383 L 2040 2383  A 3 3 0 0 1 2037 2380 L 2037 2256  Z " fill-rule="nonzero" fill="#ff3399" stroke="none" fill-opacity="0.0980392156862745" />
    <path d="M 2036.5 2256  A 3.5 3.5 0 0 1 2040 2252.5 L 2763 2252.5  A 3.5 3.5 0 0 1 2766.5 2256 L 2766.5 2380  A 3.5 3.5 0 0 1 2763 2383.5 L 2040 2383.5  A 3.5 3.5 0 0 1 2036.5 2380 L 2036.5 2256  Z " stroke-width="1" stroke-dasharray="9,4" stroke="#ff3399" fill="none" stroke-dashoffset="0.5" />
  </g>
</svg>