<?xml version="1.0" encoding="utf-8"?>
<svg version="1.1" xmlns:xlink="http://www.w3.org/1999/xlink" width="18px" height="18px" preserveAspectRatio="xMinYMid meet" viewBox="2310 2065  18 16" xmlns="http://www.w3.org/2000/svg">
  <path d="M 2319.5 2071  L 2319.5 2490  A 3 3 0 0 1 2322.5 2493 A 3 3 0 0 1 2319.5 2496 L 2319.5 2657  A 5 5 0 0 0 2324.5 2662.5 L 3196 2662.5  " stroke-width="1" stroke="#ff3399" fill="none" />
  <path d="M 2319.5 2070  A 3 3 0 0 0 2316.5 2073 A 3 3 0 0 0 2319.5 2076 A 3 3 0 0 0 2322.5 2073 A 3 3 0 0 0 2319.5 2070 Z " fill-rule="nonzero" fill="#ff3399" stroke="none" />
</svg>