<?xml version="1.0" encoding="utf-8"?>
<svg version="1.1" xmlns:xlink="http://www.w3.org/1999/xlink" width="71px" height="62px" xmlns="http://www.w3.org/2000/svg">
  <g transform="matrix(1 0 0 1 -339 -791 )">
    <path d="M 339 791  L 410 791  L 410 853  L 339 853  L 339 791  " fill-rule="nonzero" fill="#cccccc" stroke="none" />
    <path d="M 343 795  L 406 795  L 406 849  L 343 849  L 343 795  " fill-rule="nonzero" fill="#ffffff" stroke="none" />
    <path d="M 380.57 809.6  C 377.966 809.6  375.92 807.554  375.92 804.95  C 375.92 802.346  377.966 800.3  380.57 800.3  C 383.174 800.3  385.22 802.346  385.22 804.95  C 385.22 807.554  383.174 809.6  380.57 809.6  " fill-rule="nonzero" fill="#cccccc" stroke="none" />
    <path d="M 345 848  L 345 819.95  L 360 807.2  L 381 821.278873239437  L 393 814.85  L 405 821.278873239437  L 405 848  L 345 848  " fill-rule="nonzero" fill="#169bd5" stroke="none" />
  </g>
</svg>