<?xml version="1.0" encoding="utf-8"?>
<svg version="1.1" xmlns:xlink="http://www.w3.org/1999/xlink" width="583px" height="30px" xmlns="http://www.w3.org/2000/svg">
  <g transform="matrix(1 0 0 1 -2480 -1947 )">
    <path d="M 2481 1951  A 3 3 0 0 1 2484 1948 L 3059 1948  A 3 3 0 0 1 3062 1951 L 3062 1973  A 3 3 0 0 1 3059 1976 L 2484 1976  A 3 3 0 0 1 2481 1973 L 2481 1951  Z " fill-rule="nonzero" fill="#ff3399" stroke="none" fill-opacity="0.0980392156862745" />
    <path d="M 2480.5 1951  A 3.5 3.5 0 0 1 2484 1947.5 L 3059 1947.5  A 3.5 3.5 0 0 1 3062.5 1951 L 3062.5 1973  A 3.5 3.5 0 0 1 3059 1976.5 L 2484 1976.5  A 3.5 3.5 0 0 1 2480.5 1973 L 2480.5 1951  Z " stroke-width="1" stroke-dasharray="9,4" stroke="#ff3399" fill="none" stroke-dashoffset="0.5" />
  </g>
</svg>