<?xml version="1.0" encoding="utf-8"?>
<svg version="1.1" xmlns:xlink="http://www.w3.org/1999/xlink" width="530px" height="54px" xmlns="http://www.w3.org/2000/svg">
  <g transform="matrix(1 0 0 1 -2473 -1714 )">
    <path d="M 2474 1718  A 3 3 0 0 1 2477 1715 L 2999 1715  A 3 3 0 0 1 3002 1718 L 3002 1764  A 3 3 0 0 1 2999 1767 L 2477 1767  A 3 3 0 0 1 2474 1764 L 2474 1718  Z " fill-rule="nonzero" fill="#ff3399" stroke="none" fill-opacity="0.0980392156862745" />
    <path d="M 2473.5 1718  A 3.5 3.5 0 0 1 2477 1714.5 L 2999 1714.5  A 3.5 3.5 0 0 1 3002.5 1718 L 3002.5 1764  A 3.5 3.5 0 0 1 2999 1767.5 L 2477 1767.5  A 3.5 3.5 0 0 1 2473.5 1764 L 2473.5 1718  Z " stroke-width="1" stroke-dasharray="9,4" stroke="#ff3399" fill="none" stroke-dashoffset="0.5" />
  </g>
</svg>