<?xml version="1.0" encoding="utf-8"?>
<svg version="1.1" xmlns:xlink="http://www.w3.org/1999/xlink" width="221px" height="26px" xmlns="http://www.w3.org/2000/svg">
  <g transform="matrix(1 0 0 1 -1756 -1844 )">
    <path d="M 1757 1848  A 3 3 0 0 1 1760 1845 L 1973 1845  A 3 3 0 0 1 1976 1848 L 1976 1866  A 3 3 0 0 1 1973 1869 L 1760 1869  A 3 3 0 0 1 1757 1866 L 1757 1848  Z " fill-rule="nonzero" fill="#ff3399" stroke="none" fill-opacity="0.0980392156862745" />
    <path d="M 1756.5 1848  A 3.5 3.5 0 0 1 1760 1844.5 L 1973 1844.5  A 3.5 3.5 0 0 1 1976.5 1848 L 1976.5 1866  A 3.5 3.5 0 0 1 1973 1869.5 L 1760 1869.5  A 3.5 3.5 0 0 1 1756.5 1866 L 1756.5 1848  Z " stroke-width="1" stroke-dasharray="9,4" stroke="#ff3399" fill="none" stroke-dashoffset="0.5" />
  </g>
</svg>