<?xml version="1.0" encoding="utf-8"?>
<svg version="1.1" xmlns:xlink="http://www.w3.org/1999/xlink" width="531px" height="41px" xmlns="http://www.w3.org/2000/svg">
  <g transform="matrix(1 0 0 1 -1756 -1884 )">
    <path d="M 1757 1888  A 3 3 0 0 1 1760 1885 L 2283 1885  A 3 3 0 0 1 2286 1888 L 2286 1921  A 3 3 0 0 1 2283 1924 L 1760 1924  A 3 3 0 0 1 1757 1921 L 1757 1888  Z " fill-rule="nonzero" fill="#ff3399" stroke="none" fill-opacity="0.0980392156862745" />
    <path d="M 1756.5 1888  A 3.5 3.5 0 0 1 1760 1884.5 L 2283 1884.5  A 3.5 3.5 0 0 1 2286.5 1888 L 2286.5 1921  A 3.5 3.5 0 0 1 2283 1924.5 L 1760 1924.5  A 3.5 3.5 0 0 1 1756.5 1921 L 1756.5 1888  Z " stroke-width="1" stroke-dasharray="9,4" stroke="#ff3399" fill="none" stroke-dashoffset="0.5" />
  </g>
</svg>