<?xml version="1.0" encoding="utf-8"?>
<svg version="1.1" xmlns:xlink="http://www.w3.org/1999/xlink" width="531px" height="44px" xmlns="http://www.w3.org/2000/svg">
  <g transform="matrix(1 0 0 1 -1756 -1937 )">
    <path d="M 1757 1941  A 3 3 0 0 1 1760 1938 L 2283 1938  A 3 3 0 0 1 2286 1941 L 2286 1977  A 3 3 0 0 1 2283 1980 L 1760 1980  A 3 3 0 0 1 1757 1977 L 1757 1941  Z " fill-rule="nonzero" fill="#ff3399" stroke="none" fill-opacity="0.0980392156862745" />
    <path d="M 1756.5 1941  A 3.5 3.5 0 0 1 1760 1937.5 L 2283 1937.5  A 3.5 3.5 0 0 1 2286.5 1941 L 2286.5 1977  A 3.5 3.5 0 0 1 2283 1980.5 L 1760 1980.5  A 3.5 3.5 0 0 1 1756.5 1977 L 1756.5 1941  Z " stroke-width="1" stroke-dasharray="9,4" stroke="#ff3399" fill="none" stroke-dashoffset="0.5" />
  </g>
</svg>