<?xml version="1.0" encoding="utf-8"?>
<svg version="1.1" xmlns:xlink="http://www.w3.org/1999/xlink" width="18px" height="18px" preserveAspectRatio="xMinYMid meet" viewBox="1986 1978  18 16" xmlns="http://www.w3.org/2000/svg">
  <path d="M 1995.5 1988  L 1995.5 1965  A 5 5 0 0 1 2000.5 1960.5 L 2698 1960.5  A 5 5 0 0 1 2703.5 1965.5 L 2703.5 2049  A 5 5 0 0 0 2708.5 2054.5 L 2926 2054.5  " stroke-width="1" stroke="#ff3399" fill="none" />
  <path d="M 1995.5 1983  A 3 3 0 0 0 1992.5 1986 A 3 3 0 0 0 1995.5 1989 A 3 3 0 0 0 1998.5 1986 A 3 3 0 0 0 1995.5 1983 Z " fill-rule="nonzero" fill="#ff3399" stroke="none" />
</svg>