<?xml version="1.0" encoding="utf-8"?>
<svg version="1.1" xmlns:xlink="http://www.w3.org/1999/xlink" width="253px" height="16px" xmlns="http://www.w3.org/2000/svg">
  <g transform="matrix(1 0 0 1 -1769 -1851 )">
    <path d="M 1770 1855  A 3 3 0 0 1 1773 1852 L 2018 1852  A 3 3 0 0 1 2021 1855 L 2021 1863  A 3 3 0 0 1 2018 1866 L 1773 1866  A 3 3 0 0 1 1770 1863 L 1770 1855  Z " fill-rule="nonzero" fill="#ff3399" stroke="none" fill-opacity="0.0980392156862745" />
    <path d="M 1769.5 1855  A 3.5 3.5 0 0 1 1773 1851.5 L 2018 1851.5  A 3.5 3.5 0 0 1 2021.5 1855 L 2021.5 1863  A 3.5 3.5 0 0 1 2018 1866.5 L 1773 1866.5  A 3.5 3.5 0 0 1 1769.5 1863 L 1769.5 1855  Z " stroke-width="1" stroke-dasharray="9,4" stroke="#ff3399" fill="none" stroke-dashoffset="0.5" />
  </g>
</svg>