<?xml version="1.0" encoding="utf-8"?>
<svg version="1.1" xmlns:xlink="http://www.w3.org/1999/xlink" width="174px" height="87px" xmlns="http://www.w3.org/2000/svg">
  <g transform="matrix(1 0 0 1 -2473 -1869 )">
    <path d="M 2474 1873  A 3 3 0 0 1 2477 1870 L 2643 1870  A 3 3 0 0 1 2646 1873 L 2646 1952  A 3 3 0 0 1 2643 1955 L 2477 1955  A 3 3 0 0 1 2474 1952 L 2474 1873  Z " fill-rule="nonzero" fill="#ff3399" stroke="none" fill-opacity="0.0980392156862745" />
    <path d="M 2473.5 1873  A 3.5 3.5 0 0 1 2477 1869.5 L 2643 1869.5  A 3.5 3.5 0 0 1 2646.5 1873 L 2646.5 1952  A 3.5 3.5 0 0 1 2643 1955.5 L 2477 1955.5  A 3.5 3.5 0 0 1 2473.5 1952 L 2473.5 1873  Z " stroke-width="1" stroke-dasharray="9,4" stroke="#ff3399" fill="none" stroke-dashoffset="0.5" />
  </g>
</svg>