<?xml version="1.0" encoding="utf-8"?>
<svg version="1.1" xmlns:xlink="http://www.w3.org/1999/xlink" width="758px" height="410px" xmlns="http://www.w3.org/2000/svg">
  <g transform="matrix(1 0 0 1 -1802 -2005 )">
    <path d="M 1803 2009  A 3 3 0 0 1 1806 2006 L 2556 2006  A 3 3 0 0 1 2559 2009 L 2559 2411  A 3 3 0 0 1 2556 2414 L 1806 2414  A 3 3 0 0 1 1803 2411 L 1803 2009  Z " fill-rule="nonzero" fill="#ff3399" stroke="none" fill-opacity="0.0980392156862745" />
    <path d="M 1802.5 2009  A 3.5 3.5 0 0 1 1806 2005.5 L 2556 2005.5  A 3.5 3.5 0 0 1 2559.5 2009 L 2559.5 2411  A 3.5 3.5 0 0 1 2556 2414.5 L 1806 2414.5  A 3.5 3.5 0 0 1 1802.5 2411 L 1802.5 2009  Z " stroke-width="1" stroke-dasharray="9,4" stroke="#ff3399" fill="none" stroke-dashoffset="0.5" />
  </g>
</svg>