<?xml version="1.0" encoding="utf-8"?>
<svg version="1.1" xmlns:xlink="http://www.w3.org/1999/xlink" width="10px" height="519px" preserveAspectRatio="xMidYMin meet" viewBox="2551 1885  8 519" xmlns="http://www.w3.org/2000/svg">
  <path d="M 2555.5 1886  L 2555.5 1952  A 3 3 0 0 1 2558.5 1955 A 3 3 0 0 1 2555.5 1958 L 2555.5 2394  A 5 5 0 0 0 2560.5 2399.5 L 2665 2399.5  " stroke-width="1" stroke="#ff3399" fill="none" />
  <path d="M 2555.5 1885  A 3 3 0 0 0 2552.5 1888 A 3 3 0 0 0 2555.5 1891 A 3 3 0 0 0 2558.5 1888 A 3 3 0 0 0 2555.5 1885 Z " fill-rule="nonzero" fill="#ff3399" stroke="none" />
</svg>