<?xml version="1.0" encoding="utf-8"?>
<svg version="1.1" xmlns:xlink="http://www.w3.org/1999/xlink" width="18px" height="18px" preserveAspectRatio="xMinYMid meet" viewBox="2471 1861  18 16" xmlns="http://www.w3.org/2000/svg">
  <path d="M 2478 1869.5  L 2628 1869.5  A 5 5 0 0 1 2633.5 1874 L 2633.5 1952  A 3 3 0 0 1 2636.5 1955 A 3 3 0 0 1 2633.5 1958 L 2633.5 2189  A 5 5 0 0 0 2638.5 2194.5 L 2665 2194.5  " stroke-width="1" stroke="#ff3399" fill="none" />
  <path d="M 2480 1866.5  A 3 3 0 0 0 2477 1869.5 A 3 3 0 0 0 2480 1872.5 A 3 3 0 0 0 2483 1869.5 A 3 3 0 0 0 2480 1866.5 Z " fill-rule="nonzero" fill="#ff3399" stroke="none" />
</svg>