<?xml version="1.0" encoding="utf-8"?>
<svg version="1.1" xmlns:xlink="http://www.w3.org/1999/xlink" width="18px" height="18px" preserveAspectRatio="xMinYMid meet" viewBox="1924 1849  18 16" xmlns="http://www.w3.org/2000/svg">
  <path d="M 1933.5 1859  L 1933.5 1706  A 4 4 0 0 1 1937 1702.5 A 3 3 0 0 1 1940 1699.5 A 3 3 0 0 1 1943 1702.5 L 2022 1702.5  A 3 3 0 0 1 2025 1699.5 A 3 3 0 0 1 2028 1702.5 L 2552 1702.5  A 3 3 0 0 1 2555 1699.5 A 3 3 0 0 1 2558 1702.5 L 2665 1702.5  " stroke-width="1" stroke="#ff3399" fill="none" />
  <path d="M 1933.5 1854  A 3 3 0 0 0 1930.5 1857 A 3 3 0 0 0 1933.5 1860 A 3 3 0 0 0 1936.5 1857 A 3 3 0 0 0 1933.5 1854 Z " fill-rule="nonzero" fill="#ff3399" stroke="none" />
</svg>