<?xml version="1.0" encoding="utf-8"?>
<svg version="1.1" xmlns:xlink="http://www.w3.org/1999/xlink" width="675px" height="10px" preserveAspectRatio="xMinYMid meet" viewBox="1980 1846  675 8" xmlns="http://www.w3.org/2000/svg">
  <path d="M 1985.5 1859  L 1985.5 1855  A 5 5 0 0 1 1990.5 1850.5 L 2648.5 1850.5  A 1.5 1.5 0 0 1 2650.5 1852 A 1.5 1.5 0 0 0 2652 1853.5 L 2665 1853.5  " stroke-width="1" stroke="#ff3399" fill="none" />
  <path d="M 1985.5 1854  A 3 3 0 0 0 1982.5 1857 A 3 3 0 0 0 1985.5 1860 A 3 3 0 0 0 1988.5 1857 A 3 3 0 0 0 1985.5 1854 Z " fill-rule="nonzero" fill="#ff3399" stroke="none" />
</svg>