<?xml version="1.0" encoding="utf-8"?>
<svg version="1.1" xmlns:xlink="http://www.w3.org/1999/xlink" width="56px" height="240px" xmlns="http://www.w3.org/2000/svg">
  <g transform="matrix(1 0 0 1 -2527 -1877 )">
    <path d="M 2528 1881  A 3 3 0 0 1 2531 1878 L 2579 1878  A 3 3 0 0 1 2582 1881 L 2582 2113  A 3 3 0 0 1 2579 2116 L 2531 2116  A 3 3 0 0 1 2528 2113 L 2528 1881  Z " fill-rule="nonzero" fill="#ff3399" stroke="none" fill-opacity="0.0980392156862745" />
    <path d="M 2527.5 1881  A 3.5 3.5 0 0 1 2531 1877.5 L 2579 1877.5  A 3.5 3.5 0 0 1 2582.5 1881 L 2582.5 2113  A 3.5 3.5 0 0 1 2579 2116.5 L 2531 2116.5  A 3.5 3.5 0 0 1 2527.5 2113 L 2527.5 1881  Z " stroke-width="1" stroke-dasharray="9,4" stroke="#ff3399" fill="none" stroke-dashoffset="0.5" />
  </g>
</svg>