<?xml version="1.0" encoding="utf-8"?>
<svg version="1.1" xmlns:xlink="http://www.w3.org/1999/xlink" width="398px" height="240px" xmlns="http://www.w3.org/2000/svg">
  <g transform="matrix(1 0 0 1 -2029 -1877 )">
    <path d="M 2030 1881  A 3 3 0 0 1 2033 1878 L 2423 1878  A 3 3 0 0 1 2426 1881 L 2426 2113  A 3 3 0 0 1 2423 2116 L 2033 2116  A 3 3 0 0 1 2030 2113 L 2030 1881  Z " fill-rule="nonzero" fill="#ff3399" stroke="none" fill-opacity="0.0980392156862745" />
    <path d="M 2029.5 1881  A 3.5 3.5 0 0 1 2033 1877.5 L 2423 1877.5  A 3.5 3.5 0 0 1 2426.5 1881 L 2426.5 2113  A 3.5 3.5 0 0 1 2423 2116.5 L 2033 2116.5  A 3.5 3.5 0 0 1 2029.5 2113 L 2029.5 1881  Z " stroke-width="1" stroke-dasharray="9,4" stroke="#ff3399" fill="none" stroke-dashoffset="0.5" />
  </g>
</svg>