<?xml version="1.0" encoding="utf-8"?>
<svg version="1.1" xmlns:xlink="http://www.w3.org/1999/xlink" width="77px" height="15px" xmlns="http://www.w3.org/2000/svg">
  <g transform="matrix(1 0 0 1 -1901 -1750 )">
    <path d="M 1902 1754  A 3 3 0 0 1 1905 1751 L 1974 1751  A 3 3 0 0 1 1977 1754 L 1977 1761  A 3 3 0 0 1 1974 1764 L 1905 1764  A 3 3 0 0 1 1902 1761 L 1902 1754  Z " fill-rule="nonzero" fill="#ff3399" stroke="none" fill-opacity="0.0980392156862745" />
    <path d="M 1901.5 1754  A 3.5 3.5 0 0 1 1905 1750.5 L 1974 1750.5  A 3.5 3.5 0 0 1 1977.5 1754 L 1977.5 1761  A 3.5 3.5 0 0 1 1974 1764.5 L 1905 1764.5  A 3.5 3.5 0 0 1 1901.5 1761 L 1901.5 1754  Z " stroke-width="1" stroke-dasharray="9,4" stroke="#ff3399" fill="none" stroke-dashoffset="0.5" />
  </g>
</svg>