<?xml version="1.0" encoding="utf-8"?>
<svg version="1.1" xmlns:xlink="http://www.w3.org/1999/xlink" width="475px" height="28px" xmlns="http://www.w3.org/2000/svg">
  <g transform="matrix(1 0 0 1 -1915 -1819 )">
    <path d="M 1916 1823  A 3 3 0 0 1 1919 1820 L 2386 1820  A 3 3 0 0 1 2389 1823 L 2389 1843  A 3 3 0 0 1 2386 1846 L 1919 1846  A 3 3 0 0 1 1916 1843 L 1916 1823  Z " fill-rule="nonzero" fill="#ff3399" stroke="none" fill-opacity="0.0980392156862745" />
    <path d="M 1915.5 1823  A 3.5 3.5 0 0 1 1919 1819.5 L 2386 1819.5  A 3.5 3.5 0 0 1 2389.5 1823 L 2389.5 1843  A 3.5 3.5 0 0 1 2386 1846.5 L 1919 1846.5  A 3.5 3.5 0 0 1 1915.5 1843 L 1915.5 1823  Z " stroke-width="1" stroke-dasharray="9,4" stroke="#ff3399" fill="none" stroke-dashoffset="0.5" />
  </g>
</svg>