<?xml version="1.0" encoding="utf-8"?>
<svg version="1.1" xmlns:xlink="http://www.w3.org/1999/xlink" width="352px" height="55px" xmlns="http://www.w3.org/2000/svg">
  <g transform="matrix(1 0 0 1 -1839 -1346 )">
    <path d="M 1840 1350  A 3 3 0 0 1 1843 1347 L 2187 1347  A 3 3 0 0 1 2190 1350 L 2190 1397  A 3 3 0 0 1 2187 1400 L 1843 1400  A 3 3 0 0 1 1840 1397 L 1840 1350  Z " fill-rule="nonzero" fill="#ff3399" stroke="none" fill-opacity="0.0980392156862745" />
    <path d="M 1839.5 1350  A 3.5 3.5 0 0 1 1843 1346.5 L 2187 1346.5  A 3.5 3.5 0 0 1 2190.5 1350 L 2190.5 1397  A 3.5 3.5 0 0 1 2187 1400.5 L 1843 1400.5  A 3.5 3.5 0 0 1 1839.5 1397 L 1839.5 1350  Z " stroke-width="1" stroke-dasharray="9,4" stroke="#ff3399" fill="none" stroke-dashoffset="0.5" />
  </g>
</svg>