<?xml version="1.0" encoding="utf-8"?>
<svg version="1.1" xmlns:xlink="http://www.w3.org/1999/xlink" width="89px" height="10px" preserveAspectRatio="xMinYMid meet" viewBox="2174 1997  89 8" xmlns="http://www.w3.org/2000/svg">
  <path d="M 2179.5 1617  L 2179.5 1651  A 3 3 0 0 1 2182.5 1654 A 3 3 0 0 1 2179.5 1657 L 2179.5 1777  A 3 3 0 0 1 2182.5 1780 A 3 3 0 0 1 2179.5 1783 L 2179.5 1996  A 5 5 0 0 0 2184.5 2001.5 L 2263 2001.5  " stroke-width="1" stroke="#ff3399" fill="none" />
  <path d="M 2179.5 1616  A 3 3 0 0 0 2176.5 1619 A 3 3 0 0 0 2179.5 1622 A 3 3 0 0 0 2182.5 1619 A 3 3 0 0 0 2179.5 1616 Z " fill-rule="nonzero" fill="#ff3399" stroke="none" />
</svg>