<?xml version="1.0" encoding="utf-8"?>
<svg version="1.1" xmlns:xlink="http://www.w3.org/1999/xlink" width="18px" height="18px" preserveAspectRatio="xMinYMid meet" viewBox="2185 1548  18 16" xmlns="http://www.w3.org/2000/svg">
  <path d="M 2192 1556.5  L 2225 1556.5  A 5 5 0 0 1 2230.5 1561 L 2230.5 1651  A 3 3 0 0 1 2233.5 1654 A 3 3 0 0 1 2230.5 1657 L 2230.5 1777  A 3 3 0 0 1 2233.5 1780 A 3 3 0 0 1 2230.5 1783 L 2230.5 1881  A 5 5 0 0 0 2235.5 1886.5 L 2269 1886.5  " stroke-width="1" stroke="#ff3399" fill="none" />
  <path d="M 2194 1553.5  A 3 3 0 0 0 2191 1556.5 A 3 3 0 0 0 2194 1559.5 A 3 3 0 0 0 2197 1556.5 A 3 3 0 0 0 2194 1553.5 Z " fill-rule="nonzero" fill="#ff3399" stroke="none" />
</svg>