<?xml version="1.0" encoding="utf-8"?>
<svg version="1.1" xmlns:xlink="http://www.w3.org/1999/xlink" width="273px" height="40px" xmlns="http://www.w3.org/2000/svg">
  <g transform="matrix(1 0 0 1 -3045 -1810 )">
    <path d="M 3046 1814  A 3 3 0 0 1 3049 1811 L 3314 1811  A 3 3 0 0 1 3317 1814 L 3317 1846  A 3 3 0 0 1 3314 1849 L 3049 1849  A 3 3 0 0 1 3046 1846 L 3046 1814  Z " fill-rule="nonzero" fill="#ff3399" stroke="none" fill-opacity="0.0980392156862745" />
    <path d="M 3045.5 1814  A 3.5 3.5 0 0 1 3049 1810.5 L 3314 1810.5  A 3.5 3.5 0 0 1 3317.5 1814 L 3317.5 1846  A 3.5 3.5 0 0 1 3314 1849.5 L 3049 1849.5  A 3.5 3.5 0 0 1 3045.5 1846 L 3045.5 1814  Z " stroke-width="1" stroke-dasharray="9,4" stroke="#ff3399" fill="none" stroke-dashoffset="0.5" />
  </g>
</svg>