<?xml version="1.0" encoding="utf-8"?>
<svg version="1.1" xmlns:xlink="http://www.w3.org/1999/xlink" width="601px" height="181px" xmlns="http://www.w3.org/2000/svg">
  <g transform="matrix(1 0 0 1 -339 -1145 )">
    <path d="M 340 1149  A 3 3 0 0 1 343 1146 L 936 1146  A 3 3 0 0 1 939 1149 L 939 1322  A 3 3 0 0 1 936 1325 L 343 1325  A 3 3 0 0 1 340 1322 L 340 1149  Z " fill-rule="nonzero" fill="#000000" stroke="none" fill-opacity="0.0196078431372549" />
    <path d="M 339.5 1149  A 3.5 3.5 0 0 1 343 1145.5 L 936 1145.5  A 3.5 3.5 0 0 1 939.5 1149 L 939.5 1322  A 3.5 3.5 0 0 1 936 1325.5 L 343 1325.5  A 3.5 3.5 0 0 1 339.5 1322 L 339.5 1149  Z " stroke-width="1" stroke-dasharray="9,4" stroke="#d9d9d9" fill="none" stroke-dashoffset="0.5" />
  </g>
</svg>