<?xml version="1.0" encoding="utf-8"?>
<svg version="1.1" xmlns:xlink="http://www.w3.org/1999/xlink" width="860px" height="155px" xmlns="http://www.w3.org/2000/svg">
  <g transform="matrix(1 0 0 1 -2462 -1859 )">
    <path d="M 2463 1863  A 3 3 0 0 1 2466 1860 L 3318 1860  A 3 3 0 0 1 3321 1863 L 3321 2010  A 3 3 0 0 1 3318 2013 L 2466 2013  A 3 3 0 0 1 2463 2010 L 2463 1863  Z " fill-rule="nonzero" fill="#ff3399" stroke="none" fill-opacity="0.0980392156862745" />
    <path d="M 2462.5 1863  A 3.5 3.5 0 0 1 2466 1859.5 L 3318 1859.5  A 3.5 3.5 0 0 1 3321.5 1863 L 3321.5 2010  A 3.5 3.5 0 0 1 3318 2013.5 L 2466 2013.5  A 3.5 3.5 0 0 1 2462.5 2010 L 2462.5 1863  Z " stroke-width="1" stroke-dasharray="9,4" stroke="#ff3399" fill="none" stroke-dashoffset="0.5" />
  </g>
</svg>