<?xml version="1.0" encoding="utf-8"?>
<svg version="1.1" xmlns:xlink="http://www.w3.org/1999/xlink" width="27px" height="20px" xmlns="http://www.w3.org/2000/svg">
  <g transform="matrix(1 0 0 1 -6351 -11056 )">
    <path d="M 6352 11060  A 3 3 0 0 1 6355 11057 L 6374 11057  A 3 3 0 0 1 6377 11060 L 6377 11072  A 3 3 0 0 1 6374 11075 L 6355 11075  A 3 3 0 0 1 6352 11072 L 6352 11060  Z " fill-rule="nonzero" fill="#f5f5f5" stroke="none" fill-opacity="0" />
    <path d="M 6351.5 11060  A 3.5 3.5 0 0 1 6355 11056.5 L 6374 11056.5  A 3.5 3.5 0 0 1 6377.5 11060 L 6377.5 11072  A 3.5 3.5 0 0 1 6374 11075.5 L 6355 11075.5  A 3.5 3.5 0 0 1 6351.5 11072 L 6351.5 11060  Z " stroke-width="1" stroke-dasharray="3,1" stroke="#d9d9d9" fill="none" stroke-dashoffset="0.5" />
  </g>
</svg>