<?xml version="1.0" encoding="utf-8"?>
<svg version="1.1" xmlns:xlink="http://www.w3.org/1999/xlink" width="14px" height="14px" xmlns="http://www.w3.org/2000/svg">
  <g transform="matrix(1 0 0 1 -540 -644 )">
    <path d="M 547 644  C 550.92 644  554 647.08  554 651  C 554 654.92  550.92 658  547 658  C 543.08 658  540 654.92  540 651  C 540 647.08  543.08 644  547 644  Z " fill-rule="nonzero" fill="#ffffff" stroke="none" fill-opacity="0" />
    <path d="M 547 644.5  C 550.64 644.5  553.5 647.36  553.5 651  C 553.5 654.64  550.64 657.5  547 657.5  C 543.36 657.5  540.5 654.64  540.5 651  C 540.5 647.36  543.36 644.5  547 644.5  Z " stroke-width="1" stroke="#d9d9d9" fill="none" />
  </g>
</svg>