<?xml version="1.0" encoding="utf-8"?>
<svg version="1.1" xmlns:xlink="http://www.w3.org/1999/xlink" width="10px" height="10px" xmlns="http://www.w3.org/2000/svg">
  <g transform="matrix(1 0 0 1 -1298 -1006 )">
    <path d="M 1303 1007  C 1305.24 1007  1307 1008.76  1307 1011  C 1307 1013.24  1305.24 1015  1303 1015  C 1300.76 1015  1299 1013.24  1299 1011  C 1299 1008.76  1300.76 1007  1303 1007  Z " fill-rule="nonzero" fill="#ffffff" stroke="none" />
    <path d="M 1303 1007  C 1305.24 1007  1307 1008.76  1307 1011  C 1307 1013.24  1305.24 1015  1303 1015  C 1300.76 1015  1299 1013.24  1299 1011  C 1299 1008.76  1300.76 1007  1303 1007  Z " stroke-width="2" stroke="#1890ff" fill="none" />
  </g>
</svg>