<?xml version="1.0" encoding="utf-8"?>
<svg version="1.1" xmlns:xlink="http://www.w3.org/1999/xlink" width="207px" height="30px" xmlns="http://www.w3.org/2000/svg">
  <g transform="matrix(1 0 0 1 -3100 -1793 )">
    <path d="M 3101 1797  A 3 3 0 0 1 3104 1794 L 3303 1794  A 3 3 0 0 1 3306 1797 L 3306 1819  A 3 3 0 0 1 3303 1822 L 3104 1822  A 3 3 0 0 1 3101 1819 L 3101 1797  Z " fill-rule="nonzero" fill="#ff3399" stroke="none" fill-opacity="0.0980392156862745" />
    <path d="M 3100.5 1797  A 3.5 3.5 0 0 1 3104 1793.5 L 3303 1793.5  A 3.5 3.5 0 0 1 3306.5 1797 L 3306.5 1819  A 3.5 3.5 0 0 1 3303 1822.5 L 3104 1822.5  A 3.5 3.5 0 0 1 3100.5 1819 L 3100.5 1797  Z " stroke-width="1" stroke-dasharray="9,4" stroke="#ff3399" fill="none" stroke-dashoffset="0.5" />
  </g>
</svg>