<?xml version="1.0" encoding="utf-8"?>
<svg version="1.1" xmlns:xlink="http://www.w3.org/1999/xlink" width="684px" height="64px" xmlns="http://www.w3.org/2000/svg">
  <g transform="matrix(1 0 0 1 -2633 -1766 )">
    <path d="M 2634 1770  A 3 3 0 0 1 2637 1767 L 3313 1767  A 3 3 0 0 1 3316 1770 L 3316 1826  A 3 3 0 0 1 3313 1829 L 2637 1829  A 3 3 0 0 1 2634 1826 L 2634 1770  Z " fill-rule="nonzero" fill="#ff3399" stroke="none" fill-opacity="0.0980392156862745" />
    <path d="M 2633.5 1770  A 3.5 3.5 0 0 1 2637 1766.5 L 3313 1766.5  A 3.5 3.5 0 0 1 3316.5 1770 L 3316.5 1826  A 3.5 3.5 0 0 1 3313 1829.5 L 2637 1829.5  A 3.5 3.5 0 0 1 2633.5 1826 L 2633.5 1770  Z " stroke-width="1" stroke-dasharray="9,4" stroke="#ff3399" fill="none" stroke-dashoffset="0.5" />
  </g>
</svg>