<?xml version="1.0" encoding="utf-8"?>
<svg version="1.1" xmlns:xlink="http://www.w3.org/1999/xlink" width="18px" height="18px" preserveAspectRatio="xMinYMid meet" viewBox="3276 1803  18 16" xmlns="http://www.w3.org/2000/svg">
  <path d="M 3285.5 1809  L 3285.5 3375  A 3 3 0 0 1 3288.5 3378 A 3 3 0 0 1 3285.5 3381 L 3285.5 3487  A 5 5 0 0 0 3290.5 3492.5 L 3767 3492.5  " stroke-width="1" stroke="#ff3399" fill="none" />
  <path d="M 3285.5 1808  A 3 3 0 0 0 3282.5 1811 A 3 3 0 0 0 3285.5 1814 A 3 3 0 0 0 3288.5 1811 A 3 3 0 0 0 3285.5 1808 Z " fill-rule="nonzero" fill="#ff3399" stroke="none" />
</svg>