<?xml version="1.0" encoding="utf-8"?>
<svg version="1.1" xmlns:xlink="http://www.w3.org/1999/xlink" width="1002px" height="134px" xmlns="http://www.w3.org/2000/svg">
  <g transform="matrix(1 0 0 1 -2619 -1841 )">
    <path d="M 2620 1845  A 3 3 0 0 1 2623 1842 L 3617 1842  A 3 3 0 0 1 3620 1845 L 3620 1971  A 3 3 0 0 1 3617 1974 L 2623 1974  A 3 3 0 0 1 2620 1971 L 2620 1845  Z " fill-rule="nonzero" fill="#ff3399" stroke="none" fill-opacity="0.0980392156862745" />
    <path d="M 2619.5 1845  A 3.5 3.5 0 0 1 2623 1841.5 L 3617 1841.5  A 3.5 3.5 0 0 1 3620.5 1845 L 3620.5 1971  A 3.5 3.5 0 0 1 3617 1974.5 L 2623 1974.5  A 3.5 3.5 0 0 1 2619.5 1971 L 2619.5 1845  Z " stroke-width="1" stroke-dasharray="9,4" stroke="#ff3399" fill="none" stroke-dashoffset="0.5" />
  </g>
</svg>