<?xml version="1.0" encoding="utf-8"?>
<svg version="1.1" xmlns:xlink="http://www.w3.org/1999/xlink" width="284px" height="262px" xmlns="http://www.w3.org/2000/svg">
  <g transform="matrix(1 0 0 1 -2232 -1556 )">
    <path d="M 2233 1560  A 3 3 0 0 1 2236 1557 L 2512 1557  A 3 3 0 0 1 2515 1560 L 2515 1814  A 3 3 0 0 1 2512 1817 L 2236 1817  A 3 3 0 0 1 2233 1814 L 2233 1560  Z " fill-rule="nonzero" fill="#ff3399" stroke="none" fill-opacity="0.0980392156862745" />
    <path d="M 2232.5 1560  A 3.5 3.5 0 0 1 2236 1556.5 L 2512 1556.5  A 3.5 3.5 0 0 1 2515.5 1560 L 2515.5 1814  A 3.5 3.5 0 0 1 2512 1817.5 L 2236 1817.5  A 3.5 3.5 0 0 1 2232.5 1814 L 2232.5 1560  Z " stroke-width="1" stroke-dasharray="9,4" stroke="#ff3399" fill="none" stroke-dashoffset="0.5" />
  </g>
</svg>