<?xml version="1.0" encoding="utf-8"?>
<svg version="1.1" xmlns:xlink="http://www.w3.org/1999/xlink" width="284px" height="54px" xmlns="http://www.w3.org/2000/svg">
  <g transform="matrix(1 0 0 1 -2214 -1939 )">
    <path d="M 2215 1943  A 3 3 0 0 1 2218 1940 L 2494 1940  A 3 3 0 0 1 2497 1943 L 2497 1989  A 3 3 0 0 1 2494 1992 L 2218 1992  A 3 3 0 0 1 2215 1989 L 2215 1943  Z " fill-rule="nonzero" fill="#ff3399" stroke="none" fill-opacity="0.0980392156862745" />
    <path d="M 2214.5 1943  A 3.5 3.5 0 0 1 2218 1939.5 L 2494 1939.5  A 3.5 3.5 0 0 1 2497.5 1943 L 2497.5 1989  A 3.5 3.5 0 0 1 2494 1992.5 L 2218 1992.5  A 3.5 3.5 0 0 1 2214.5 1989 L 2214.5 1943  Z " stroke-width="1" stroke-dasharray="9,4" stroke="#ff3399" fill="none" stroke-dashoffset="0.5" />
  </g>
</svg>