<?xml version="1.0" encoding="utf-8"?>
<svg version="1.1" xmlns:xlink="http://www.w3.org/1999/xlink" width="10px" height="504px" preserveAspectRatio="xMidYMin meet" viewBox="1702 1417  8 504" xmlns="http://www.w3.org/2000/svg">
  <path d="M 1706.5 1920  L 1706.5 1427  A 5 5 0 0 1 1711 1422.5 L 1830 1422.5  A 3 3 0 0 1 1833 1419.5 A 3 3 0 0 1 1836 1422.5 L 2416 1422.5  " stroke-width="1" stroke="#ff3399" fill="none" />
  <path d="M 1706.5 1915  A 3 3 0 0 0 1703.5 1918 A 3 3 0 0 0 1706.5 1921 A 3 3 0 0 0 1709.5 1918 A 3 3 0 0 0 1706.5 1915 Z " fill-rule="nonzero" fill="#ff3399" stroke="none" />
</svg>