<?xml version="1.0" encoding="utf-8"?>
<svg version="1.1" xmlns:xlink="http://www.w3.org/1999/xlink" width="283px" height="84px" xmlns="http://www.w3.org/2000/svg">
  <g transform="matrix(1 0 0 1 -1966 -2027 )">
    <path d="M 1967 2031  A 3 3 0 0 1 1970 2028 L 2245 2028  A 3 3 0 0 1 2248 2031 L 2248 2107  A 3 3 0 0 1 2245 2110 L 1970 2110  A 3 3 0 0 1 1967 2107 L 1967 2031  Z " fill-rule="nonzero" fill="#ff3399" stroke="none" fill-opacity="0.0980392156862745" />
    <path d="M 1966.5 2031  A 3.5 3.5 0 0 1 1970 2027.5 L 2245 2027.5  A 3.5 3.5 0 0 1 2248.5 2031 L 2248.5 2107  A 3.5 3.5 0 0 1 2245 2110.5 L 1970 2110.5  A 3.5 3.5 0 0 1 1966.5 2107 L 1966.5 2031  Z " stroke-width="1" stroke-dasharray="9,4" stroke="#ff3399" fill="none" stroke-dashoffset="0.5" />
  </g>
</svg>