<?xml version="1.0" encoding="utf-8"?>
<svg version="1.1" xmlns:xlink="http://www.w3.org/1999/xlink" width="283px" height="107px" xmlns="http://www.w3.org/2000/svg">
  <g transform="matrix(1 0 0 1 -1966 -1913 )">
    <path d="M 1967 1917  A 3 3 0 0 1 1970 1914 L 2245 1914  A 3 3 0 0 1 2248 1917 L 2248 2016  A 3 3 0 0 1 2245 2019 L 1970 2019  A 3 3 0 0 1 1967 2016 L 1967 1917  Z " fill-rule="nonzero" fill="#ff3399" stroke="none" fill-opacity="0.0980392156862745" />
    <path d="M 1966.5 1917  A 3.5 3.5 0 0 1 1970 1913.5 L 2245 1913.5  A 3.5 3.5 0 0 1 2248.5 1917 L 2248.5 2016  A 3.5 3.5 0 0 1 2245 2019.5 L 1970 2019.5  A 3.5 3.5 0 0 1 1966.5 2016 L 1966.5 1917  Z " stroke-width="1" stroke-dasharray="9,4" stroke="#ff3399" fill="none" stroke-dashoffset="0.5" />
  </g>
</svg>