<?xml version="1.0" encoding="utf-8"?>
<svg version="1.1" xmlns:xlink="http://www.w3.org/1999/xlink" width="10px" height="21px" preserveAspectRatio="xMidYMin meet" viewBox="2208 1875  8 21" xmlns="http://www.w3.org/2000/svg">
  <path d="M 2212.5 1895  L 2212.5 1885  A 5 5 0 0 1 2217.5 1880.5 L 2395 1880.5  A 5 5 0 0 1 2400.5 1885.5 L 2400.5 1967  A 5 5 0 0 0 2405.5 1972.5 L 2416 1972.5  " stroke-width="1" stroke="#ff3399" fill="none" />
  <path d="M 2212.5 1890  A 3 3 0 0 0 2209.5 1893 A 3 3 0 0 0 2212.5 1896 A 3 3 0 0 0 2215.5 1893 A 3 3 0 0 0 2212.5 1890 Z " fill-rule="nonzero" fill="#ff3399" stroke="none" />
</svg>