<?xml version="1.0" encoding="utf-8"?>
<svg version="1.1" xmlns:xlink="http://www.w3.org/1999/xlink" width="322px" height="239px" xmlns="http://www.w3.org/2000/svg">
  <g transform="matrix(1 0 0 1 -2955 -1976 )">
    <path d="M 2955 1976  L 3277 1976  L 3277 2215  L 2955 2215  L 2955 1976  " fill-rule="nonzero" fill="#cccccc" stroke="none" />
    <path d="M 2972 1993  L 3260 1993  L 3260 2198  L 2972 2198  L 2972 1993  " fill-rule="nonzero" fill="#ffffff" stroke="none" />
    <path d="M 3140.365 2047.7  C 3130.327 2047.7  3122.44 2039.813  3122.44 2029.775  C 3122.44 2019.737  3130.327 2011.85  3140.365 2011.85  C 3150.403 2011.85  3158.29 2019.737  3158.29 2029.775  C 3158.29 2039.813  3150.403 2047.7  3140.365 2047.7  " fill-rule="nonzero" fill="#cccccc" stroke="none" />
    <path d="M 2978 2192  L 2978 2085.85  L 3047 2037.6  L 3143.6 2106.04906832298  L 3198.8 2066.55  L 3254 2106.04906832298  L 3254 2192  L 2978 2192  " fill-rule="nonzero" fill="#169bd5" stroke="none" />
  </g>
</svg>