<?xml version="1.0" encoding="utf-8"?>
<svg version="1.1" xmlns:xlink="http://www.w3.org/1999/xlink" width="713px" height="30px" xmlns="http://www.w3.org/2000/svg">
  <g transform="matrix(1 0 0 1 -2134 -2047 )">
    <path d="M 2135 2051  A 3 3 0 0 1 2138 2048 L 2843 2048  A 3 3 0 0 1 2846 2051 L 2846 2073  A 3 3 0 0 1 2843 2076 L 2138 2076  A 3 3 0 0 1 2135 2073 L 2135 2051  Z " fill-rule="nonzero" fill="#ff3399" stroke="none" fill-opacity="0.0980392156862745" />
    <path d="M 2134.5 2051  A 3.5 3.5 0 0 1 2138 2047.5 L 2843 2047.5  A 3.5 3.5 0 0 1 2846.5 2051 L 2846.5 2073  A 3.5 3.5 0 0 1 2843 2076.5 L 2138 2076.5  A 3.5 3.5 0 0 1 2134.5 2073 L 2134.5 2051  Z " stroke-width="1" stroke-dasharray="9,4" stroke="#ff3399" fill="none" stroke-dashoffset="0.5" />
  </g>
</svg>