<?xml version="1.0" encoding="utf-8"?>
<svg version="1.1" xmlns:xlink="http://www.w3.org/1999/xlink" width="811px" height="384px" xmlns="http://www.w3.org/2000/svg">
  <g transform="matrix(1 0 0 1 -2036 -1845 )">
    <path d="M 2037 1849  A 3 3 0 0 1 2040 1846 L 2843 1846  A 3 3 0 0 1 2846 1849 L 2846 2225  A 3 3 0 0 1 2843 2228 L 2040 2228  A 3 3 0 0 1 2037 2225 L 2037 1849  Z " fill-rule="nonzero" fill="#ff3399" stroke="none" fill-opacity="0.0980392156862745" />
    <path d="M 2036.5 1849  A 3.5 3.5 0 0 1 2040 1845.5 L 2843 1845.5  A 3.5 3.5 0 0 1 2846.5 1849 L 2846.5 2225  A 3.5 3.5 0 0 1 2843 2228.5 L 2040 2228.5  A 3.5 3.5 0 0 1 2036.5 2225 L 2036.5 1849  Z " stroke-width="1" stroke-dasharray="9,4" stroke="#ff3399" fill="none" stroke-dashoffset="0.5" />
  </g>
</svg>