<?xml version="1.0" encoding="utf-8"?>
<svg version="1.1" xmlns:xlink="http://www.w3.org/1999/xlink" width="894px" height="76px" xmlns="http://www.w3.org/2000/svg">
  <g transform="matrix(1 0 0 1 -2036 -1714 )">
    <path d="M 2037 1718  A 3 3 0 0 1 2040 1715 L 2926 1715  A 3 3 0 0 1 2929 1718 L 2929 1786  A 3 3 0 0 1 2926 1789 L 2040 1789  A 3 3 0 0 1 2037 1786 L 2037 1718  Z " fill-rule="nonzero" fill="#ff3399" stroke="none" fill-opacity="0.0980392156862745" />
    <path d="M 2036.5 1718  A 3.5 3.5 0 0 1 2040 1714.5 L 2926 1714.5  A 3.5 3.5 0 0 1 2929.5 1718 L 2929.5 1786  A 3.5 3.5 0 0 1 2926 1789.5 L 2040 1789.5  A 3.5 3.5 0 0 1 2036.5 1786 L 2036.5 1718  Z " stroke-width="1" stroke-dasharray="9,4" stroke="#ff3399" fill="none" stroke-dashoffset="0.5" />
  </g>
</svg>