<?xml version="1.0" encoding="utf-8"?>
<svg version="1.1" xmlns:xlink="http://www.w3.org/1999/xlink" width="587px" height="10px" preserveAspectRatio="xMinYMid meet" viewBox="2599 1701  587 8" xmlns="http://www.w3.org/2000/svg">
  <path d="M 2604.5 1833  L 2604.5 1710  A 5 5 0 0 1 2609 1705.5 L 2874 1705.5  A 3 3 0 0 1 2877 1702.5 A 3 3 0 0 1 2880 1705.5 L 3186 1705.5  " stroke-width="1" stroke="#ff3399" fill="none" />
  <path d="M 2604.5 1828  A 3 3 0 0 0 2601.5 1831 A 3 3 0 0 0 2604.5 1834 A 3 3 0 0 0 2607.5 1831 A 3 3 0 0 0 2604.5 1828 Z " fill-rule="nonzero" fill="#ff3399" stroke="none" />
</svg>