<?xml version="1.0" encoding="utf-8"?>
<svg version="1.1" xmlns:xlink="http://www.w3.org/1999/xlink" width="18px" height="18px" preserveAspectRatio="xMinYMid meet" viewBox="1990 1530  18 16" xmlns="http://www.w3.org/2000/svg">
  <path d="M 1999.5 1540  L 1999.5 1400  A 5 5 0 0 1 2004 1395.5 L 2094 1395.5  A 3 3 0 0 1 2097 1392.5 A 3 3 0 0 1 2100 1395.5 L 2265 1395.5  " stroke-width="1" stroke="#ff3399" fill="none" />
  <path d="M 1999.5 1535  A 3 3 0 0 0 1996.5 1538 A 3 3 0 0 0 1999.5 1541 A 3 3 0 0 0 2002.5 1538 A 3 3 0 0 0 1999.5 1535 Z " fill-rule="nonzero" fill="#ff3399" stroke="none" />
</svg>