<?xml version="1.0" encoding="utf-8"?>
<svg version="1.1" xmlns:xlink="http://www.w3.org/1999/xlink" width="298px" height="10px" preserveAspectRatio="xMinYMid meet" viewBox="1957 1676  298 8" xmlns="http://www.w3.org/2000/svg">
  <path d="M 1962.5 1694  L 1962.5 1685  A 5 5 0 0 1 1967.5 1680.5 L 2245 1680.5  A 5 5 0 0 1 2250.5 1685.5 L 2250.5 1697  A 5 5 0 0 0 2255.5 1702.5 L 2265 1702.5  " stroke-width="1" stroke="#ff3399" fill="none" />
  <path d="M 1962.5 1689  A 3 3 0 0 0 1959.5 1692 A 3 3 0 0 0 1962.5 1695 A 3 3 0 0 0 1965.5 1692 A 3 3 0 0 0 1962.5 1689 Z " fill-rule="nonzero" fill="#ff3399" stroke="none" />
</svg>