<?xml version="1.0" encoding="utf-8"?>
<svg version="1.1" xmlns:xlink="http://www.w3.org/1999/xlink" width="89px" height="10px" preserveAspectRatio="xMinYMid meet" viewBox="2086 1950  89 8" xmlns="http://www.w3.org/2000/svg">
  <path d="M 2087 1954.5  L 2165 1954.5  A 5 5 0 0 1 2170.5 1959 L 2170.5 2020  A 3 3 0 0 1 2173.5 2023 A 3 3 0 0 1 2170.5 2026 L 2170.5 2137  A 5 5 0 0 0 2175.5 2142.5 L 2265 2142.5  " stroke-width="1" stroke="#ff3399" fill="none" />
  <path d="M 2089 1951.5  A 3 3 0 0 0 2086 1954.5 A 3 3 0 0 0 2089 1957.5 A 3 3 0 0 0 2092 1954.5 A 3 3 0 0 0 2089 1951.5 Z " fill-rule="nonzero" fill="#ff3399" stroke="none" />
</svg>