<?xml version="1.0" encoding="utf-8"?>
<svg version="1.1" xmlns:xlink="http://www.w3.org/1999/xlink" width="89px" height="32px" xmlns="http://www.w3.org/2000/svg">
  <g transform="matrix(1 0 0 1 -353 -4538 )">
    <path d="M 354 4542  A 3 3 0 0 1 357 4539 L 438 4539  A 3 3 0 0 1 441 4542 L 441 4566  A 3 3 0 0 1 438 4569 L 357 4569  A 3 3 0 0 1 354 4566 L 354 4542  Z " fill-rule="nonzero" fill="#ffffff" stroke="none" />
    <path d="M 353.5 4542  A 3.5 3.5 0 0 1 357 4538.5 L 438 4538.5  A 3.5 3.5 0 0 1 441.5 4542 L 441.5 4566  A 3.5 3.5 0 0 1 438 4569.5 L 357 4569.5  A 3.5 3.5 0 0 1 353.5 4566 L 353.5 4542  Z " stroke-width="1" stroke-dasharray="3,1" stroke="#d9d9d9" fill="none" stroke-dashoffset="0.5" />
  </g>
</svg>