<?xml version="1.0" encoding="utf-8"?>
<svg version="1.1" xmlns:xlink="http://www.w3.org/1999/xlink" width="480px" height="32px" xmlns="http://www.w3.org/2000/svg">
  <g transform="matrix(1 0 0 1 -877 -4538 )">
    <path d="M 878 4542  A 3 3 0 0 1 881 4539 L 1353 4539  A 3 3 0 0 1 1356 4542 L 1356 4566  A 3 3 0 0 1 1353 4569 L 881 4569  A 3 3 0 0 1 878 4566 L 878 4542  Z " fill-rule="nonzero" fill="#ffffff" stroke="none" />
    <path d="M 877.5 4542  A 3.5 3.5 0 0 1 881 4538.5 L 1353 4538.5  A 3.5 3.5 0 0 1 1356.5 4542 L 1356.5 4566  A 3.5 3.5 0 0 1 1353 4569.5 L 881 4569.5  A 3.5 3.5 0 0 1 877.5 4566 L 877.5 4542  Z " stroke-width="1" stroke-dasharray="9,4" stroke="#d9d9d9" fill="none" stroke-dashoffset="0.5" />
  </g>
</svg>