<?xml version="1.0" encoding="utf-8"?>
<svg version="1.1" xmlns:xlink="http://www.w3.org/1999/xlink" width="10px" height="208px" preserveAspectRatio="xMidYMin meet" viewBox="2710 1842  8 208" xmlns="http://www.w3.org/2000/svg">
  <path d="M 2181.5 2098  L 2181.5 2050  A 5 5 0 0 1 2186.5 2045.5 L 2709 2045.5  A 5 5 0 0 0 2714.5 2040.5 L 2714.5 1852  A 5 5 0 0 1 2719.5 1847.5 L 2724 1847.5  " stroke-width="1" stroke="#ff3399" fill="none" />
  <path d="M 2181.5 2093  A 3 3 0 0 0 2178.5 2096 A 3 3 0 0 0 2181.5 2099 A 3 3 0 0 0 2184.5 2096 A 3 3 0 0 0 2181.5 2093 Z " fill-rule="nonzero" fill="#ff3399" stroke="none" />
</svg>