<?xml version="1.0" encoding="utf-8"?>
<svg version="1.1" xmlns:xlink="http://www.w3.org/1999/xlink" width="18px" height="18px" preserveAspectRatio="xMinYMid meet" viewBox="2172 1878  18 16" xmlns="http://www.w3.org/2000/svg">
  <path d="M 2181.5 1888  L 2181.5 1634  A 5 5 0 0 1 2186 1629.5 L 2440 1629.5  A 3 3 0 0 1 2443 1626.5 A 3 3 0 0 1 2446 1629.5 L 2722 1629.5  " stroke-width="1" stroke="#ff3399" fill="none" />
  <path d="M 2181.5 1883  A 3 3 0 0 0 2178.5 1886 A 3 3 0 0 0 2181.5 1889 A 3 3 0 0 0 2184.5 1886 A 3 3 0 0 0 2181.5 1883 Z " fill-rule="nonzero" fill="#ff3399" stroke="none" />
</svg>