<?xml version="1.0" encoding="utf-8"?>
<svg version="1.1" xmlns:xlink="http://www.w3.org/1999/xlink" width="32px" height="32px" xmlns="http://www.w3.org/2000/svg">
  <g transform="matrix(1 0 0 1 -935 -192 )">
    <path d="M 951 192.5  C 959.68 192.5  966.5 199.32  966.5 208  C 966.5 216.68  959.68 223.5  951 223.5  C 942.32 223.5  935.5 216.68  935.5 208  C 935.5 199.32  942.32 192.5  951 192.5  Z " fill-rule="nonzero" fill="#ffffff" stroke="none" fill-opacity="0" />
    <path d="M 951 192.5  C 959.68 192.5  966.5 199.32  966.5 208  C 966.5 216.68  959.68 223.5  951 223.5  C 942.32 223.5  935.5 216.68  935.5 208  C 935.5 199.32  942.32 192.5  951 192.5  Z " stroke-width="1" stroke="#000000" fill="none" stroke-opacity="0.149019607843137" />
  </g>
</svg>