<?xml version="1.0" encoding="utf-8"?>
<svg version="1.1" xmlns:xlink="http://www.w3.org/1999/xlink" width="223px" height="32px" xmlns="http://www.w3.org/2000/svg">
  <g transform="matrix(1 0 0 1 -2155 -1660 )">
    <path d="M 2156 1664  A 3 3 0 0 1 2159 1661 L 2374 1661  A 3 3 0 0 1 2377 1664 L 2377 1688  A 3 3 0 0 1 2374 1691 L 2159 1691  A 3 3 0 0 1 2156 1688 L 2156 1664  Z " fill-rule="nonzero" fill="#ff3399" stroke="none" fill-opacity="0.0980392156862745" />
    <path d="M 2155.5 1664  A 3.5 3.5 0 0 1 2159 1660.5 L 2374 1660.5  A 3.5 3.5 0 0 1 2377.5 1664 L 2377.5 1688  A 3.5 3.5 0 0 1 2374 1691.5 L 2159 1691.5  A 3.5 3.5 0 0 1 2155.5 1688 L 2155.5 1664  Z " stroke-width="1" stroke-dasharray="9,4" stroke="#ff3399" fill="none" stroke-dashoffset="0.5" />
  </g>
</svg>