<?xml version="1.0" encoding="utf-8"?>
<svg version="1.1" xmlns:xlink="http://www.w3.org/1999/xlink" width="163px" height="40px" xmlns="http://www.w3.org/2000/svg">
  <g transform="matrix(1 0 0 1 -2023 -1874 )">
    <path d="M 2024 1878  A 3 3 0 0 1 2027 1875 L 2182 1875  A 3 3 0 0 1 2185 1878 L 2185 1910  A 3 3 0 0 1 2182 1913 L 2027 1913  A 3 3 0 0 1 2024 1910 L 2024 1878  Z " fill-rule="nonzero" fill="#ff3399" stroke="none" fill-opacity="0.0980392156862745" />
    <path d="M 2023.5 1878  A 3.5 3.5 0 0 1 2027 1874.5 L 2182 1874.5  A 3.5 3.5 0 0 1 2185.5 1878 L 2185.5 1910  A 3.5 3.5 0 0 1 2182 1913.5 L 2027 1913.5  A 3.5 3.5 0 0 1 2023.5 1910 L 2023.5 1878  Z " stroke-width="1" stroke-dasharray="9,4" stroke="#ff3399" fill="none" stroke-dashoffset="0.5" />
  </g>
</svg>