<?xml version="1.0" encoding="utf-8"?>
<svg version="1.1" xmlns:xlink="http://www.w3.org/1999/xlink" width="156px" height="27px" xmlns="http://www.w3.org/2000/svg">
  <g transform="matrix(1 0 0 1 -2023 -1925 )">
    <path d="M 2024 1929  A 3 3 0 0 1 2027 1926 L 2175 1926  A 3 3 0 0 1 2178 1929 L 2178 1948  A 3 3 0 0 1 2175 1951 L 2027 1951  A 3 3 0 0 1 2024 1948 L 2024 1929  Z " fill-rule="nonzero" fill="#ff3399" stroke="none" fill-opacity="0.0980392156862745" />
    <path d="M 2023.5 1929  A 3.5 3.5 0 0 1 2027 1925.5 L 2175 1925.5  A 3.5 3.5 0 0 1 2178.5 1929 L 2178.5 1948  A 3.5 3.5 0 0 1 2175 1951.5 L 2027 1951.5  A 3.5 3.5 0 0 1 2023.5 1948 L 2023.5 1929  Z " stroke-width="1" stroke-dasharray="9,4" stroke="#ff3399" fill="none" stroke-dashoffset="0.5" />
  </g>
</svg>