<?xml version="1.0" encoding="utf-8"?>
<svg version="1.1" xmlns:xlink="http://www.w3.org/1999/xlink" width="10px" height="193px" preserveAspectRatio="xMidYMin meet" viewBox="2953 1955  8 193" xmlns="http://www.w3.org/2000/svg">
  <path d="M 2249.5 1972  L 2249.5 1965  A 5 5 0 0 1 2254.5 1960.5 L 2952 1960.5  A 5 5 0 0 1 2957.5 1965.5 L 2957.5 2138  A 5 5 0 0 0 2962.5 2143.5 L 3182 2143.5  " stroke-width="1" stroke="#ff3399" fill="none" />
  <path d="M 2249.5 1967  A 3 3 0 0 0 2246.5 1970 A 3 3 0 0 0 2249.5 1973 A 3 3 0 0 0 2252.5 1970 A 3 3 0 0 0 2249.5 1967 Z " fill-rule="nonzero" fill="#ff3399" stroke="none" />
</svg>