<?xml version="1.0" encoding="utf-8"?>
<svg version="1.1" xmlns:xlink="http://www.w3.org/1999/xlink" width="232px" height="40px" xmlns="http://www.w3.org/2000/svg">
  <g transform="matrix(1 0 0 1 -2418 -2020 )">
    <path d="M 2419 2024  A 3 3 0 0 1 2422 2021 L 2646 2021  A 3 3 0 0 1 2649 2024 L 2649 2056  A 3 3 0 0 1 2646 2059 L 2422 2059  A 3 3 0 0 1 2419 2056 L 2419 2024  Z " fill-rule="nonzero" fill="#ff3399" stroke="none" fill-opacity="0.0980392156862745" />
    <path d="M 2418.5 2024  A 3.5 3.5 0 0 1 2422 2020.5 L 2646 2020.5  A 3.5 3.5 0 0 1 2649.5 2024 L 2649.5 2056  A 3.5 3.5 0 0 1 2646 2059.5 L 2422 2059.5  A 3.5 3.5 0 0 1 2418.5 2056 L 2418.5 2024  Z " stroke-width="1" stroke-dasharray="9,4" stroke="#ff3399" fill="none" stroke-dashoffset="0.5" />
  </g>
</svg>