<?xml version="1.0" encoding="utf-8"?>
<svg version="1.1" xmlns:xlink="http://www.w3.org/1999/xlink" width="85px" height="62px" xmlns="http://www.w3.org/2000/svg">
  <g transform="matrix(1 0 0 1 -2807 -1869 )">
    <path d="M 2808 1873  A 3 3 0 0 1 2811 1870 L 2888 1870  A 3 3 0 0 1 2891 1873 L 2891 1927  A 3 3 0 0 1 2888 1930 L 2811 1930  A 3 3 0 0 1 2808 1927 L 2808 1873  Z " fill-rule="nonzero" fill="#ff3399" stroke="none" fill-opacity="0.0980392156862745" />
    <path d="M 2807.5 1873  A 3.5 3.5 0 0 1 2811 1869.5 L 2888 1869.5  A 3.5 3.5 0 0 1 2891.5 1873 L 2891.5 1927  A 3.5 3.5 0 0 1 2888 1930.5 L 2811 1930.5  A 3.5 3.5 0 0 1 2807.5 1927 L 2807.5 1873  Z " stroke-width="1" stroke-dasharray="9,4" stroke="#ff3399" fill="none" stroke-dashoffset="0.5" />
  </g>
</svg>