<?xml version="1.0" encoding="utf-8"?>
<svg version="1.1" xmlns:xlink="http://www.w3.org/1999/xlink" width="672px" height="43px" xmlns="http://www.w3.org/2000/svg">
  <g transform="matrix(1 0 0 1 -2023 -2238 )">
    <path d="M 2024 2242  A 3 3 0 0 1 2027 2239 L 2691 2239  A 3 3 0 0 1 2694 2242 L 2694 2277  A 3 3 0 0 1 2691 2280 L 2027 2280  A 3 3 0 0 1 2024 2277 L 2024 2242  Z " fill-rule="nonzero" fill="#ff3399" stroke="none" fill-opacity="0.0980392156862745" />
    <path d="M 2023.5 2242  A 3.5 3.5 0 0 1 2027 2238.5 L 2691 2238.5  A 3.5 3.5 0 0 1 2694.5 2242 L 2694.5 2277  A 3.5 3.5 0 0 1 2691 2280.5 L 2027 2280.5  A 3.5 3.5 0 0 1 2023.5 2277 L 2023.5 2242  Z " stroke-width="1" stroke-dasharray="9,4" stroke="#ff3399" fill="none" stroke-dashoffset="0.5" />
  </g>
</svg>