<?xml version="1.0" encoding="utf-8"?>
<svg version="1.1" xmlns:xlink="http://www.w3.org/1999/xlink" width="10px" height="10px" xmlns="http://www.w3.org/2000/svg">
  <g transform="matrix(1 0 0 1 -505 -576 )">
    <path d="M 510 577  C 512.24 577  514 578.76  514 581  C 514 583.24  512.24 585  510 585  C 507.76 585  506 583.24  506 581  C 506 578.76  507.76 577  510 577  Z " fill-rule="nonzero" fill="#ffffff" stroke="none" />
    <path d="M 510 577  C 512.24 577  514 578.76  514 581  C 514 583.24  512.24 585  510 585  C 507.76 585  506 583.24  506 581  C 506 578.76  507.76 577  510 577  Z " stroke-width="2" stroke="#d9d9d9" fill="none" />
  </g>
</svg>