<?xml version="1.0" encoding="utf-8"?>
<svg version="1.1" xmlns:xlink="http://www.w3.org/1999/xlink" width="142px" height="87px" xmlns="http://www.w3.org/2000/svg">
  <g transform="matrix(1 0 0 1 -2516 -1869 )">
    <path d="M 2517 1873  A 3 3 0 0 1 2520 1870 L 2654 1870  A 3 3 0 0 1 2657 1873 L 2657 1952  A 3 3 0 0 1 2654 1955 L 2520 1955  A 3 3 0 0 1 2517 1952 L 2517 1873  Z " fill-rule="nonzero" fill="#ff3399" stroke="none" fill-opacity="0.0980392156862745" />
    <path d="M 2516.5 1873  A 3.5 3.5 0 0 1 2520 1869.5 L 2654 1869.5  A 3.5 3.5 0 0 1 2657.5 1873 L 2657.5 1952  A 3.5 3.5 0 0 1 2654 1955.5 L 2520 1955.5  A 3.5 3.5 0 0 1 2516.5 1952 L 2516.5 1873  Z " stroke-width="1" stroke-dasharray="9,4" stroke="#ff3399" fill="none" stroke-dashoffset="0.5" />
  </g>
</svg>