<?xml version="1.0" encoding="utf-8"?>
<svg version="1.1" xmlns:xlink="http://www.w3.org/1999/xlink" width="226px" height="61px" xmlns="http://www.w3.org/2000/svg">
  <g transform="matrix(1 0 0 1 -1769 -1874 )">
    <path d="M 1770 1878  A 3 3 0 0 1 1773 1875 L 1991 1875  A 3 3 0 0 1 1994 1878 L 1994 1931  A 3 3 0 0 1 1991 1934 L 1773 1934  A 3 3 0 0 1 1770 1931 L 1770 1878  Z " fill-rule="nonzero" fill="#ff3399" stroke="none" fill-opacity="0.0980392156862745" />
    <path d="M 1769.5 1878  A 3.5 3.5 0 0 1 1773 1874.5 L 1991 1874.5  A 3.5 3.5 0 0 1 1994.5 1878 L 1994.5 1931  A 3.5 3.5 0 0 1 1991 1934.5 L 1773 1934.5  A 3.5 3.5 0 0 1 1769.5 1931 L 1769.5 1878  Z " stroke-width="1" stroke-dasharray="9,4" stroke="#ff3399" fill="none" stroke-dashoffset="0.5" />
  </g>
</svg>